<?xml version="1.0" encoding="utf-8"?>
<!-- Generator: Adobe Illustrator 27.5.0, SVG Export Plug-In . SVG Version: 6.00 Build 0)  -->
<svg version="1.1" xmlns="http://www.w3.org/2000/svg" xmlns:xlink="http://www.w3.org/1999/xlink" x="0px" y="0px"
	 viewBox="0 0 500 500" style="enable-background:new 0 0 500 500;" xml:space="preserve">
<g id="Background_Simple">
	<g>
		<path style="fill:#92E3A9;" d="M330.051,45.835c-44.639-24.702-98.885-27.008-149.56-8.004
			c-44.178,16.567-94.8,112.287-116.889,138.058C41.513,201.66,2.856,262.405,22.184,305.664
			c19.328,43.258,77.785,46.377,106.541,96.359c28.756,49.982,133.68,84.036,197.187,51.823
			c63.507-32.214,58.905-93.879,105.845-115.969c46.94-22.089,44.178-94.8,27.611-139.899
			c-10.753-29.27-33.103-54.903-52.761-78.545c-10.367-12.467-21.046-24.667-31.636-36.944
			C362.613,68.164,346.621,55.005,330.051,45.835z"/>
		<path style="opacity:0.7;fill:#FFFFFF;" d="M330.051,45.835c-44.639-24.702-98.885-27.008-149.56-8.004
			c-44.178,16.567-94.8,112.287-116.889,138.058C41.513,201.66,2.856,262.405,22.184,305.664
			c19.328,43.258,77.785,46.377,106.541,96.359c28.756,49.982,133.68,84.036,197.187,51.823
			c63.507-32.214,58.905-93.879,105.845-115.969c46.94-22.089,44.178-94.8,27.611-139.899
			c-10.753-29.27-33.103-54.903-52.761-78.545c-10.367-12.467-21.046-24.667-31.636-36.944
			C362.613,68.164,346.621,55.005,330.051,45.835z"/>
	</g>
</g>
<g id="Graphics_6">
	<g>
		<g>
			<circle style="fill:none;stroke:#263238;stroke-linejoin:round;stroke-miterlimit:10;" cx="373.5" cy="359.5" r="4.5"/>
			<circle style="fill:none;stroke:#263238;stroke-linejoin:round;stroke-miterlimit:10;" cx="432" cy="404.5" r="4.5"/>
			<circle style="fill:none;stroke:#263238;stroke-miterlimit:10;" cx="352" cy="401.5" r="4.5"/>
			<circle style="fill:none;stroke:#263238;stroke-linejoin:round;stroke-miterlimit:10;" cx="378.5" cy="395.5" r="7.5"/>
			<circle style="fill:none;stroke:#263238;stroke-linejoin:round;stroke-miterlimit:10;" cx="369.5" cy="429" r="4.5"/>
			<circle style="fill:none;stroke:#263238;stroke-linejoin:round;stroke-miterlimit:10;" cx="464.5" cy="437" r="4.5"/>
			<circle style="fill:none;stroke:#263238;stroke-linejoin:round;stroke-miterlimit:10;" cx="469" cy="360.5" r="4.5"/>
			<circle style="fill:none;stroke:#263238;stroke-linejoin:round;stroke-miterlimit:10;" cx="432.5" cy="349" r="4.5"/>
			<circle style="fill:none;stroke:#263238;stroke-linejoin:round;stroke-miterlimit:10;" cx="447.5" cy="370" r="7.5"/>
			
				<line style="fill:none;stroke:#263238;stroke-linejoin:round;stroke-miterlimit:10;" x1="377" y1="361.5" x2="428.5" y2="401.5"/>
			<line style="fill:none;stroke:#263238;stroke-linejoin:round;stroke-miterlimit:10;" x1="434" y1="401" x2="445" y2="377.5"/>
			<polyline style="fill:none;stroke:#263238;stroke-linejoin:round;stroke-miterlimit:10;" points="450,377.5 464.5,432.5 469,365 
							"/>
			<line style="fill:none;stroke:#263238;stroke-linejoin:round;stroke-miterlimit:10;" x1="427.5" y1="407" x2="374" y2="429"/>
			
				<line style="fill:none;stroke:#263238;stroke-linejoin:round;stroke-miterlimit:10;" x1="386" y1="395.5" x2="440.5" y2="372.5"/>
			<line style="fill:none;stroke:#263238;stroke-linejoin:round;stroke-miterlimit:10;" x1="376.5" y1="388" x2="373.5" y2="364"/>
			<line style="fill:none;stroke:#263238;stroke-linejoin:round;stroke-miterlimit:10;" x1="455" y1="367.5" x2="465" y2="363"/>
			
				<line style="fill:none;stroke:#263238;stroke-linejoin:round;stroke-miterlimit:10;" x1="354.5" y1="405.5" x2="366.5" y2="425"/>
			<line style="fill:none;stroke:#263238;stroke-linejoin:round;stroke-miterlimit:10;" x1="352" y1="397" x2="370.5" y2="363"/>
			<line style="fill:none;stroke:#263238;stroke-linejoin:round;stroke-miterlimit:10;" x1="384" y1="401" x2="460" y2="437"/>
			<line style="fill:none;stroke:#263238;stroke-linejoin:round;stroke-miterlimit:10;" x1="432" y1="409" x2="462" y2="434"/>
			<line style="fill:none;stroke:#263238;stroke-linejoin:round;stroke-miterlimit:10;" x1="378" y1="359.5" x2="440" y2="370"/>
			
				<line style="fill:none;stroke:#263238;stroke-linejoin:round;stroke-miterlimit:10;" x1="464.5" y1="360.5" x2="377" y2="357.5"/>
			<line style="fill:none;stroke:#263238;stroke-linejoin:round;stroke-miterlimit:10;" x1="465" y1="358.5" x2="437" y2="351.5"/>
			<line style="fill:none;stroke:#263238;stroke-linejoin:round;stroke-miterlimit:10;" x1="428" y1="351" x2="372.5" y2="425.5"/>
			<line style="fill:none;stroke:#263238;stroke-linejoin:round;stroke-miterlimit:10;" x1="371" y1="398" x2="356.5" y2="401.5"/>
		</g>
		<path style="fill:#263238;" d="M402.82,363.282c0-1.162-0.942-2.104-2.104-2.104c-1.162,0-2.104,0.942-2.104,2.104
			c0,1.162,0.942,2.104,2.104,2.104C401.878,365.386,402.82,364.444,402.82,363.282z"/>
		<path style="fill:#263238;" d="M381.808,415.596c0-1.162-0.942-2.104-2.104-2.104s-2.104,0.942-2.104,2.104
			s0.942,2.104,2.104,2.104S381.808,416.758,381.808,415.596z"/>
		<path style="fill:#263238;" d="M440.769,390.94c0-1.162-0.942-2.104-2.104-2.104s-2.104,0.942-2.104,2.104
			c0,1.162,0.942,2.104,2.104,2.104S440.769,392.102,440.769,390.94z"/>
		<path style="fill:#263238;" d="M440.216,426.458c0-1.162-0.942-2.104-2.104-2.104s-2.104,0.942-2.104,2.104
			c0,1.162,0.942,2.104,2.104,2.104S440.216,427.62,440.216,426.458z"/>
		<path style="fill:#263238;" d="M364.961,377.574c0-1.162-0.942-2.104-2.104-2.104s-2.104,0.942-2.104,2.104
			c0,1.162,0.942,2.104,2.104,2.104S364.961,378.736,364.961,377.574z"/>
		<circle style="fill:#263238;" cx="467.935" cy="374.191" r="2.104"/>
	</g>
</g>
<g id="Graphics_5">
	<g>
		<path style="fill:none;stroke:#263238;stroke-miterlimit:10;" d="M391.796,291.718v-51.27c0-1.426,1.156-2.582,2.582-2.582h53.836
			c1.426,0,2.582,1.156,2.582,2.582v1.954"/>
		<path style="fill:none;stroke:#263238;stroke-miterlimit:10;" d="M396.356,297.866h-1.978c-1.426,0-2.582-1.156-2.582-2.582"/>
		<path style="fill:none;stroke:#263238;stroke-miterlimit:10;" d="M450.796,245.911v49.373c0,1.426-1.156,2.582-2.582,2.582H400.06
			"/>
		<polyline style="fill:none;stroke:#263238;stroke-miterlimit:10;" points="408.513,260.53 408.513,254.866 434.08,254.866 
			434.08,280.866 426.18,280.866 		"/>
		<line style="fill:none;stroke:#263238;stroke-miterlimit:10;" x1="408.513" y1="267.938" x2="408.513" y2="264.039"/>
		<polyline style="fill:none;stroke:#263238;stroke-miterlimit:10;" points="423.061,280.866 408.513,280.866 408.513,271.446 		"/>
		<g>
			<line style="fill:none;stroke:#263238;stroke-miterlimit:10;" x1="403.909" y1="238.329" x2="403.909" y2="222.101"/>
			<line style="fill:none;stroke:#263238;stroke-miterlimit:10;" x1="415.501" y1="238.329" x2="415.501" y2="222.101"/>
			<line style="fill:none;stroke:#263238;stroke-miterlimit:10;" x1="427.092" y1="238.329" x2="427.092" y2="222.101"/>
			<line style="fill:none;stroke:#263238;stroke-miterlimit:10;" x1="438.684" y1="238.329" x2="438.684" y2="222.101"/>
		</g>
		<g>
			<line style="fill:none;stroke:#263238;stroke-miterlimit:10;" x1="403.909" y1="314.253" x2="403.909" y2="298.025"/>
			<line style="fill:none;stroke:#263238;stroke-miterlimit:10;" x1="415.501" y1="314.253" x2="415.501" y2="298.025"/>
			<line style="fill:none;stroke:#263238;stroke-miterlimit:10;" x1="427.092" y1="314.253" x2="427.092" y2="298.025"/>
			<line style="fill:none;stroke:#263238;stroke-miterlimit:10;" x1="438.684" y1="314.253" x2="438.684" y2="298.025"/>
		</g>
		<g>
			<line style="fill:none;stroke:#263238;stroke-miterlimit:10;" x1="451.145" y1="250.79" x2="467.373" y2="250.79"/>
			<line style="fill:none;stroke:#263238;stroke-miterlimit:10;" x1="451.145" y1="262.381" x2="467.373" y2="262.381"/>
			<line style="fill:none;stroke:#263238;stroke-miterlimit:10;" x1="451.145" y1="273.973" x2="467.373" y2="273.973"/>
			<line style="fill:none;stroke:#263238;stroke-miterlimit:10;" x1="451.145" y1="285.564" x2="467.373" y2="285.564"/>
		</g>
		<g>
			<line style="fill:none;stroke:#263238;stroke-miterlimit:10;" x1="375.22" y1="250.79" x2="391.448" y2="250.79"/>
			<line style="fill:none;stroke:#263238;stroke-miterlimit:10;" x1="375.22" y1="262.381" x2="391.448" y2="262.381"/>
			<line style="fill:none;stroke:#263238;stroke-miterlimit:10;" x1="375.22" y1="273.973" x2="391.448" y2="273.973"/>
			<line style="fill:none;stroke:#263238;stroke-miterlimit:10;" x1="375.22" y1="285.564" x2="391.448" y2="285.564"/>
		</g>
		<path style="fill:#263238;" d="M469.477,273.973c0-1.162-0.942-2.104-2.104-2.104c-1.162,0-2.104,0.942-2.104,2.104
			c0,1.162,0.942,2.104,2.104,2.104C468.535,276.077,469.477,275.135,469.477,273.973z"/>
		<path style="fill:#263238;" d="M399.475,238.326c0-1.162-0.942-2.104-2.104-2.104s-2.104,0.942-2.104,2.104
			s0.942,2.104,2.104,2.104S399.475,239.488,399.475,238.326z"/>
		<path style="fill:#263238;" d="M384.944,285.09c0-1.162-0.942-2.104-2.104-2.104s-2.104,0.942-2.104,2.104
			c0,1.162,0.942,2.104,2.104,2.104S384.944,286.252,384.944,285.09z"/>
		<circle style="fill:#263238;" cx="427.094" cy="227.341" r="2.104"/>
		<path style="fill:#263238;" d="M423.014,297.958c0-1.162-0.942-2.104-2.104-2.104s-2.104,0.942-2.104,2.104
			s0.942,2.104,2.104,2.104S423.014,299.12,423.014,297.958z"/>
		<path style="fill:#263238;" d="M440.81,309.257c0-1.162-0.942-2.104-2.104-2.104s-2.104,0.942-2.104,2.104
			s0.942,2.104,2.104,2.104S440.81,310.418,440.81,309.257z"/>
	</g>
</g>
<g id="Graphics_4">
	<g>
		<g>
			<path style="fill:none;stroke:#263238;stroke-miterlimit:10;" d="M348.864,76.724c0,0-4.209,0.971-5.504,4.209
				c-1.295,3.238-10.36,24.93-10.36,27.52s1.943,4.533,1.943,4.533l21.368,8.742c0,0,4.533-1.295,8.094-0.648
				c3.561,0.648,5.828,6.799,9.389,7.447c3.561,0.647,18.454-0.324,25.577-3.561c7.123-3.238,9.389-13.274,9.389-20.073
				c0-6.799-2.266-13.598-4.209-14.893s-2.914-1.943-2.914-1.943"/>
			<path style="fill:none;stroke:#263238;stroke-miterlimit:10;" d="M396.781,84.818c0,0-2.266-1.943,3.561-0.971
				c5.828,0.971,20.397,20.073,25.253,26.225c4.856,6.151,9.713,6.475,13.598,2.59c3.885-3.885,0.971-8.742-0.324-11.332
				c-1.295-2.59-6.799-9.065-8.741-13.598c-1.943-4.533-7.447-16.188-11.979-19.102c-4.533-2.914-11.332-3.561-21.692,0.647
				s-15.217,7.77-15.217,7.77"/>
			<line style="fill:none;stroke:#263238;stroke-miterlimit:10;" x1="352.749" y1="76.4" x2="373.146" y2="75.105"/>
			<path style="fill:none;stroke:#263238;stroke-miterlimit:10;" d="M363.434,115.251c3.885-1.295,3.561-3.238,7.447-8.418
				c3.885-5.18,8.418-22.663,8.741-24.93c0.324-2.266-0.971-3.885-0.971-3.885l19.425,9.775"/>
			<path style="fill:none;stroke:#263238;stroke-miterlimit:10;" d="M339.799,112.985h17.807c0,0,4.856-3.238,7.123-9.065
				c2.266-5.828,6.799-19.102,8.094-22.016c1.295-2.914,0-4.856,0-4.856"/>
			<path style="fill:none;stroke:#263238;stroke-miterlimit:10;" d="M359.548,120.755c0,0-9.065-4.856-4.856-4.209
				s13.598,6.475,20.397,6.475c6.799,0,9.389-3.885,12.627-9.065c3.238-5.18,11.008-19.102,11.008-23.311"/>
			<path style="fill:none;stroke:#263238;stroke-miterlimit:10;" d="M427.538,122.374c0,0,5.504-7.123,10.684-0.647
				c5.18,6.475-1.943,16.512-4.856,19.426c-2.914,2.914-11.008,2.914-12.303,2.266c-1.295-0.647-2.266-1.619-2.266-1.619"/>
			<path style="fill:none;stroke:#263238;stroke-miterlimit:10;" d="M433.042,115.251l16.836,19.426c0,0,0.324-5.18,3.238-7.446
				c2.914-2.266,4.209-2.914,4.209-2.914l-15.54-16.188"/>
			<path style="fill:none;stroke:#263238;stroke-miterlimit:10;" d="M459.267,124.964h2.266c0,0,5.828,7.123,5.828,9.065
				c0,1.943-9.065,14.893-11.979,14.893c-2.914,0-7.123-2.266-7.123-2.266s1.619-2.266,2.914-4.533c1.295-2.266,0-5.504,0-5.504
				s5.828,4.209,4.857,9.713"/>
			<path style="fill:none;stroke:#263238;stroke-miterlimit:10;" d="M363.81,164.82c5.875,1.302,16.59,1.49,18.725,2.557
				c2.59,1.295,8.418,17.483,8.418,17.483"/>
			<path style="fill:none;stroke:#263238;stroke-miterlimit:10;" d="M358.901,122.698c0,0-2.914,1.943-1.295,4.533
				c1.619,2.59,5.18,4.209,5.18,4.209s-4.856,5.18-3.885,7.447c0.971,2.266,0,4.533,0,4.533s-0.971,2.914-0.648,4.533
				c0.324,1.619,0.648,4.209,0.648,4.209s-1.943,9.389,1.943,11.655"/>
			<path style="fill:none;stroke:#263238;stroke-miterlimit:10;" d="M448.259,146.656c0,0-6.151,5.504-6.475,12.303
				c-0.324,6.799-0.971,8.742-0.971,8.742"/>
			<path style="fill:none;stroke:#263238;stroke-miterlimit:10;" d="M464.863,115.731c-0.6,3.664-1.486,6.474-2.035,7.938"/>
			<path style="fill:none;stroke:#263238;stroke-miterlimit:10;" d="M465.46,106.017c0.061,1.405,0.053,2.766-0.007,4.072"/>
			<path style="fill:none;stroke:#263238;stroke-miterlimit:10;" d="M416.854,65.716c0,0,19.749-3.561,36.909,13.598
				c7.299,7.299,10.38,15.476,11.362,22.863"/>
		</g>
		<circle style="fill:#263238;" cx="339.481" cy="89.878" r="2.329"/>
		<circle style="fill:#263238;" cx="387.233" cy="127.44" r="2.329"/>
		<circle style="fill:#263238;" cx="383.448" cy="167.039" r="2.329"/>
		<path style="fill:#263238;" d="M427.925,110.071c0-1.286-1.043-2.329-2.329-2.329c-1.286,0-2.329,1.043-2.329,2.329
			c0,1.287,1.043,2.329,2.329,2.329C426.882,112.401,427.925,111.358,427.925,110.071z"/>
		<circle style="fill:#263238;" cx="422.465" cy="73.572" r="2.329"/>
		<circle style="fill:#263238;" cx="382.405" cy="76.465" r="2.329"/>
		<circle style="fill:#263238;" cx="460.318" cy="125.11" r="2.329"/>
	</g>
</g>
<g id="Graphics_3">
	<g>
		<g>
			<line style="fill:none;stroke:#263238;stroke-miterlimit:10;" x1="74.113" y1="70.633" x2="70.012" y2="70.633"/>
			<path style="fill:none;stroke:#263238;stroke-miterlimit:10;" d="M55.737,117.704h18.375c1.639,0,3.154-0.875,3.974-2.294
				l10.939-18.947c0.82-1.42,0.82-3.169,0-4.588L78.087,72.927"/>
			<path style="fill:none;stroke:#263238;stroke-miterlimit:10;" d="M66.188,70.633H52.235c-1.639,0-3.154,0.874-3.974,2.294
				L37.322,91.874c-0.82,1.42-0.82,3.169,0,4.588l10.939,18.947c0.82,1.42,2.334,2.294,3.974,2.294"/>
			<path style="fill:none;stroke:#263238;stroke-miterlimit:10;" d="M88.863,135.165l3.132,5.426c0.82,1.42,2.334,2.294,3.974,2.294
				h21.878c1.639,0,3.154-0.875,3.974-2.294l10.939-18.947c0.82-1.42,0.82-3.169,0-4.588l-6.458-11.186"/>
			<line style="fill:none;stroke:#263238;stroke-miterlimit:10;" x1="86.048" y1="130.289" x2="87.661" y2="133.084"/>
			<path style="fill:none;stroke:#263238;stroke-miterlimit:10;" d="M124.294,102.391l-2.473-4.283
				c-0.82-1.42-2.334-2.294-3.974-2.294H95.969c-1.639,0-3.154,0.875-3.974,2.294l-10.939,18.947c-0.82,1.42-0.82,3.169,0,4.588
				l3.238,5.608"/>
			<path style="fill:none;stroke:#263238;stroke-miterlimit:10;" d="M88.241,53.587l-7.185,12.444c-0.82,1.42-0.82,3.169,0,4.588
				l10.939,18.947c0.82,1.42,2.334,2.294,3.974,2.294h21.878c1.639,0,3.154-0.875,3.974-2.294L132.76,70.62
				c0.82-1.42,0.82-3.169,0-4.588l-0.733-1.269"/>
			<line style="fill:none;stroke:#263238;stroke-miterlimit:10;" x1="91.995" y1="47.084" x2="90.279" y2="50.057"/>
			<path style="fill:none;stroke:#263238;stroke-miterlimit:10;" d="M130.826,62.681l-9.005-15.597
				c-0.82-1.42-2.334-2.294-3.974-2.294H95.969c-0.363,0-0.721,0.043-1.066,0.125"/>
			<path style="fill:none;stroke:#263238;stroke-miterlimit:10;" d="M161.582,69.97h-21.878c-1.639,0-3.154,0.875-3.974,2.294
				l-10.939,18.947c-0.82,1.42-0.82,3.169,0,4.588l10.939,18.947c0.82,1.42,2.334,2.294,3.974,2.294h21.878
				c1.639,0,3.154-0.875,3.974-2.294L176.495,95.8c0.82-1.42,0.82-3.169,0-4.588l-10.939-18.947
				C164.736,70.845,163.221,69.97,161.582,69.97z"/>
			<path style="fill:none;stroke:#263238;stroke-miterlimit:10;" d="M117.582,147.97H95.704c-1.639,0-3.154,0.874-3.974,2.294
				l-10.939,18.947c-0.82,1.42-0.82,3.169,0,4.588l10.939,18.947c0.82,1.42,2.334,2.294,3.974,2.294h21.878
				c1.639,0,3.154-0.874,3.974-2.294l10.939-18.947c0.82-1.42,0.82-3.169,0-4.588l-10.939-18.947
				C120.736,148.845,119.221,147.97,117.582,147.97z"/>
			<path style="fill:none;stroke:#263238;stroke-miterlimit:10;" d="M169.132,161.608l8.351-14.464c0.82-1.42,0.82-3.169,0-4.588
				l-10.939-18.947c-0.82-1.42-2.334-2.294-3.974-2.294h-21.878c-1.639,0-3.154,0.874-3.974,2.294l-10.939,18.947
				c-0.82,1.42-0.82,3.169,0,4.588l10.939,18.947c0.82,1.42,2.334,2.294,3.974,2.294h17.515"/>
			<path style="fill:none;stroke:#263238;stroke-miterlimit:10;" d="M162.571,168.385c1.639,0,3.154-0.875,3.974-2.294l0.66-1.144"
				/>
		</g>
		<g>
			<path style="fill:none;stroke:#263238;stroke-miterlimit:10;" d="M117.814,126.415l2.665,0.608l0.617-2.704l-2.56-0.584
				c0.003-0.076,0.012-0.151,0.012-0.228c0-0.848-0.173-1.656-0.484-2.391l2.076-1.656l-1.729-2.168l-1.986,1.584
				c-0.687-0.595-1.507-1.036-2.41-1.28v-2.586h-2.773v2.484c-0.933,0.182-1.787,0.578-2.517,1.131l-2.008-1.601l-1.729,2.168
				l1.96,1.563c-0.403,0.799-0.637,1.695-0.653,2.647l-2.554,0.583l0.617,2.704l2.519-0.575c0.384,0.815,0.938,1.534,1.622,2.105
				l-1.172,2.434l2.499,1.203l1.154-2.396c0.462,0.111,0.942,0.177,1.438,0.177c0.398,0,0.786-0.041,1.163-0.113l1.195,2.482
				l2.499-1.203l-1.162-2.413C116.812,127.86,117.396,127.19,117.814,126.415z M109.698,123.507c0-1.503,1.218-2.721,2.721-2.721
				s2.721,1.218,2.721,2.721c0,1.503-1.218,2.721-2.721,2.721S109.698,125.01,109.698,123.507z"/>
			<path style="fill:none;stroke:#263238;stroke-miterlimit:10;" d="M104.806,115.481l2.665,0.608l0.617-2.704l-2.56-0.584
				c0.003-0.076,0.012-0.151,0.012-0.228c0-0.848-0.173-1.656-0.484-2.391l2.076-1.656l-1.729-2.168l-1.986,1.583
				c-0.687-0.595-1.507-1.036-2.41-1.28v-2.586h-2.773v2.484c-0.933,0.182-1.787,0.578-2.517,1.131l-2.008-1.601l-1.729,2.168
				l1.96,1.563c-0.403,0.799-0.637,1.695-0.653,2.647l-2.554,0.583l0.617,2.704l2.52-0.575c0.384,0.815,0.938,1.534,1.622,2.105
				l-1.172,2.433l2.499,1.203l1.154-2.396c0.462,0.111,0.942,0.177,1.438,0.177c0.398,0,0.786-0.041,1.163-0.114l1.195,2.482
				l2.499-1.203l-1.162-2.413C103.803,116.925,104.387,116.256,104.806,115.481z M96.69,112.573c0-1.503,1.218-2.721,2.721-2.721
				c1.503,0,2.721,1.218,2.721,2.721s-1.218,2.721-2.721,2.721C97.908,115.294,96.69,114.075,96.69,112.573z"/>
		</g>
		<g>
			
				<ellipse transform="matrix(0.3848 -0.923 0.923 0.3848 6.367 192.7928)" style="fill:none;stroke:#263238;stroke-miterlimit:10;" cx="147.806" cy="91.62" rx="8.953" ry="8.954"/>
			<circle style="fill:none;stroke:#263238;stroke-miterlimit:10;" cx="147.806" cy="91.62" r="7.597"/>
			<line style="fill:none;stroke:#263238;stroke-width:3;stroke-miterlimit:10;" x1="157.875" y1="101.079" x2="163.814" y2="106"/>
			
				<line style="fill:none;stroke:#263238;stroke-width:2;stroke-miterlimit:10;" x1="154.318" y1="98.132" x2="157.875" y2="101.079"/>
		</g>
		<g>
			<line style="fill:none;stroke:#263238;stroke-miterlimit:10;" x1="49.574" y1="88.178" x2="76.165" y2="88.178"/>
			<rect x="52.508" y="86.711" style="fill:#263238;" width="2.751" height="2.751"/>
			<line style="fill:none;stroke:#263238;stroke-miterlimit:10;" x1="49.574" y1="94.413" x2="76.165" y2="94.413"/>
			<rect x="66.721" y="92.946" style="fill:#263238;" width="2.751" height="2.751"/>
			<line style="fill:none;stroke:#263238;stroke-miterlimit:10;" x1="49.574" y1="100.648" x2="76.165" y2="100.648"/>
			<rect x="60.394" y="99.181" style="fill:#263238;" width="2.751" height="2.751"/>
		</g>
		<circle style="fill:#263238;" cx="151" cy="168.23" r="2.104"/>
		<circle style="fill:#263238;" cx="167.384" cy="125.07" r="2.104"/>
		<path style="fill:#263238;" d="M105.762,96.266c0-1.162-0.942-2.104-2.104-2.104c-1.162,0-2.104,0.942-2.104,2.104
			c0,1.162,0.942,2.104,2.104,2.104C104.82,98.37,105.762,97.428,105.762,96.266z"/>
		<path style="fill:#263238;" d="M128.194,54.718c0-1.162-0.942-2.104-2.104-2.104c-1.162,0-2.104,0.942-2.104,2.104
			s0.942,2.104,2.104,2.104C127.252,56.821,128.194,55.88,128.194,54.718z"/>
		<path style="fill:#263238;" d="M47.39,110.541c0-1.162-0.942-2.104-2.104-2.104c-1.162,0-2.104,0.942-2.104,2.104
			c0,1.162,0.942,2.104,2.104,2.104C46.448,112.645,47.39,111.703,47.39,110.541z"/>
		<path style="fill:#263238;" d="M112.645,142.658c0-1.162-0.942-2.104-2.104-2.104c-1.162,0-2.104,0.942-2.104,2.104
			c0,1.162,0.942,2.104,2.104,2.104C111.703,144.762,112.645,143.82,112.645,142.658z"/>
		<path style="fill:#263238;" d="M85.303,177.609c0-1.162-0.942-2.104-2.104-2.104c-1.162,0-2.104,0.942-2.104,2.104
			c0,1.162,0.942,2.104,2.104,2.104C84.361,179.713,85.303,178.771,85.303,177.609z"/>
		<circle style="fill:#263238;" cx="127.848" cy="161.249" r="2.104"/>
		<circle style="fill:#263238;" cx="170.442" cy="81.227" r="2.104"/>
		<path style="fill:#263238;" d="M144.507,116.913c0-1.162-0.942-2.104-2.104-2.104s-2.104,0.942-2.104,2.104
			c0,1.162,0.942,2.104,2.104,2.104S144.507,118.075,144.507,116.913z"/>
		<path style="fill:#263238;" d="M86.9,77.404c0-1.162-0.942-2.104-2.104-2.104c-1.162,0-2.104,0.942-2.104,2.104
			c0,1.162,0.942,2.104,2.104,2.104C85.958,79.508,86.9,78.566,86.9,77.404z"/>
	</g>
</g>
<g id="Graphics_2">
	<g>
		<g>
			<path style="fill:none;stroke:#263238;stroke-miterlimit:10;" d="M103.458,315.772c0,1.502-1.217,2.719-2.719,2.719H54.907
				c-1.502,0-2.719-1.217-2.719-2.719v-85.45c0-1.502,1.217-2.719,2.719-2.719h45.832c1.502,0,2.719,1.217,2.719,2.719v77.088"/>
			<polyline style="fill:none;stroke:#263238;stroke-miterlimit:10;" points="90.215,235.854 100.404,235.854 100.404,310.24 
				55.243,310.24 55.243,299.022 			"/>
			<line style="fill:none;stroke:#263238;stroke-miterlimit:10;" x1="80.779" y1="235.854" x2="86.021" y2="235.854"/>
			<polyline style="fill:none;stroke:#263238;stroke-miterlimit:10;" points="55.243,293.78 55.243,235.854 76.585,235.854 			"/>
			<path style="fill:none;stroke:#263238;stroke-miterlimit:10;" d="M79.423,313.598c0-0.927-0.752-1.679-1.679-1.679
				c-0.927,0-1.679,0.752-1.679,1.679c0,0.927,0.752,1.679,1.679,1.679C78.672,315.276,79.423,314.525,79.423,313.598z"/>
		</g>
		<path style="fill:#263238;" d="M78.529,227.956c0-1.162-0.942-2.104-2.104-2.104s-2.104,0.942-2.104,2.104
			s0.942,2.104,2.104,2.104S78.529,229.118,78.529,227.956z"/>
		<path style="fill:#263238;" d="M93.367,309.856c0-1.162-0.942-2.104-2.104-2.104c-1.162,0-2.104,0.942-2.104,2.104
			s0.942,2.104,2.104,2.104C92.425,311.96,93.367,311.018,93.367,309.856z"/>
		<circle style="fill:#263238;" cx="103.495" cy="270.015" r="2.104"/>
		<path style="fill:#263238;" d="M64.36,317.894c0-1.162-0.942-2.104-2.104-2.104s-2.104,0.942-2.104,2.104
			c0,1.162,0.942,2.104,2.104,2.104S64.36,319.056,64.36,317.894z"/>
		<path style="fill:#263238;" d="M63.312,235.417c0-1.162-0.942-2.104-2.104-2.104s-2.104,0.942-2.104,2.104
			c0,1.162,0.942,2.104,2.104,2.104S63.312,236.579,63.312,235.417z"/>
	</g>
</g>
<g id="Graphics_1_5_">
	<g>
		<path style="fill:none;stroke:#263238;stroke-miterlimit:10;" d="M31.128,410.355v-55.109c0-2.582,2.093-4.676,4.676-4.676h84.788
			c2.582,0,4.676,2.093,4.676,4.676v55.342"/>
		<line style="fill:none;stroke:#263238;stroke-miterlimit:10;" x1="66.382" y1="416.655" x2="61.96" y2="416.655"/>
		<path style="fill:none;stroke:#263238;stroke-miterlimit:10;" d="M56.376,416.655H27.299c-2.361,0-4.276-1.914-4.276-4.276v-1.959
			h110.349v1.959c0,2.361-1.914,4.276-4.276,4.276H70.57"/>
		<line style="fill:none;stroke:#263238;stroke-miterlimit:10;" x1="71.501" y1="354.044" x2="76.154" y2="354.044"/>
		<polyline style="fill:none;stroke:#263238;stroke-miterlimit:10;" points="79.645,354.044 122.227,354.044 122.227,409.657 
			34.271,409.657 34.271,354.044 65.218,354.044 		"/>
		<path style="fill:#263238;" d="M49.531,350.249c0-1.162-0.942-2.104-2.104-2.104c-1.162,0-2.104,0.942-2.104,2.104
			s0.942,2.104,2.104,2.104C48.589,352.352,49.531,351.41,49.531,350.249z"/>
		<path style="fill:#263238;" d="M132.6,410.515c0-1.162-0.942-2.104-2.104-2.104s-2.104,0.942-2.104,2.104s0.942,2.104,2.104,2.104
			S132.6,411.677,132.6,410.515z"/>
		<path style="fill:#263238;" d="M117.117,354.277c0-1.162-0.942-2.104-2.104-2.104c-1.162,0-2.104,0.942-2.104,2.104
			s0.942,2.104,2.104,2.104C116.175,356.381,117.117,355.439,117.117,354.277z"/>
		<path style="fill:#263238;" d="M41.028,416.405c0-1.162-0.942-2.104-2.104-2.104s-2.104,0.942-2.104,2.104
			s0.942,2.104,2.104,2.104S41.028,417.567,41.028,416.405z"/>
	</g>
</g>
<g id="Text_Baloon">
	<g>
		<path style="fill:none;stroke:#263238;stroke-miterlimit:10;" d="M317.167,39.08h-59.056c-1.786,0-3.235,1.448-3.235,3.235V72.54
			c0,1.787,1.448,3.235,3.235,3.235h32.294l-4.951,14.852l12.625-14.852h19.087c1.786,0,3.235-1.448,3.235-3.235V42.315
			C320.401,40.529,318.953,39.08,317.167,39.08z"/>
		<line style="fill:none;stroke:#263238;stroke-miterlimit:10;" x1="301.157" y1="49.52" x2="312.767" y2="49.52"/>
		<line style="fill:none;stroke:#263238;stroke-miterlimit:10;" x1="293.282" y1="49.52" x2="298.048" y2="49.52"/>
		<line style="fill:none;stroke:#263238;stroke-miterlimit:10;" x1="274.011" y1="49.52" x2="288.724" y2="49.52"/>
		<line style="fill:none;stroke:#263238;stroke-miterlimit:10;" x1="264.519" y1="49.52" x2="270.281" y2="49.52"/>
		<line style="fill:none;stroke:#263238;stroke-miterlimit:10;" x1="309.238" y1="57.138" x2="312.767" y2="57.138"/>
		<line style="fill:none;stroke:#263238;stroke-miterlimit:10;" x1="278.363" y1="57.138" x2="306.752" y2="57.138"/>
		<line style="fill:none;stroke:#263238;stroke-miterlimit:10;" x1="264.519" y1="57.138" x2="275.461" y2="57.138"/>
		<line style="fill:none;stroke:#263238;stroke-miterlimit:10;" x1="308.409" y1="64.756" x2="312.767" y2="64.756"/>
		<line style="fill:none;stroke:#263238;stroke-miterlimit:10;" x1="299.292" y1="64.756" x2="303.851" y2="64.756"/>
		<line style="fill:none;stroke:#263238;stroke-miterlimit:10;" x1="273.804" y1="64.756" x2="295.355" y2="64.756"/>
		<line style="fill:none;stroke:#263238;stroke-miterlimit:10;" x1="264.519" y1="64.756" x2="271.317" y2="64.756"/>
	</g>
</g>
<g id="Character">
	<g>
		<g>
			<rect x="192.34" y="340.724" style="fill:#263238;stroke:#263238;stroke-miterlimit:10;" width="113.268" height="50.243"/>
			<rect x="240.529" y="342.414" style="fill:#FFFFFF;stroke:#263238;stroke-miterlimit:10;" width="17.13" height="6.55"/>
			<path style="fill:#92E3A9;stroke:#263238;stroke-miterlimit:10;" d="M326.07,209.084c0-1.198-2.696-2.995-6.89-5.392
				c-4.194-2.396-43.735-20.37-43.735-20.37l-23.365-1.217v-0.281l-2.696,0.141l-2.696-0.141v0.281l-23.365,1.217
				c0,0-39.541,17.973-43.735,20.37c-4.194,2.396-6.89,4.194-6.89,5.392s17.554,113.935,17.868,117.08
				c0.315,3.145,0,12.267,0,14.468s4.718,3.46,4.718,3.46h51.269h5.662h51.269c0,0,4.718-1.258,4.718-3.46s-0.314-11.323,0-14.468
				C308.517,323.02,326.07,210.283,326.07,209.084z"/>
			<path style="fill:#263238;stroke:#263238;stroke-miterlimit:10;" d="M319.181,203.692c-4.194-2.396-43.735-20.37-43.735-20.37
				l-23.365-1.217v-0.281l-2.696,0.141l-2.696-0.141v0.281l-23.365,1.217c0,0-39.541,17.973-43.735,20.37
				c-4.194,2.396-6.89,4.194-6.89,5.392c0,0.402,1.981,13.39,4.622,30.574l1.253,1.032c0,0,7.059-23.999,28.235-33.882
				c21.176-9.882,29.646-12.706,50.116-12.706c19.191,0,53.894,27.919,64.553,45.368c2.627-17.091,4.593-29.985,4.593-30.386
				C326.07,207.886,323.374,206.089,319.181,203.692z"/>
			<polygon style="fill:#263238;stroke:#263238;stroke-miterlimit:10;" points="237.103,205.19 248.486,216.274 233.508,319.018 
				248.708,342.344 266.217,318.744 254.777,215.974 265.561,204.591 251.781,189.913 			"/>
			<g>
				<path style="fill:#FFFFFF;stroke:#263238;stroke-miterlimit:10;" d="M272.32,96.618c-3.266-0.7-10.547-2.177-16.376-3.352
					v-1.687c0,0-1.686,0.337-4.199,0.842c-2.513-0.505-4.199-0.842-4.199-0.842v1.687c-5.829,1.175-13.11,2.652-16.376,3.352
					c-5.879,1.26-9.448,1.26-9.448,7.138c0,0,1.68,42.201,2.519,46.19c0.84,3.989,1.47,9.238,4.199,11.548
					c2.729,2.309,2.939,3.149,2.939,3.149v12.597c0,0,10.076,21.622,11.968,23.095c5.453,4.243,11.729,3.941,16.796,0
					c1.89-1.47,11.967-23.095,11.967-23.095v-12.597c0,0,0.21-0.84,2.939-3.149c2.729-2.31,3.359-7.558,4.199-11.548
					c0.84-3.989,2.52-46.19,2.52-46.19C281.768,97.878,278.199,97.878,272.32,96.618z"/>
				<path style="fill:#263238;stroke:#263238;stroke-miterlimit:10;" d="M233.688,103.337c0,0,20.786,8.608,26.664,8.608
					c5.879,0-0.63-2.729-0.63-2.729s8.188,2.729,11.337,2.729c3.149,0,3.149,0,3.149,0s0.42,5.879,0.84,6.509
					c0.42,0.63,0.21,1.47,0.84,1.89c0.63,0.42,1.47,1.26,1.47,1.26s1.47,22.885,2.31,25.194c0.84,2.31,2.309-33.803,2.309-33.803
					s3.149-2.939,2.52-8.398c-0.63-5.459-12.387-14.487-24.775-18.686c-12.387-4.199-21.835,1.26-26.034,5.039
					c-4.199,3.779-4.829,5.459-4.829,5.459s-6.509-0.42-7.558,2.1c-1.05,2.52,3.359,47.24,3.359,47.24l1.05-24.145
					c0,0,3.359-3.569,3.569-5.459c0.21-1.89,2.309-10.288,2.309-10.288s3.149,1.89,3.989,1.26
					C236.418,106.486,233.688,103.337,233.688,103.337z"/>
				<path style="fill:#263238;stroke:#263238;stroke-miterlimit:10;" d="M223.4,132.73c0,0-1.26-1.89-2.729-0.63
					c-1.47,1.26-2.729,9.658-1.889,11.757c0.84,2.1,2.099,5.249,3.149,5.459c1.05,0.21,2.309,0.63,2.309,0.63L223.4,132.73z"/>
				<path style="fill:#263238;stroke:#263238;stroke-miterlimit:10;" d="M280.239,132.73c0,0,1.26-1.89,2.729-0.63
					c1.47,1.26,2.729,9.658,1.89,11.757c-0.84,2.1-2.1,5.249-3.149,5.459c-1.05,0.21-2.31,0.63-2.31,0.63L280.239,132.73z"/>
				<g>
					<path style="fill:#263238;stroke:#263238;stroke-miterlimit:10;" d="M229.279,120.133c0,0,2.1-3.989,5.669-4.409
						c3.569-0.42,11.967,1.68,11.338,4.409C245.656,122.862,229.279,120.133,229.279,120.133z"/>
					<path style="fill:#263238;stroke:#263238;stroke-miterlimit:10;" d="M274.243,120.133c0,0-2.1-3.989-5.669-4.409
						c-3.569-0.42-11.967,1.68-11.337,4.409C257.867,122.862,274.243,120.133,274.243,120.133z"/>
					<path style="fill:#FFFFFF;stroke:#263238;stroke-miterlimit:10;" d="M246.589,132.73h-17.613c-1.217,0-2.204-0.987-2.204-2.205
						l-0.852-8.818c0-1.218,0.987-2.205,2.204-2.205h19.316c1.217,0,2.204,0.987,2.204,2.205l-0.852,8.818
						C248.793,131.743,247.806,132.73,246.589,132.73z"/>
					<path style="fill:#FFFFFF;stroke:#263238;stroke-miterlimit:10;" d="M273.883,132.73H256.27c-1.217,0-2.204-0.987-2.204-2.205
						l-0.852-8.818c0-1.218,0.987-2.205,2.204-2.205h19.316c1.217,0,2.204,0.987,2.204,2.205l-0.852,8.818
						C276.087,131.743,275.1,132.73,273.883,132.73z"/>
					<line style="fill:none;stroke:#263238;stroke-miterlimit:10;" x1="255.419" y1="119.503" x2="247.44" y2="119.503"/>
					<line style="fill:none;stroke:#263238;stroke-miterlimit:10;" x1="249.645" y1="121.707" x2="253.214" y2="121.707"/>
				</g>
				<path style="fill:#263238;stroke:#263238;stroke-miterlimit:10;" d="M249.435,123.492c0,0-2.939,10.498-2.939,11.757
					c0,1.26,1.05,1.68,1.05,1.68s1.05-3.569,2.1-3.989c1.05-0.42,4.409-0.21,4.409-0.21l2.099,4.199c0,0,0.63-0.42,0.84-1.89
					c0.21-1.47-3.569-11.757-3.569-11.757S250.485,122.442,249.435,123.492z"/>
				<path style="fill:none;stroke:#263238;stroke-miterlimit:10;" d="M241.324,169.237c0.574,0.189,1.115,0.342,1.602,0.445"/>
				<path style="fill:none;stroke:#263238;stroke-miterlimit:10;" d="M231.379,164.643c0,0,4.169,2.316,7.949,3.852"/>
				<path style="fill:none;stroke:#263238;stroke-miterlimit:10;" d="M272.11,164.013c0,0-4.829,4.199-9.238,4.829"/>
				<path style="fill:#263238;stroke:#263238;stroke-linejoin:round;stroke-miterlimit:10;" d="M241.667,150.156
					c0,0,7.138-1.47,11.128-1.47c3.989,0,8.818,1.89,8.818,1.89s-4.409-6.089-6.089-6.719c-1.68-0.63-6.299,0-7.768,0
					C246.286,143.858,241.667,150.156,241.667,150.156z"/>
				<path style="fill:#263238;stroke:#263238;stroke-linejoin:round;stroke-miterlimit:10;" d="M257.833,154.318
					c0,0-7.768-0.21-10.498,0c-2.729,0.21-3.149,3.569-3.149,3.569s5.039-1.47,7.978-1.47c2.939,0,7.768,1.05,7.768,1.05
					S260.353,155.788,257.833,154.318z"/>
			</g>
			<polygon style="fill:#92E3A9;stroke:#263238;stroke-miterlimit:10;" points="172.699,209.084 141.545,291.462 169.404,304.343 
				184.681,274.986 			"/>
			<path style="fill:#263238;stroke:#263238;stroke-miterlimit:10;" d="M179.755,284.451c-1.069-1.885-2.657-4.513-4.96-7.967
				c-5.392-8.088-11.083-13.18-11.083-13.18s2.097,0.599,6.291,3.295c4.194,2.696,6.59,4.194,5.691,0.599
				c-0.899-3.595-9.586-15.277-10.185-17.374c-0.599-2.097,2.996-2.396,3.894-5.991c0.719-2.876,3.354-21.463,4.379-28.785
				l-1.084-5.963l-31.154,82.377l7.774,3.595c4.513,0,9.899,0,9.899,0l17.869-5.48L179.755,284.451z"/>
			<path style="fill:#92E3A9;stroke:#263238;stroke-miterlimit:10;" d="M175.395,281.876c0,0-12.581-0.899-17.374-0.899
				c-4.793,0-11.982,0.599-14.678,5.092c-2.696,4.493-3.595,18.572,0,26.361c3.595,7.788,13.78,9.885,19.471,9.586
				c5.692-0.299,16.475-8.687,17.973-12.881c1.498-4.194-0.3-13.78-1.797-18.872C177.492,285.171,175.395,281.876,175.395,281.876z"
				/>
			<path style="fill:#92E3A9;stroke:#263238;stroke-miterlimit:10;" d="M175.395,281.876c0,0-10.484,2.097-10.484,8.687
				c0,6.59,3.295,13.18,7.189,14.379c3.894,1.198,9.286-2.397,9.286-2.397s3.595-2.396,2.097-9.586
				C181.985,285.77,178.091,282.176,175.395,281.876z"/>
			<g>
				<path style="fill:#FFFFFF;stroke:#263238;stroke-miterlimit:10;" d="M182.584,269.594c0,0,3.295-5.092,4.194-6.291
					c0.899-1.198,4.194-4.493,5.991-7.489c1.797-2.995,3.894-5.991,4.493-1.797c0.599,4.194-3.595,8.687-4.493,9.885
					c-0.899,1.198-4.493,5.991-4.493,5.991S182.285,273.189,182.584,269.594z"/>
				<path style="fill:#FFFFFF;stroke:#263238;stroke-miterlimit:10;" d="M174.197,287.268c0,0,2.097-11.982,3.894-14.379
					s14.678-10.784,17.374-12.282s19.771-1.198,19.771-1.198s4.493,1.198,1.797,2.996s-9.286,1.198-9.286,1.198l-10.185,5.092
					l10.185-2.097l10.185,1.498c0,0,2.097,1.797,1.198,3.295c-0.899,1.498-7.189,1.498-7.189,1.498h-4.793l-11.083,5.092
					l12.282-1.797c0,0,7.788-1.498,8.088,0.599c0.299,2.097-2.097,3.894-3.595,3.894c-1.498,0-5.392,1.198-5.392,1.198l-7.489,2.696
					l11.383-1.797c0,0,0.599,1.797-0.3,2.696c-0.899,0.899-11.982,5.092-11.982,5.092s-10.484,4.194-11.982,5.392
					c-1.498,1.198-4.194,4.493-9.286,3.894C172.699,299.25,172.998,289.065,174.197,287.268z"/>
				<line style="fill:#FFFFFF;stroke:#263238;stroke-miterlimit:10;" x1="199.958" y1="284.572" x2="196.064" y2="286.07"/>
				<line style="fill:#FFFFFF;stroke:#263238;stroke-miterlimit:10;" x1="197.562" y1="268.696" x2="193.368" y2="270.193"/>
			</g>
			<polygon style="fill:#92E3A9;stroke:#263238;stroke-miterlimit:10;" points="326.02,209.084 357.174,291.462 329.315,304.343 
				314.038,274.986 			"/>
			<path style="fill:#263238;stroke:#263238;stroke-miterlimit:10;" d="M318.964,284.451c1.069-1.885,2.657-4.513,4.96-7.967
				c5.392-8.088,11.083-13.18,11.083-13.18s-2.097,0.599-6.291,3.295c-4.194,2.696-6.59,4.194-5.692,0.599
				c0.899-3.595,9.586-15.277,10.185-17.374c0.599-2.097-2.996-2.396-3.894-5.991c-0.719-2.876-3.354-21.463-4.379-28.785
				l1.084-5.963l31.154,82.377l-7.774,3.595c-4.513,0-9.899,0-9.899,0l-17.869-5.48L318.964,284.451z"/>
			<polygon style="fill:#92E3A9;stroke:#263238;stroke-miterlimit:10;" points="230.812,171.94 245.49,197.402 233.209,215.375 
				221.826,183.023 			"/>
			<polygon style="fill:#92E3A9;stroke:#263238;stroke-miterlimit:10;" points="272.45,171.94 257.772,197.402 270.054,215.375 
				281.437,183.023 			"/>
			<path style="fill:#92E3A9;stroke:#263238;stroke-miterlimit:10;" d="M323.324,281.876c0,0,12.581-0.899,17.374-0.899
				c4.793,0,11.982,0.599,14.678,5.092c2.696,4.493,3.595,18.572,0,26.361c-3.595,7.788-13.779,9.885-19.471,9.586
				c-5.692-0.299-16.475-8.687-17.973-12.881c-1.498-4.194,0.3-13.78,1.797-18.872C321.227,285.171,323.324,281.876,323.324,281.876
				z"/>
			<path style="fill:#92E3A9;stroke:#263238;stroke-miterlimit:10;" d="M323.324,281.876c0,0,10.484,2.097,10.484,8.687
				c0,6.59-3.295,13.18-7.189,14.379c-3.894,1.198-9.286-2.397-9.286-2.397s-3.595-2.396-2.097-9.586
				C316.734,285.77,320.628,282.176,323.324,281.876z"/>
			<g>
				<path style="fill:#FFFFFF;stroke:#263238;stroke-miterlimit:10;" d="M316.135,269.594c0,0-3.295-5.092-4.194-6.291
					c-0.899-1.198-4.194-4.493-5.991-7.489c-1.797-2.995-3.894-5.991-4.493-1.797c-0.599,4.194,3.595,8.687,4.493,9.885
					c0.899,1.198,4.493,5.991,4.493,5.991S316.435,273.189,316.135,269.594z"/>
				<path style="fill:#FFFFFF;stroke:#263238;stroke-miterlimit:10;" d="M324.523,287.268c0,0-2.097-11.982-3.894-14.379
					s-14.678-10.784-17.374-12.282c-2.696-1.498-19.771-1.198-19.771-1.198s-4.493,1.198-1.797,2.996
					c2.696,1.797,9.286,1.198,9.286,1.198l10.185,5.092l-10.185-2.097l-10.185,1.498c0,0-2.097,1.797-1.198,3.295
					c0.899,1.498,7.189,1.498,7.189,1.498h4.793l11.083,5.092l-12.282-1.797c0,0-7.788-1.498-8.088,0.599s2.097,3.894,3.595,3.894
					c1.498,0,5.392,1.198,5.392,1.198l7.489,2.696l-11.383-1.797c0,0-0.599,1.797,0.3,2.696c0.899,0.899,11.982,5.092,11.982,5.092
					s10.484,4.194,11.982,5.392c1.498,1.198,4.194,4.493,9.286,3.894C326.02,299.25,325.721,289.065,324.523,287.268z"/>
				<line style="fill:#FFFFFF;stroke:#263238;stroke-miterlimit:10;" x1="298.761" y1="284.572" x2="302.655" y2="286.07"/>
				<line style="fill:#FFFFFF;stroke:#263238;stroke-miterlimit:10;" x1="301.157" y1="268.696" x2="305.351" y2="270.193"/>
			</g>
			<polyline style="fill:#263238;stroke:#263238;stroke-miterlimit:10;" points="201.735,388.766 201.735,394.308 261.69,394.308 
				261.69,398.339 226.422,398.339 226.422,401.362 275.293,401.362 275.293,396.323 267.232,396.323 267.232,393.3 300.484,393.3 
				300.484,385.743 			"/>
			<rect x="208.788" y="399.346" style="fill:#263238;stroke:#263238;stroke-miterlimit:10;" width="11.588" height="2.519"/>
			<rect x="207.91" y="412.121" style="fill:none;stroke:#263238;stroke-miterlimit:10;" width="7.915" height="5.805"/>
			<rect x="233.239" y="418.453" style="fill:none;stroke:#263238;stroke-miterlimit:10;" width="5.277" height="3.166"/>
			<rect x="253.29" y="416.87" style="fill:none;stroke:#263238;stroke-miterlimit:10;" width="8.443" height="2.638"/>
			<rect x="242.737" y="431.645" style="fill:none;stroke:#263238;stroke-miterlimit:10;" width="5.277" height="3.166"/>
			<rect x="264.899" y="423.202" style="fill:none;stroke:#263238;stroke-miterlimit:10;" width="3.694" height="2.111"/>
			<rect x="271.759" y="411.066" style="fill:none;stroke:#263238;stroke-miterlimit:10;" width="17.413" height="5.277"/>
			<rect x="221.63" y="430.59" style="fill:none;stroke:#263238;stroke-miterlimit:10;" width="8.443" height="4.221"/>
			<rect x="246.431" y="445.365" style="fill:none;stroke:#263238;stroke-miterlimit:10;" width="4.221" height="2.111"/>
			<rect x="228.438" y="405.896" style="fill:#263238;stroke:#263238;stroke-miterlimit:10;" width="17.13" height="3.023"/>
			<rect x="260.682" y="403.881" style="fill:#263238;stroke:#263238;stroke-miterlimit:10;" width="10.58" height="1.512"/>
			<rect x="278.82" y="395.819" style="fill:#263238;stroke:#263238;stroke-miterlimit:10;" width="10.58" height="2.015"/>
			<rect x="195.185" y="395.819" style="fill:#263238;stroke:#263238;stroke-miterlimit:10;" width="5.038" height="5.038"/>
			<rect x="294.942" y="399.346" style="fill:#263238;stroke:#263238;stroke-miterlimit:10;" width="5.038" height="5.038"/>
		</g>
		<line style="fill:none;stroke:#263238;stroke-miterlimit:10;" x1="188.784" y1="442.899" x2="199" y2="474"/>
		<line style="fill:none;stroke:#263238;stroke-miterlimit:10;" x1="185.974" y1="434.344" x2="187.503" y2="438.999"/>
		<line style="fill:none;stroke:#263238;stroke-miterlimit:10;" x1="154" y1="337" x2="184.395" y2="429.535"/>
		<line style="fill:none;stroke:#263238;stroke-miterlimit:10;" x1="216" y1="440" x2="221" y2="466"/>
		<line style="fill:none;stroke:#263238;stroke-miterlimit:10;" x1="336.982" y1="364.454" x2="301" y2="474"/>
		<line style="fill:none;stroke:#263238;stroke-miterlimit:10;" x1="340.375" y1="354.123" x2="338.209" y2="360.719"/>
		<line style="fill:none;stroke:#263238;stroke-miterlimit:10;" x1="346" y1="337" x2="342.84" y2="346.619"/>
		<line style="fill:none;stroke:#263238;stroke-miterlimit:10;" x1="284" y1="440" x2="279" y2="466"/>
	</g>
</g>
</svg>
