<?xml version="1.0" encoding="utf-8"?>
<!-- Generator: Adobe Illustrator 27.5.0, SVG Export Plug-In . SVG Version: 6.00 Build 0)  -->
<svg version="1.1" xmlns="http://www.w3.org/2000/svg" xmlns:xlink="http://www.w3.org/1999/xlink" x="0px" y="0px"
	 viewBox="0 0 500 500" style="enable-background:new 0 0 500 500;" xml:space="preserve">
<g id="BACKGROUND">
	<g>
		<linearGradient id="SVGID_1_" gradientUnits="userSpaceOnUse" x1="255.5284" y1="91.6703" x2="255.5284" y2="429.0544">
			<stop  offset="0" style="stop-color:#FEB89E"/>
			<stop  offset="0.9969" style="stop-color:#C0416E"/>
		</linearGradient>
		<path style="opacity:0.2;fill:url(#SVGID_1_);" d="M26.444,411.189c0,0-31.069-125.485,25.423-141.158
			c67.36-18.686,109.065,29.235,109.065-25.922c0-101.128,14.95-166.361,66.371-134.149c88.576,55.484,119.632,0.135,166.815,52.36
			c52.482,58.095-14.177,150.658,18.099,146.337c32.276-4.323,60.52-15.754,74.646,29.533c14.118,45.29,0,73,0,73H26.444z"/>
		<rect x="21.132" y="408.853" style="fill:#C0416E;" width="468.791" height="5.266"/>
	</g>
</g>
<g id="OBJECTS">
	<g>
		<g>
			<path style="fill:#3F556C;" d="M281.139,273.329c0,0,0.82-9.965,2.161-19.921c4.015-29.823,7.783-37.846,7.783-37.846
				l21.314-1.182c0,0,3.633,1.087,4.11,2.361c0.478,1.272-2.764,24.046-4.021,29.951c-2.69,12.635,5.838,13.336,7.438,24.119
				C304.59,276.386,294.804,279.515,281.139,273.329z"/>
			<path style="fill:#2F4253;" d="M312.487,246.692c1.257-5.905,4.498-28.679,4.021-29.951c-0.478-1.273-4.11-2.361-4.11-2.361
				l-17.371,0.962c3.051,2.242,5.169,4.999,4.386,9.437c-0.895,8.049-4.473,14.311-4.025,23.254
				c0.272,9.261,5.525,19.015,12.718,26.745c3.642-1.028,7.512-2.4,11.819-3.967C318.325,260.028,309.798,259.327,312.487,246.692z"
				/>
			<g>
				<path style="fill:#556F92;" d="M297.921,216.053c0.15,0.825-8.56,13.301-4.653,61.025h2.417c0,0-3.753-40.215,4.683-60.418
					L297.921,216.053z"/>
				<path style="fill:#556F92;" d="M297.583,212.656c-2.192,1.851-4.486,2.696-6.306,9.589c3.748,1.24,6.645-2.086,6.645-2.086
					s3.811,3.808,6.708,2.534c0.848-1.946,3.414-8.915,1.01-10.932C304.494,210.798,299.294,211.211,297.583,212.656z"/>
				<path style="fill:#556F92;" d="M286.103,230.089c-0.46,0.193,0,2.964,0,2.964s6.935-0.254,7.006-0.739
					c0.072-0.486,0.32-3.313,0-3.258C292.789,229.112,287.201,229.628,286.103,230.089z"/>
				<path style="fill:#FED374;" d="M310.521,229.523c0,0,0.1,5.243-0.39,5.663c-0.489,0.418-3.959,3.029-4.388,2.821
					c-0.431-0.211-3.331-3.032-3.453-3.766c-0.123-0.734-0.346-4.615,0.145-5.139c0.489-0.521,3.408-1.576,3.775-1.471
					C306.579,227.736,310.546,228.899,310.521,229.523z"/>
			</g>
		</g>
		<g>
			<path style="fill:#3F464E;" d="M281.139,273.329c0,0-2.792,14.859,0,34.718c2.793,19.858,5.275,77.72,3.724,84.628
				c0,0,5.586,2.586,10.55,0.248c0,0,6.205-68.119,5.275-101.941c0,0,23.882,49.398,31.668,100.393c0,0,6.186,4.189,10.221-0.783
				c0,0-4.344-83.786-22.651-119.779c0,0-14.982,3.117-25.305,3.021C287.648,273.769,281.139,273.329,281.139,273.329z"/>
			<path style="fill:#2C3135;" d="M342.576,390.59c0,0-4.344-83.786-22.651-119.779c0,0-11.327,2.356-21.07,2.908
				c0.643,0.221,1.277,0.45,1.9,0.699c9.838,3.577,13.416,12.074,16.546,21.912c5.813,19.677,9.391,40.248,13.863,60.372
				c2.88,11.934,5.954,23.866,9.127,35.8C341.102,392.057,341.882,391.448,342.576,390.59z"/>
			<path style="fill:#2C3135;" d="M294.492,302.144c-4.28,29.97-7.205,60.617-8.188,91.058c1.983,0.607,5.691,1.33,9.108-0.279
				c0,0,6.205-68.119,5.275-101.941c0,0,3.833,8.469,8.954,20.774c-1.081-9.976-4.525-19.406-11.124-27.946
				C296.729,289.624,294.939,295.884,294.492,302.144z"/>
			<path style="fill:#535C66;" d="M281.337,271.076c0,0-0.438,2.32-0.383,3.385c0,0,2.883,1.231,12.157,1.689
				c9.275,0.457,27.249-4.451,27.249-4.451l-0.755-2.619c0,0-16.978,4.151-26.369,3.743
				C284.628,272.449,281.337,271.076,281.337,271.076z"/>
		</g>
		<g>
			<g>
				<path style="fill:#F9B7AB;" d="M264.252,194.116c-1.329-0.02-0.859,31.065-0.859,31.065c3.632-0.383,25.997-8.675,25.997-8.675
					l-3.441,11.734c-23.226,10.036-31.444,6.021-31.636,4.589c-1.712-12.825,6.786-41.616,6.786-41.616s7.55-4.717,11.756-4.872
					c4.205-0.155,10.706,1.087,10.515,1.661c-0.191,0.573-1.531,1.219-3.154,1.04c0,0,1.721,1.895-0.383,1.67
					c-2.104-0.225-6.786-1.324-6.786-1.324S270.562,194.21,264.252,194.116z"/>
				<path style="fill:#C9758D;" d="M261.133,231.01c-2.177,0.883-4.492,1.344-6.855,1.491c0.013,0.107,0.02,0.222,0.035,0.327
					c0.191,1.432,8.41,5.447,31.636-4.589l3.441-11.734c0,0-14.262,5.288-21.855,7.612
					C266.265,227.155,264.359,229.743,261.133,231.01z"/>
				<g>
					<path style="fill:#C9758D;" d="M273.097,187.17c2.549,0.367,5.102,0.686,7.298,2.102c0.135,0.086,0.286-0.112,0.17-0.219
						c-1.882-1.743-5.007-1.98-7.444-2.054C273.022,186.996,272.999,187.156,273.097,187.17L273.097,187.17z"/>
				</g>
			</g>
			<path style="fill:#3F556C;" d="M270.96,222.525l1.938,13.577c0,0,11.478-1.951,16.249-5.677
				c4.769-3.726,7.041-13.368,2.104-15.031S270.96,222.525,270.96,222.525z"/>
		</g>
		<g>
			<path style="fill:#222221;" d="M357.427,405.156c-0.509-0.038-0.779-0.096-1.268,0.086c-0.341,0.125-0.569,0.338-0.683,0.64
				c-0.102-0.107-0.252-0.214-0.507-0.308c-0.314-0.117-0.793,0.006-1.008,0.266c-0.66,0.799-0.125,0.386-1.063-0.287
				c-0.297-0.213-0.745-0.17-1.046,0c-1.234,0.695-0.68,0.279-2.061-0.057c-0.341-0.083-0.761-0.013-1.003,0.266
				c-0.128,0.146-0.2,0.252-0.252,0.339c-0.013-0.13-0.082-0.303-0.297-0.51c-0.343-0.328-0.867-0.411-1.283-0.165
				c-1.102,0.656-0.43,1.274-0.893,0.414c-0.227-0.42-0.712-0.558-1.151-0.468c-1.134,0.231-1.005,0.207-0.949,0.993
				c-0.036-0.502-0.306-0.878-0.79-1.037c-0.702-0.232-1.594-0.333-2.171,0.212c-0.21-0.339-0.629-0.5-0.98-0.655
				c-0.488-0.218-0.964-0.2-1.372,0.176c-0.188,0.173-0.318,0.32-0.416,0.453c-0.078-0.172-0.206-0.373-0.421-0.609
				c-0.265-0.291-0.71-0.384-1.08-0.286c-0.36,0.096-0.66,0.394-0.898,0.706c-0.085-0.121-0.181-0.242-0.302-0.37
				c-0.279-0.293-0.704-0.335-1.064-0.189c-0.053-0.025-0.113-0.035-0.177-0.019c-1.611,0.449-3.097,2.075-1.221,3.281
				c0.348,0.224,0.826,0.136,1.112-0.144c0.156-0.153,0.251-0.294,0.322-0.424c0.003,0.018,0.001,0.026,0.004,0.044
				c0.1,0.597,0.77,0.817,1.281,0.728c0.309-0.055,0.689-0.126,0.925-0.364c0.036,0.076,0.081,0.156,0.136,0.24
				c0.264,0.407,0.765,0.668,1.253,0.512c0.354-0.114,0.785-0.193,1.063-0.471c0.028-0.028,0.039-0.045,0.063-0.071
				c0.09,0.113,0.192,0.216,0.31,0.282c0.882,0.504,1.211,0.482,2.123,0.077c0.274-0.121,0.409-0.318,0.467-0.525
				c0.171,0.413,0.523,0.619,0.969,0.671c0.218,0.026,0.434,0.052,0.653,0.078c0.381,0.044,0.694-0.242,0.901-0.518
				c0.08-0.108,0.137-0.205,0.179-0.289c0.018,0.069,0.038,0.14,0.076,0.228c0.191,0.434,0.869,0.561,1.236,0.689
				c0.453,0.158,0.915-0.108,1.162-0.474c0.049-0.074,0.075-0.126,0.108-0.186c0.011,0.021,0.012,0.037,0.025,0.058
				c0.267,0.384,0.767,0.692,1.255,0.51c1.081-0.405,0.911-0.911,1.947-0.162c0.286,0.207,0.772,0.186,1.061,0
				c1.638-1.058-0.029,0.135,1.83,0.135c0.48,0,1.173-0.193,1.424-0.649c-0.215,0.389,1.751,0.191,1.762,0.19
				c0.459-0.104,0.798-0.577,0.791-1.038c-0.001-0.04-0.007-0.06-0.009-0.094C358.655,406.896,358.636,405.245,357.427,405.156z"/>
			<path style="fill:#2C373B;" d="M343.381,385.797c1.945,15.829,4.011,16.271,5.875,17.017c1.864,0.745,8.95,1.652,8.95,3.037
				s-24.56,0.959-25.839,0c-1.277-0.959-2.985-17.228-1.705-18.854C331.164,386.359,343.201,384.339,343.381,385.797z"/>
			<g>
				<path style="fill:#222221;" d="M344.157,390.761c0.629-0.129,1.643-0.426,1.941-1.061c0.073-0.156-0.051-0.418-0.256-0.334
					c-0.62,0.256-1.108,0.492-1.801,0.547c-0.693,0.054-1.374-0.037-2.061-0.005c-0.352,0.015-0.471,0.459-0.176,0.65
					C342.464,390.989,343.416,390.913,344.157,390.761z"/>
				<path style="fill:#222221;" d="M341.189,393.683c1.783,0.695,4.313-0.258,5.246-1.914c0.066-0.118-0.1-0.258-0.191-0.149
					c-1.207,1.416-3.257,1.462-4.967,1.412C340.879,393.019,340.859,393.555,341.189,393.683z"/>
				<path style="fill:#222221;" d="M341.98,397.131c-0.562,0.109-0.364,0.876,0.126,0.927c1.768,0.185,3.645-0.707,4.642-2.17
					c0.163-0.238-0.188-0.479-0.384-0.297C345.173,396.694,343.501,396.837,341.98,397.131z"/>
				<path style="fill:#222221;" d="M342.275,400.171c-0.574,0.179-0.324,0.959,0.241,0.876c1.807-0.264,3.93-1.023,4.561-2.917
					c0.066-0.201-0.211-0.285-0.319-0.135C345.786,399.333,343.765,399.711,342.275,400.171z"/>
				<path style="fill:#222221;" d="M346.016,404.746c0.116,0.313,0.501,0.458,0.759,0.201c0.524-0.522,0.705-1.359,1.064-1.999
					c0.434-0.772,0.896-1.524,1.693-1.965c0.194-0.108,0.06-0.402-0.148-0.351c-0.904,0.219-1.647,0.819-2.288,1.47
					C346.502,402.705,345.687,403.862,346.016,404.746z"/>
			</g>
		</g>
		<g>
			<path style="fill:#222221;" d="M271.156,405.45c0.509-0.038,0.778-0.096,1.268,0.085c0.342,0.125,0.569,0.339,0.683,0.64
				c0.102-0.106,0.253-0.213,0.507-0.308c0.315-0.117,0.793,0.007,1.008,0.266c0.66,0.799,0.126,0.386,1.064-0.286
				c0.297-0.213,0.744-0.17,1.047,0c1.232,0.694,0.677,0.278,2.06-0.058c0.34-0.083,0.761-0.013,1.002,0.266
				c0.128,0.147,0.2,0.253,0.252,0.34c0.013-0.13,0.083-0.304,0.298-0.51c0.343-0.328,0.866-0.412,1.281-0.165
				c1.103,0.655,0.43,1.274,0.893,0.413c0.228-0.419,0.711-0.557,1.151-0.468c1.134,0.231,1.007,0.208,0.948,0.993
				c0.037-0.501,0.306-0.878,0.79-1.037c0.703-0.231,1.595-0.332,2.171,0.213c0.211-0.34,0.631-0.5,0.98-0.656
				c0.489-0.217,0.965-0.199,1.374,0.177c0.186,0.172,0.317,0.32,0.416,0.453c0.077-0.172,0.205-0.373,0.422-0.61
				c0.264-0.291,0.709-0.383,1.077-0.286c0.361,0.097,0.661,0.393,0.9,0.706c0.083-0.121,0.18-0.242,0.301-0.369
				c0.28-0.294,0.704-0.336,1.064-0.189c0.053-0.026,0.112-0.036,0.177-0.018c1.611,0.449,3.096,2.075,1.221,3.28
				c-0.349,0.224-0.826,0.137-1.112-0.142c-0.157-0.154-0.252-0.294-0.323-0.425c-0.003,0.018-0.001,0.027-0.004,0.044
				c-0.099,0.597-0.771,0.818-1.28,0.729c-0.31-0.056-0.688-0.126-0.924-0.364c-0.038,0.076-0.083,0.156-0.139,0.24
				c-0.263,0.407-0.764,0.667-1.252,0.511c-0.354-0.114-0.786-0.192-1.064-0.47c-0.027-0.028-0.037-0.046-0.061-0.071
				c-0.091,0.113-0.193,0.215-0.311,0.282c-0.881,0.504-1.211,0.481-2.124,0.077c-0.272-0.121-0.407-0.319-0.465-0.525
				c-0.172,0.412-0.524,0.618-0.97,0.671c-0.217,0.025-0.436,0.052-0.651,0.077c-0.383,0.045-0.697-0.241-0.901-0.518
				c-0.081-0.107-0.14-0.205-0.18-0.289c-0.02,0.07-0.039,0.141-0.077,0.229c-0.189,0.434-0.87,0.561-1.235,0.688
				c-0.452,0.158-0.916-0.107-1.162-0.474c-0.05-0.074-0.075-0.126-0.109-0.186c-0.01,0.019-0.011,0.037-0.025,0.057
				c-0.267,0.385-0.768,0.693-1.253,0.511c-1.082-0.405-0.912-0.911-1.949-0.162c-0.287,0.206-0.771,0.186-1.06,0
				c-1.638-1.059,0.029,0.134-1.83,0.134c-0.478,0-1.171-0.193-1.424-0.648c0.216,0.389-1.751,0.191-1.761,0.189
				c-0.459-0.103-0.799-0.578-0.791-1.039c0.001-0.04,0.007-0.059,0.008-0.094C269.928,407.19,269.946,405.538,271.156,405.45z"/>
			<path style="fill:#2C373B;" d="M283.511,385.982c2.339,17.265-2.32,16.38-4.185,17.126c-1.863,0.745-8.949,1.652-8.949,3.036
				c0,1.385,24.56,0.96,25.838,0c1.277-0.959,1.711-18.765,0.431-20.392C296.144,385.115,283.313,384.526,283.511,385.982z"/>
			<g>
				<path style="fill:#222221;" d="M284.425,391.055c-0.629-0.129-1.643-0.427-1.941-1.061c-0.073-0.156,0.052-0.418,0.257-0.333
					c0.618,0.255,1.109,0.491,1.799,0.546c0.694,0.055,1.375-0.036,2.061-0.005c0.352,0.016,0.47,0.46,0.177,0.65
					C286.118,391.283,285.166,391.207,284.425,391.055z"/>
				<path style="fill:#222221;" d="M287.393,393.977c-1.784,0.693-4.313-0.259-5.245-1.915c-0.067-0.118,0.099-0.257,0.191-0.148
					c1.206,1.415,3.256,1.462,4.966,1.411C287.704,393.313,287.723,393.849,287.393,393.977z"/>
				<path style="fill:#222221;" d="M286.602,397.425c0.561,0.109,0.365,0.875-0.125,0.927c-1.768,0.184-3.647-0.708-4.642-2.171
					c-0.163-0.238,0.188-0.478,0.384-0.297C283.411,396.988,285.081,397.13,286.602,397.425z"/>
				<path style="fill:#222221;" d="M286.307,400.465c0.574,0.177,0.325,0.958-0.24,0.876c-1.807-0.265-3.931-1.024-4.562-2.918
					c-0.066-0.201,0.21-0.285,0.319-0.134C282.796,399.628,284.817,400.003,286.307,400.465z"/>
				<path style="fill:#222221;" d="M282.567,405.04c-0.117,0.313-0.501,0.457-0.761,0.201c-0.524-0.521-0.703-1.36-1.064-1.999
					c-0.434-0.771-0.893-1.525-1.692-1.966c-0.195-0.107-0.061-0.402,0.148-0.352c0.903,0.22,1.647,0.82,2.289,1.472
					C282.079,402.999,282.896,404.154,282.567,405.04z"/>
			</g>
		</g>
		<g>
			<g>
				<path style="fill:#F9B7AB;" d="M297.971,201.848c0,0-0.051,14.239,0.309,15.68c0.359,1.439,6.066-1.415,6.786-4.872
					c0.72-3.457,0.822-17.028,0.822-17.028L297.971,201.848z"/>
				<path style="fill:#C9758D;" d="M297.971,201.848c0,0-0.015,4.085,0.027,8.1c2.588-0.744,5.13-1.766,7.588-3.001
					c0.254-5.093,0.302-11.32,0.302-11.32L297.971,201.848z"/>
			</g>
			<g>
				<g>
					<g>
						<path style="fill:#FF6678;" d="M310.981,176.215c0,0,1.973-3.206,7.31-3.657c5.335-0.452,8.989,13.34-3.133,12.585
							L310.981,176.215z"/>
						<path style="opacity:0.5;fill:#FF6678;" d="M321.536,174.169c-0.878-1.058-2.017-1.715-3.245-1.611
							c-5.337,0.452-7.31,3.657-7.31,3.657l2.733,5.843C315.651,178.899,318.4,176.165,321.536,174.169z"/>
					</g>
					<g>
						<path style="fill:#222221;" d="M310.998,175.246c1.782,1.241,3.018,2.712,3.695,4.784c0.315,0.963,0.498,2.021,0.625,3.02
							c0.13,1.034-0.147,1.951,0.261,2.923c0.19,0.453,0.775,0.738,1.173,0.309c1.628-1.757,0.39-5.62-0.478-7.557
							c-1.007-2.242-2.732-3.615-5.157-3.915C310.862,174.779,310.829,175.129,310.998,175.246L310.998,175.246z"/>
					</g>
				</g>
				<g>
					<path style="fill:#F9B7AB;" d="M286.93,181.167c-0.495,2.554-1.039,14.207,1.213,19.579c2.117,5.05,7.026,7.583,12.013,6.179
						c10.049-2.83,8.778-8.49,9.009-15.247c0.232-6.757-2.772-13.456-9.009-14.265C293.918,176.604,287.333,179.088,286.93,181.167z
						"/>
					<g>
						<path style="fill:#E05067;" d="M294.574,197.587c-1.396,0.732-2.531-1.553-1.107-2.15c0.144-0.063,0.29-0.118,0.437-0.166
							c-0.271,0.098-0.083,0.03,0.003-0.085c0.201-0.274,0.285-0.634,0.371-0.957c0.18-0.671,0.222-1.375,0.308-2.063
							c0.013-0.103,0.176-0.165,0.22-0.047C295.403,193.708,296.636,196.505,294.574,197.587z"/>
						<path style="fill:#382C50;" d="M288.943,192.876c0.132,0.403,0.517,0.76,0.979,0.628c1.377-0.394,0.748-2.258-0.012-2.322
							c-0.007-0.001-0.012-0.002-0.019-0.003c-0.025-0.001-0.051,0.003-0.076,0.006c-0.036,0.001-0.074-0.003-0.112,0.01
							C289.016,191.417,288.72,192.201,288.943,192.876z"/>
						<path style="fill:#382C50;" d="M299.412,193.436c0.133,0.404,0.516,0.761,0.979,0.628c1.377-0.394,0.748-2.257-0.013-2.321
							c-0.005-0.001-0.011-0.002-0.018-0.003c-0.025-0.002-0.05,0.003-0.075,0.007c-0.038,0.001-0.075-0.003-0.112,0.009
							C299.485,191.977,299.188,192.76,299.412,193.436z"/>
						<path style="fill:#FF6678;" d="M288.515,188.307c0.343-0.395,0.891-0.801,1.439-0.56c0.029,0.013,0.039,0.057,0.006,0.072
							c-0.436,0.211-0.848,0.416-1.21,0.749C288.576,188.725,288.37,188.473,288.515,188.307z"/>
						<path style="fill:#FF6678;" d="M300.725,188.139c0.704-0.291,1.176,0.168,1.619,0.666c0.234,0.263-0.172,0.628-0.406,0.365
							c-0.311-0.35-0.667-0.852-1.173-0.847C300.669,188.324,300.636,188.176,300.725,188.139z"/>
						<path style="fill:#E05067;" d="M292.349,200.716c1.541,0.858,2.884,1.926,4.719,1.174c1.636-0.669,2.097-2.744,2.107-4.308
							c0-0.067,0.102-0.073,0.115-0.01c0.377,1.745,0.202,3.692-1.464,4.738c-2.022,1.267-4.155,0.204-5.654-1.388
							C292.062,200.804,292.218,200.644,292.349,200.716z"/>
					</g>
				</g>
				<g>
					<path style="fill:#FF6678;" d="M282.715,188.618c0,0-0.638-4.506,0.865-8.895c1.502-4.389,7.219-4.851,8.894-4.678
						c0,0,3.26-4.447,9.34-3.985c6.081,0.462,16.073,4.677,14.282,18.201c-1.556,11.739-10.051,14.833-10.051,14.833
						s1.884-4.865,0.713-8.353c3.157-8.626-0.525-18.213-13.476-16.827C293.282,178.915,288.556,188.119,282.715,188.618z"/>
					<path style="opacity:0.5;fill:#FF6678;" d="M292.474,175.045c-1.675-0.173-7.392,0.289-8.894,4.678
						c-1.503,4.389-0.865,8.895-0.865,8.895c0.083-0.007,0.164-0.022,0.246-0.032c0.532-2.196,1.337-4.316,2.598-6.303
						c1.778-2.784,4.33-5.335,7.655-5.876c1.933-0.31,3.556,0,5.258-0.928c2.296-1.378,4.373-2.916,6.887-3.777
						c-1.247-0.354-2.458-0.559-3.545-0.642C295.733,170.598,292.474,175.045,292.474,175.045z"/>
				</g>
				<g>
					<path style="fill:#F9B7AB;" d="M303.715,199.944c-0.14,2.639,1.885,4.893,4.524,5.033c2.638,0.141,4.894-1.883,5.033-4.523
						c0.143-2.638-1.883-4.893-4.522-5.034C306.111,195.28,303.857,197.306,303.715,199.944z"/>
					<path style="fill:#C9758D;" d="M307.14,198.61c1.059-1.193,2.468-1.156,3.759-0.362c0.086,0.053,0.02,0.191-0.074,0.157
						c-1.238-0.447-2.539-0.405-3.367,0.727c-0.376,0.516-0.558,1.143-0.61,1.785c0.273-0.297,0.62-0.528,0.997-0.664
						c1.314-0.476,2.471,0.434,2.42,1.791c-0.019,0.531-0.827,0.483-0.818-0.044c0.014-0.913-0.632-1.091-1.405-0.919
						c-0.379,0.084-0.726,0.313-0.952,0.626c-0.122,0.167-0.157,0.348-0.181,0.532c0.018,0.112,0.038,0.225,0.061,0.335
						c0.099,0.443-0.602,0.594-0.686,0.149C306.022,201.344,306.165,199.705,307.14,198.61z"/>
				</g>
			</g>
		</g>
		<g>
			<g>
				<path style="fill:#F9B7AB;" d="M317.3,232.301c0,0,10.285,11.329,11.18,13.565c0.895,2.236-3.13,14.668-8.119,25.832
					c0,0-6.11-1.342-7.825,0c-1.715,1.341-6.336,4.621-4.547,4.621c1.789,0,6.559-2.088,6.559-2.088s1.49,5.717,5.068,6.138
					c0,0,13.188-18.174,17.212-31.373c1.964-6.442-19.975-31.9-19.975-31.9L317.3,232.301z"/>
				<path style="fill:#C9758D;" d="M317.3,232.301c0,0,10.285,11.329,11.18,13.565c0.572,1.434-0.876,7.057-3.303,13.847
					c3.655-4.173,6.408-8.92,6.103-14.029c-0.202-2.015-1.411-3.626-0.605-5.641c0.301-0.9,0.874-1.751,1.612-2.551
					c-5.938-9.374-15.434-20.395-15.434-20.395L317.3,232.301z"/>
			</g>
			<path style="fill:#2F4253;" d="M312.397,214.38c-3.057,1.087-3.828,11.312,8.927,26.499c0,0,5.068,1.341,11.031-7.005
				C332.355,233.873,319.42,211.881,312.397,214.38z"/>
			<g>
				<path style="fill:#535C66;" d="M314.355,274.211c0.482,2.021,1.472,3.771,2.882,5.275c1.043,1.11,2.911,2.733,4.529,2.428
					c0.31-0.061,0.371-0.469,0.177-0.672c-0.56-0.588-1.31-0.727-2.026-1.104c-0.835-0.442-1.542-1.087-2.207-1.749
					c-1.265-1.26-1.77-3.203-3.15-4.296C314.467,274.02,314.325,274.083,314.355,274.211L314.355,274.211z"/>
			</g>
		</g>
	</g>
	<g>
		<g>
			<path style="fill:#3F464E;" d="M187.604,283.314c0,0-16.802,42.045-16.501,119.193c0,0,2.997,2.359,8.249,0
				c0,0,11.553-76.767,21.754-98.369l6.6-0.6c0,0,9.901,62.924,9.001,98.969c0,0,4.277,2.013,9.078-0.646
				c0,0,11.624-73.42-6.978-118.547H187.604z"/>
			<path style="fill:#2C3135;" d="M172.856,403.293c1.401,0.38,3.604,0.513,6.495-0.786c0,0,10.165-67.544,19.844-93.746
				c-1.311,2.73-2.622,5.46-3.932,8.081C182.566,344.774,173.08,372.707,172.856,403.293z"/>
			<path style="fill:#2C3135;" d="M218.806,283.314h-31.202c0,0-0.226,0.566-0.621,1.677c11.533,0.33,26.31,1.319,29.745,11.28
				c2.236,6.262,2.236,13.863,3.578,20.571c1.789,9.391,4.472,18.782,6.708,28.173c0.867,3.035,1.634,6.022,2.344,8.994
				C229.545,331.098,227.408,304.183,218.806,283.314z"/>
		</g>
		<g>
			<path style="fill:#3F556C;" d="M187.604,283.314c0,0,0.888-14.271,1.167-18.19c0.28-3.92-4.339-39.052,0.28-46.19
				c1.54-2.939,27.435-2.312,28.694-0.942c2.479,2.697-0.98,42.651-0.98,46.99c0,4.339,2.245,18.834,2.245,18.834
				S195.114,287.648,187.604,283.314z"/>
			<path style="fill:#2F4253;" d="M216.765,264.982c0-4.339,3.458-44.293,0.98-46.99c-0.829-0.902-12.336-1.482-20.542-0.934
				c2.486,0.57,4.867,1.311,7.004,2.297c8.943,4.918,6.708,15.205,6.26,23.701c0,11.18-2.683,22.359-2.683,33.539
				c0,2.839,0.315,5.641,0.852,8.42c5.787-0.463,10.374-1.198,10.374-1.198S216.765,269.321,216.765,264.982z"/>
			<path style="fill:#556F92;" d="M197.34,216.639c0,0-6.309,10.455-4.31,10.997c0.838,0.227,9.923-4.929,9.923-4.929
				s6.374,5.157,7.741,4.416c2.765-1.497-3.106-11.03-3.106-11.03S201.514,212.944,197.34,216.639z"/>
			<path style="fill:#556F92;" d="M188.895,238.139c-0.715,0.193,0,2.964,0,2.964s10.81-0.254,10.921-0.739
				c0.111-0.486,0.498-3.313,0-3.258C199.317,237.161,190.608,237.676,188.895,238.139z"/>
			<path style="fill:#556F92;" d="M204.374,220.557h-2.696c0,0,1.509,34.157,1.307,64.775c0.816-0.024,1.628-0.06,2.432-0.104
				C205.419,272.637,205.355,229.19,204.374,220.557z"/>
			<path style="fill:#535C66;" d="M187.672,282.223l-0.564,2.415c0,0,5.071,1.719,15.891,1.523
				c10.819-0.194,16.355-1.488,16.355-1.488l-0.62-2.68c0,0-7.817,1.476-15.502,1.476
				C195.546,283.469,187.672,282.223,187.672,282.223z"/>
		</g>
		<g>
			<path style="fill:#222221;" d="M240.755,405.448c-0.509-0.037-0.779-0.096-1.27,0.085c-0.34,0.125-0.568,0.34-0.681,0.64
				c-0.103-0.105-0.253-0.212-0.507-0.308c-0.314-0.116-0.794,0.008-1.008,0.267c-0.66,0.799-0.126,0.386-1.063-0.287
				c-0.297-0.212-0.745-0.169-1.046,0c-1.234,0.694-0.679,0.28-2.06-0.057c-0.341-0.083-0.761-0.013-1.003,0.266
				c-0.128,0.148-0.2,0.252-0.252,0.34c-0.014-0.13-0.083-0.304-0.298-0.51c-0.342-0.329-0.867-0.413-1.282-0.165
				c-1.103,0.655-0.43,1.274-0.894,0.413c-0.227-0.419-0.711-0.558-1.151-0.468c-1.134,0.231-1.006,0.208-0.949,0.993
				c-0.036-0.501-0.306-0.878-0.79-1.037c-0.703-0.231-1.594-0.332-2.171,0.213c-0.21-0.339-0.63-0.5-0.98-0.657
				c-0.488-0.216-0.964-0.198-1.373,0.177c-0.187,0.173-0.317,0.321-0.416,0.453c-0.078-0.171-0.206-0.372-0.421-0.609
				c-0.264-0.292-0.709-0.384-1.079-0.286c-0.36,0.097-0.661,0.393-0.899,0.705c-0.084-0.119-0.18-0.242-0.301-0.368
				c-0.28-0.294-0.704-0.336-1.065-0.19c-0.052-0.026-0.112-0.035-0.176-0.018c-1.612,0.449-3.097,2.074-1.221,3.28
				c0.348,0.224,0.826,0.137,1.112-0.143c0.157-0.154,0.251-0.294,0.323-0.425c0.003,0.018,0.001,0.027,0.004,0.044
				c0.099,0.597,0.77,0.818,1.28,0.728c0.309-0.055,0.689-0.126,0.925-0.363c0.038,0.076,0.082,0.155,0.137,0.24
				c0.264,0.406,0.765,0.666,1.253,0.51c0.354-0.113,0.786-0.191,1.063-0.47c0.028-0.027,0.038-0.045,0.062-0.07
				c0.09,0.112,0.193,0.215,0.31,0.282c0.882,0.504,1.211,0.48,2.124,0.077c0.273-0.122,0.408-0.319,0.465-0.525
				c0.172,0.411,0.523,0.618,0.97,0.671c0.217,0.024,0.434,0.052,0.652,0.076c0.382,0.045,0.696-0.24,0.901-0.517
				c0.081-0.108,0.139-0.206,0.18-0.29c0.018,0.071,0.038,0.141,0.077,0.229c0.189,0.433,0.869,0.56,1.235,0.688
				c0.453,0.158,0.915-0.108,1.162-0.474c0.049-0.074,0.075-0.126,0.109-0.186c0.011,0.018,0.012,0.036,0.025,0.056
				c0.267,0.386,0.768,0.693,1.254,0.512c1.081-0.406,0.911-0.911,1.948-0.163c0.287,0.206,0.772,0.187,1.061,0
				c1.637-1.058-0.029,0.134,1.83,0.134c0.479,0,1.171-0.192,1.424-0.648c-0.216,0.39,1.75,0.192,1.761,0.189
				c0.458-0.104,0.798-0.578,0.791-1.038c-0.001-0.041-0.007-0.06-0.009-0.094C241.983,407.189,241.964,405.537,240.755,405.448z"/>
			<path style="fill:#2C373B;" d="M228.399,385.981c-2.339,17.265,2.32,16.38,4.184,17.125c1.865,0.746,8.95,1.652,8.95,3.037
				s-24.559,0.959-25.838,0c-1.278-0.959-0.489-17.982,0.791-19.609C216.988,385.896,228.597,384.525,228.399,385.981z"/>
			<g>
				<path style="fill:#222221;" d="M227.485,391.054c0.629-0.129,1.643-0.426,1.942-1.063c0.073-0.156-0.051-0.418-0.257-0.333
					c-0.619,0.257-1.109,0.493-1.8,0.547c-0.693,0.055-1.375-0.037-2.061-0.005c-0.351,0.016-0.47,0.46-0.176,0.65
					C225.792,391.281,226.744,391.205,227.485,391.054z"/>
				<path style="fill:#222221;" d="M224.518,393.975c1.784,0.694,4.314-0.259,5.246-1.914c0.066-0.118-0.1-0.257-0.192-0.148
					c-1.206,1.414-3.257,1.462-4.966,1.411C224.207,393.312,224.188,393.848,224.518,393.975z"/>
				<path style="fill:#222221;" d="M225.309,397.424c-0.562,0.108-0.365,0.876,0.125,0.926c1.768,0.185,3.645-0.707,4.642-2.17
					c0.163-0.238-0.188-0.479-0.385-0.296C228.5,396.987,226.829,397.129,225.309,397.424z"/>
				<path style="fill:#222221;" d="M225.603,400.464c-0.574,0.177-0.324,0.957,0.241,0.875c1.807-0.265,3.931-1.023,4.561-2.918
					c0.067-0.2-0.21-0.283-0.319-0.134C229.115,399.625,227.093,400.001,225.603,400.464z"/>
				<path style="fill:#222221;" d="M229.344,405.039c0.117,0.313,0.501,0.457,0.759,0.2c0.524-0.522,0.705-1.36,1.064-1.999
					c0.434-0.772,0.895-1.525,1.693-1.965c0.195-0.107,0.06-0.402-0.148-0.352c-0.905,0.219-1.648,0.82-2.289,1.471
					C229.83,402.998,229.014,404.153,229.344,405.039z"/>
			</g>
		</g>
		<g>
			<path style="fill:#222221;" d="M157.233,405.448c0.509-0.037,0.778-0.096,1.269,0.085c0.34,0.125,0.569,0.34,0.682,0.64
				c0.103-0.105,0.253-0.212,0.506-0.308c0.314-0.116,0.793,0.008,1.008,0.267c0.661,0.799,0.126,0.386,1.063-0.287
				c0.297-0.212,0.745-0.169,1.046,0c1.233,0.694,0.678,0.28,2.059-0.057c0.341-0.083,0.761-0.013,1.003,0.266
				c0.127,0.148,0.2,0.252,0.252,0.34c0.013-0.13,0.083-0.304,0.298-0.51c0.342-0.329,0.867-0.413,1.281-0.165
				c1.103,0.655,0.43,1.274,0.894,0.413c0.227-0.419,0.711-0.558,1.151-0.468c1.133,0.231,1.005,0.208,0.949,0.993
				c0.036-0.501,0.306-0.878,0.79-1.037c0.703-0.231,1.594-0.332,2.171,0.213c0.21-0.339,0.63-0.5,0.98-0.657
				c0.489-0.216,0.965-0.198,1.374,0.177c0.186,0.173,0.317,0.321,0.415,0.453c0.078-0.171,0.205-0.372,0.421-0.609
				c0.264-0.292,0.71-0.384,1.079-0.286c0.36,0.097,0.66,0.393,0.899,0.705c0.084-0.119,0.18-0.242,0.301-0.368
				c0.28-0.294,0.704-0.336,1.064-0.19c0.052-0.026,0.113-0.035,0.176-0.018c1.612,0.449,3.097,2.074,1.221,3.28
				c-0.348,0.224-0.826,0.137-1.112-0.143c-0.157-0.154-0.251-0.294-0.323-0.425c-0.003,0.018-0.001,0.027-0.004,0.044
				c-0.099,0.597-0.769,0.818-1.28,0.728c-0.309-0.055-0.688-0.126-0.924-0.363c-0.038,0.076-0.083,0.155-0.137,0.24
				c-0.264,0.406-0.765,0.666-1.253,0.51c-0.354-0.113-0.786-0.191-1.063-0.47c-0.028-0.027-0.038-0.045-0.062-0.07
				c-0.09,0.112-0.192,0.215-0.31,0.282c-0.881,0.504-1.211,0.48-2.124,0.077c-0.273-0.122-0.408-0.319-0.465-0.525
				c-0.172,0.411-0.524,0.618-0.97,0.671c-0.217,0.024-0.435,0.052-0.652,0.076c-0.382,0.045-0.696-0.24-0.901-0.517
				c-0.081-0.108-0.139-0.206-0.18-0.29c-0.019,0.071-0.038,0.141-0.077,0.229c-0.189,0.433-0.87,0.56-1.235,0.688
				c-0.452,0.158-0.915-0.108-1.162-0.474c-0.05-0.074-0.075-0.126-0.109-0.186c-0.01,0.018-0.011,0.036-0.025,0.056
				c-0.267,0.386-0.768,0.693-1.254,0.512c-1.081-0.406-0.912-0.911-1.948-0.163c-0.287,0.206-0.772,0.187-1.061,0
				c-1.637-1.058,0.03,0.134-1.83,0.134c-0.479,0-1.172-0.192-1.424-0.648c0.216,0.39-1.751,0.192-1.761,0.189
				c-0.459-0.104-0.799-0.578-0.791-1.038c0.001-0.041,0.007-0.06,0.008-0.094C156.005,407.189,156.024,405.537,157.233,405.448z"/>
			<path style="fill:#2C373B;" d="M169.589,385.981c2.338,17.265-2.32,16.38-4.185,17.125c-1.864,0.746-8.949,1.652-8.949,3.037
				s24.559,0.959,25.837,0c1.278-0.959,1.711-18.766,0.431-20.392C182.222,385.114,169.392,384.525,169.589,385.981z"/>
			<g>
				<path style="fill:#222221;" d="M170.502,391.054c-0.628-0.129-1.643-0.426-1.941-1.063c-0.074-0.156,0.051-0.418,0.257-0.333
					c0.618,0.257,1.108,0.493,1.799,0.547c0.694,0.055,1.375-0.037,2.061-0.005c0.352,0.016,0.471,0.46,0.176,0.65
					C172.196,391.281,171.244,391.205,170.502,391.054z"/>
				<path style="fill:#222221;" d="M173.47,393.975c-1.784,0.694-4.313-0.259-5.246-1.914c-0.066-0.118,0.1-0.257,0.192-0.148
					c1.206,1.414,3.256,1.462,4.966,1.411C173.782,393.312,173.8,393.848,173.47,393.975z"/>
				<path style="fill:#222221;" d="M172.679,397.424c0.563,0.108,0.365,0.876-0.125,0.926c-1.769,0.185-3.645-0.707-4.642-2.17
					c-0.162-0.238,0.188-0.479,0.384-0.296C169.488,396.987,171.159,397.129,172.679,397.424z"/>
				<path style="fill:#222221;" d="M172.384,400.464c0.574,0.177,0.325,0.957-0.241,0.875c-1.806-0.265-3.93-1.023-4.561-2.918
					c-0.066-0.2,0.21-0.283,0.319-0.134C168.874,399.625,170.896,400.001,172.384,400.464z"/>
				<path style="fill:#222221;" d="M168.644,405.039c-0.117,0.313-0.5,0.457-0.759,0.2c-0.524-0.522-0.705-1.36-1.064-1.999
					c-0.433-0.772-0.895-1.525-1.693-1.965c-0.195-0.107-0.06-0.402,0.148-0.352c0.904,0.219,1.648,0.82,2.289,1.471
					C168.158,402.998,168.974,404.153,168.644,405.039z"/>
			</g>
		</g>
		<g>
			<g>
				<path style="fill:#F9B7AB;" d="M229.819,242.162c0,0,1.593,13.713,2.3,23.105c0.708,9.391-4.659,35.626-4.659,35.626
					s1.563,4.713,1.524,8.483c-0.038,3.773-0.788,7.286-1.651,7.377c-0.864,0.091-1.206-2.004-1.206-2.004s-0.157,3.733-1.661,3.733
					c-1.627,0-1.273-4.496-1.273-4.496s-1.18,4.306-2.59,3.429c-1.41-0.876,1.066-6.02,1.333-9.601
					c0.267-3.581-1.372-2.285-1.943-1.409c-0.571,0.876-2.21,4.381-3.048,3.543c-0.838-0.838,0.975-8.757,6.059-10.363
					c0,0,1.748-24.181,1.313-31.933c-0.435-7.752-2.86-19.229-2.86-19.229L229.819,242.162z"/>
				<path style="fill:#C9758D;" d="M221.458,248.422c0,0,0.81,3.836,1.578,8.568c2.605-1.724,5.201-3.332,7.876-4.813
					c-0.576-5.566-1.092-10.016-1.092-10.016L221.458,248.422z"/>
				<g>
					<g>
						<path style="fill:#C9758D;" d="M223.105,314.331c1.149-2.189,0.906-4.936,1.087-7.337c0.014-0.183-0.258-0.175-0.279,0
							c-0.11,0.906-0.141,1.821-0.225,2.73c-0.141,1.537-0.636,3.048-0.648,4.59C223.04,314.348,223.089,314.362,223.105,314.331
							L223.105,314.331z"/>
					</g>
					<g>
						<path style="fill:#C9758D;" d="M226.075,315.135c0.518-1.153,0.536-2.644,0.644-3.892c0.101-1.164,0.363-2.6,0.117-3.755
							c-0.021-0.1-0.183-0.102-0.202,0c-0.181,0.928-0.106,1.954-0.177,2.898c-0.117,1.554-0.54,3.174-0.479,4.722
							C225.979,315.157,226.053,315.186,226.075,315.135L226.075,315.135z"/>
					</g>
				</g>
			</g>
			<path style="fill:#314453;" d="M232.119,242.393c0,0-5.769,7.119-11.258,8.242c0,0-8.533-16.014-9.109-18.297
				c-0.576-2.284-0.168-19.315,7.822-12.968C227.565,225.718,232.119,242.393,232.119,242.393z"/>
			<path style="fill:#FED374;" d="M209.281,236.544c0,0-0.1,6.11,0.389,6.599c0.489,0.488,3.948,3.532,4.377,3.288
				c0.429-0.244,3.321-3.533,3.443-4.388c0.123-0.856,0.344-5.381-0.144-5.99c-0.489-0.609-3.4-1.837-3.766-1.715
				C213.213,234.46,209.256,235.816,209.281,236.544z"/>
		</g>
		<g>
			<g>
				<path style="fill:#F9B7AB;" d="M176.874,229.99c0,0-18.057,18.587-17.917,21.122c0.14,2.533,17.121,29.245,19.78,31.228
					c4.055,3.025,7.247,0.171,8.251-2.52c1.004-2.691,3.883,0.839,4.723,0c0.84-0.84,0-2.042,0-2.042s1.227,0.3,1.727,0.3
					c0.5,0,1.01-2.209-1.584-2.971c0,0,2.435-0.138,2.435-1.829c0-0.751-4.15-1.139-6.049-0.044
					c-1.899,1.095-7.142,5.453-7.142,5.453s-12.489-22.834-11.903-26.054c0.1-0.549,19.063-18.296,19.063-18.296L176.874,229.99z"/>
				<g>
					<g>
						<path style="fill:#C9758D;" d="M192.194,278.343c-1.42-2.006-4.526-3.019-6.548-1.379c-0.231,0.187,0.075,0.581,0.317,0.411
							c2.217-1.552,4.238-0.229,6.184,1.016C192.175,278.409,192.214,278.373,192.194,278.343L192.194,278.343z"/>
					</g>
					<g>
						<path style="fill:#C9758D;" d="M193.009,275.265c-1.342-1.145-4.846-1.646-6.08-0.099c-0.127,0.159-0.015,0.402,0.204,0.351
							c1.014-0.244,1.781-0.582,2.86-0.565c0.984,0.015,2.004,0.152,2.948,0.431C193.005,275.402,193.063,275.312,193.009,275.265
							L193.009,275.265z"/>
					</g>
				</g>
				<path style="fill:#C9758D;" d="M167.145,247.37c-0.201,1.813-1.208,3.223-1.208,5.036c0,3.865,3.071,6.413,6.139,8.536
					c-1.792-3.912-3.079-7.225-2.882-8.309c0.1-0.549,19.063-18.296,19.063-18.296l-11.382-4.347c0,0-6.091,6.272-11.171,12.025
					C166.573,243.641,167.293,245.45,167.145,247.37z"/>
			</g>
			<path style="fill:#3F556C;" d="M167.089,236.795c0,0,3.429,8.496,8.348,11.18c0,0,13.362-11.624,14.581-13.638
				c1.22-2.015,5.313-19.604-4.187-15.877C176.332,222.187,167.089,236.795,167.089,236.795z"/>
		</g>
		<g>
			<g>
				<path style="fill:#3B225C;" d="M195.233,202.124c0,0-5.667,0.083-7.121,1.525c-1.454,1.441,0.365,6.83,0.365,6.83
					s-2.96,0.732-3.181,2.632c-0.383,3.304,4.9,3.895,5.335,1.457c0,0-0.053,3.086,3.175,2.74c3.228-0.346,2.56-3.047,2.56-3.047
					s3.771,2.101,4.095-0.219c0.324-2.319-3.227-3.697-3.227-3.697S199.07,205.384,195.233,202.124z"/>
				<path style="fill:#2B62BF;" d="M199.778,201.265c0.092,1.72-1.185,3.188-2.854,3.276c-1.668,0.089-3.095-1.232-3.186-2.953
					c-0.092-1.72,1.185-3.188,2.853-3.276C198.259,198.223,199.686,199.545,199.778,201.265z"/>
				<path style="opacity:0.5;fill:#3B225C;" d="M191.161,209.621c3.221-1.301,3.065-4.535,2.282-7.4
					c-1.791,0.146-4.407,0.513-5.33,1.429c-1.454,1.441,0.365,6.83,0.365,6.83s-2.96,0.732-3.181,2.632
					c-0.383,3.304,4.9,3.895,5.335,1.457c0,0-0.033,2.269,1.997,2.693c0.525-0.561,0.933-1.26,1.161-2.153
					C194.408,212.714,193.326,210.703,191.161,209.621z"/>
			</g>
			<g>
				<path style="fill:#F9B7AB;" d="M196.902,203.107c0,0-0.298,12.69,1.192,14.917c1.491,2.226,9.452,1.217,9.496-1.931
					c0.045-3.147,0-14.335,0-14.335L196.902,203.107z"/>
				<path style="fill:#C9758D;" d="M207.59,201.757l-10.688,1.35c0,0-0.084,3.594,0.061,7.292c3.484,0.66,7.066,0.978,10.646,0.94
					C207.611,207.018,207.59,201.757,207.59,201.757z"/>
			</g>
			<path style="fill:#3B225C;" d="M214.508,183.628c0,0,3.352-0.135,3.613,2.65c0.262,2.785-1.48,4.764-1.48,4.764
				s2.264,7.282-2.723,8.753C208.931,201.266,214.508,183.628,214.508,183.628z"/>
			<g>
				<path style="fill:#F9B7AB;" d="M193.833,184.331c0,0-0.676,12.464,2.771,18.325c4.359,7.408,15.253,7.916,17.901-1.966
					c2.495-9.312,0.874-17.512,0.874-17.512S198.109,174.249,193.833,184.331z"/>
				<g>
					<path style="fill:#E05067;" d="M207.308,197.057c1.251,0.656,2.268-1.391,0.992-1.925c-0.128-0.057-0.259-0.106-0.392-0.149
						c0.243,0.087,0.075,0.027-0.001-0.076c-0.18-0.246-0.255-0.568-0.333-0.857c-0.162-0.601-0.199-1.232-0.275-1.847
						c-0.012-0.093-0.158-0.149-0.198-0.043C206.565,193.583,205.46,196.088,207.308,197.057z"/>
					<path style="fill:#382C50;" d="M211.671,191.332c-0.034-0.011-0.067-0.007-0.1-0.009c-0.023-0.003-0.045-0.007-0.067-0.006
						c-0.006,0.001-0.011,0.002-0.018,0.003c-0.68,0.058-1.244,1.727-0.01,2.081c0.416,0.119,0.759-0.201,0.878-0.563
						C212.553,192.232,212.289,191.53,211.671,191.332z"/>
					<path style="fill:#382C50;" d="M202.292,191.833c-0.034-0.011-0.067-0.007-0.1-0.008c-0.023-0.003-0.045-0.007-0.068-0.006
						c-0.006,0.001-0.011,0.002-0.017,0.003c-0.68,0.057-1.244,1.727-0.011,2.08c0.415,0.119,0.76-0.201,0.878-0.563
						C203.174,192.733,202.909,192.031,202.292,191.833z"/>
					<path style="fill:#3B225C;" d="M212.737,188.743c-0.307-0.354-0.798-0.718-1.289-0.501c-0.026,0.011-0.035,0.05-0.005,0.064
						c0.391,0.189,0.759,0.373,1.083,0.671C212.681,189.119,212.866,188.892,212.737,188.743z"/>
					<path style="fill:#3B225C;" d="M201.798,188.593c-0.63-0.26-1.053,0.151-1.451,0.597c-0.21,0.236,0.154,0.563,0.364,0.327
						c0.279-0.314,0.597-0.763,1.052-0.759C201.848,188.758,201.878,188.626,201.798,188.593z"/>
					<path style="fill:#E05067;" d="M209.872,200.724c-1.38,0.768-2.583,1.725-4.228,1.052c-1.465-0.599-1.879-2.458-1.888-3.859
						c0-0.06-0.091-0.065-0.103-0.009c-0.336,1.563-0.181,3.308,1.312,4.244c1.811,1.135,3.722,0.183,5.065-1.244
						C210.13,200.802,209.989,200.658,209.872,200.724z"/>
				</g>
			</g>
			<g>
				<path style="fill:#3B225C;" d="M194.602,196.733c0,0-0.224-10.08,1.103-11.719c0,0,16.194,3.328,20.657,0.238
					c3.155-2.184,3.482-7.688-0.43-8.038c-3.913-0.351-4.394,0.795-4.394,0.795s1.436-6.317-3.368-6.131
					c-4.804,0.186-10.171,4.504-10.171,4.504s-4.716-2.435-7.049,0.041C188.617,178.9,185.278,198.368,194.602,196.733z"/>
				<path style="opacity:0.5;fill:#3B225C;" d="M192.708,183.41c1.469-1.005,4.02-0.85,5.721-1.314
					c2.938-0.773,5.799-2.01,8.272-3.634c1.943-1.255,3.518-2.686,4.774-4.347c-0.389-1.256-1.299-2.314-3.305-2.237
					c-4.804,0.186-10.171,4.504-10.171,4.504s-4.716-2.435-7.049,0.041c-2.1,2.229-5.01,18.217,1.229,20.198
					c-0.253-1.732-0.422-3.488-0.554-5.248C191.47,189.286,190.62,184.879,192.708,183.41z"/>
			</g>
			<g>
				<path style="fill:#F9B7AB;" d="M196.377,197.602c0.126,2.364-1.688,4.383-4.053,4.51c-2.365,0.126-4.385-1.688-4.511-4.052
					c-0.126-2.364,1.688-4.383,4.052-4.51C194.23,193.423,196.25,195.237,196.377,197.602z"/>
				<path style="fill:#C9758D;" d="M193.31,196.407c-0.949-1.069-2.212-1.036-3.369-0.324c-0.077,0.047-0.016,0.171,0.068,0.141
					c1.108-0.4,2.275-0.362,3.016,0.652c0.337,0.463,0.499,1.024,0.546,1.598c-0.244-0.265-0.555-0.473-0.893-0.594
					c-1.178-0.427-2.214,0.389-2.169,1.604c0.018,0.475,0.741,0.433,0.733-0.039c-0.012-0.817,0.566-0.977,1.26-0.824
					c0.338,0.076,0.65,0.281,0.853,0.561c0.109,0.149,0.14,0.312,0.161,0.477c-0.016,0.101-0.034,0.201-0.056,0.299
					c-0.087,0.397,0.54,0.533,0.617,0.135C194.311,198.856,194.183,197.388,193.31,196.407z"/>
			</g>
		</g>
	</g>
	<g>
		<g>
			<path style="fill:#3F556C;" d="M58.738,182.268l23.078-12.105l17.382,1.766l14.259,5.385c0,0,5.541,41.328,7.319,56.673
				c1.779,15.345,4.331,43.319,4.331,43.319l-65.996,4.27c0,0-5.812-41.344-4.454-64.022
				C56.015,194.878,58.738,182.268,58.738,182.268z"/>
			<path style="fill:#2F4253;" d="M120.776,233.987c-1.778-15.345-7.319-56.673-7.319-56.673l-14.259-5.385l-17.382-1.766
				l-14.617,7.667c16.316-2.714,35.342-4.246,39.779,13.504c2.683,11.627,1.342,24.149,2.235,35.776
				c1.342,13.416,3.131,26.385,3.578,39.8c0.129,3.728,0.173,7.456,0.143,11.184l12.171-0.787
				C125.106,277.306,122.555,249.332,120.776,233.987z"/>
			<g>
				<path style="fill:#556F92;" d="M79.724,171.26c0,0-5.389,20.604-4.234,21.326c1.155,0.723,12.26-7.648,12.26-7.648
					s8.393,7.661,10.701,6.348c7.104-4.038-2.234-20.026-2.234-20.026S85.69,162.93,79.724,171.26z"/>
				<path style="fill:#556F92;" d="M85.925,182.136c0,0,2.324,52.628,1.824,97.588l3.516-0.228c0,0,0.159-82.892-1.486-97.359
					H85.925z"/>
				<path style="fill:#556F92;" d="M67.65,208.677c-1.022,0.276,0,4.237,0,4.237s15.453-0.364,15.612-1.059
					c0.159-0.695,0.713-4.735,0-4.656S70.1,208.015,67.65,208.677z"/>
			</g>
			<path style="fill:#FED374;" d="M99.879,207.901c0,0-0.144,8.734,0.556,9.432c0.698,0.7,5.644,5.051,6.257,4.702
				c0.613-0.35,4.748-5.05,4.922-6.273c0.175-1.223,0.493-7.693-0.206-8.563c-0.699-0.87-4.86-2.626-5.383-2.451
				C105.5,204.923,99.844,206.86,99.879,207.901z"/>
			<path style="fill:#2F4253;" d="M62.841,227.96c0.403-5.439,1.007-10.274,2.619-15.714c3.083-11.172,12.41-25.287,1.427-34.253
				l-8.15,4.275c0,0-2.723,12.61-4.081,35.287c-0.519,8.668,0.01,20.06,0.86,30.829c0.603-3.218,1.194-6.436,2.489-9.543
				C59.819,234.609,62.438,232.795,62.841,227.96z"/>
		</g>
		<g>
			<g>
				<path style="fill:#F9B7AB;" d="M58.842,267.581c0,0-3.291,41.365,27.119,131.699c0,0,2.907,3.354,6.484,0
					c0,0-6.708-0.447-10.509-123.649L58.842,267.581z"/>
				<path style="fill:#F9B7AB;" d="M119.017,267.581c0,0,5.554,39.428-3.076,131.699c0,0-2.907,3.354-6.484,0
					c0,0,1.993-29.066-13.534-123.649L119.017,267.581z"/>
			</g>
			<g>
				<path style="fill:#3F464E;" d="M57.129,265.366c0,0-0.147,68.747,28.727,133.603c0,0,3.796,6.341,7.242-0.922
					c0,0-5.91-55.857-3.319-108.925l3.319-0.896c0,0,14.848,75.047,15.706,109.82c0,0,4.503,6.498,7.302-0.532
					c0,0,13.86-98.231,7.733-133.722C123.838,263.793,93.141,267.549,57.129,265.366z"/>
				<path style="fill:#2C3135;" d="M83.277,310.735c0.447,9.392,0.447,18.335,0.895,27.279c1.156,20.8,2.638,41.268,2.457,61.975
					c1.285,1.435,3.969,3.329,6.47-1.942c0,0-5.71-56.358-3.319-108.925C87.247,287.182,82.83,306.263,83.277,310.735z"/>
				<path style="fill:#2C3135;" d="M123.838,263.793c0,0-29.635,3.623-64.826,1.679c6.337,2.005,12.74,3.815,19.345,5.017
					c7.603,1.341,16.099,1.341,23.254,4.919c20.124,10.732,17.441,49.639,18.335,67.973c0.229,5.396,0.489,10.79,0.762,16.184
					C124.076,327.957,127.472,284.841,123.838,263.793z"/>
			</g>
			<path style="fill:#535C66;" d="M56.235,263.793c0,0,44.378,1.602,67.54-1.327v3.272c0,0-38.287,4.721-67.164,1.843
				L56.235,263.793z"/>
		</g>
		<g>
			<g>
				<path style="fill:#F9B7AB;" d="M110.062,179.163c0,0,7.202,1.662,10.557,8.817c3.354,7.155,20.588,36.73,19.482,42.372
					c-4.055,20.683-14.893,44.542-14.893,44.542s-1.663,8.954-3.083,10.452c0,0-5.084-5.02-7.544-11.952l6.708-3.801
					c0,0,6.514-34.323,5.396-40.359C125.566,223.197,111.179,197.721,110.062,179.163z"/>
				<path style="fill:#C9758D;" d="M110.062,179.163c0.997,16.564,12.558,38.626,15.828,47.472
					c3.983-1.618,7.869-3.425,11.599-5.476c-4.755-11.093-14.444-28.001-16.871-33.178
					C117.264,180.825,110.062,179.163,110.062,179.163z"/>
			</g>
			<path style="fill:#2F4253;" d="M136.048,210.628c0,0-11.041-33.171-21.453-33.313c-10.411-0.144-5.295,17.05-0.31,29.368
				c4.986,12.317,5.763,15.343,5.763,15.343S127.103,222.74,136.048,210.628z"/>
			<g>
				<path style="fill:#3F464E;" d="M113.292,269.761c1.325,6.474,4.367,12.146,8.571,17.21c0.761,0.916,2.081-0.404,1.309-1.31
					c-4.048-4.752-7.084-10.264-9.476-16.011C113.594,269.405,113.236,269.49,113.292,269.761L113.292,269.761z"/>
			</g>
		</g>
		<g>
			<path style="fill:#222221;" d="M131.358,405.449c-0.509-0.037-0.779-0.096-1.269,0.086c-0.34,0.124-0.569,0.339-0.682,0.639
				c-0.103-0.105-0.253-0.213-0.507-0.308c-0.314-0.116-0.793,0.008-1.008,0.267c-0.66,0.799-0.125,0.386-1.063-0.287
				c-0.298-0.212-0.745-0.17-1.046,0c-1.233,0.694-0.679,0.279-2.06-0.057c-0.341-0.083-0.762-0.013-1.003,0.265
				c-0.127,0.148-0.2,0.253-0.251,0.341c-0.014-0.131-0.083-0.304-0.298-0.51c-0.342-0.329-0.867-0.413-1.281-0.165
				c-1.103,0.655-0.43,1.274-0.894,0.413c-0.227-0.419-0.711-0.559-1.151-0.468c-1.133,0.231-1.006,0.208-0.949,0.993
				c-0.036-0.501-0.305-0.878-0.79-1.037c-0.702-0.231-1.594-0.332-2.171,0.213c-0.209-0.34-0.629-0.501-0.979-0.656
				c-0.489-0.217-0.965-0.2-1.373,0.176c-0.187,0.173-0.318,0.321-0.416,0.453c-0.078-0.171-0.205-0.372-0.421-0.61
				c-0.264-0.291-0.71-0.383-1.079-0.285c-0.36,0.096-0.661,0.392-0.899,0.705c-0.084-0.12-0.18-0.241-0.301-0.369
				c-0.28-0.293-0.705-0.335-1.065-0.189c-0.052-0.027-0.112-0.037-0.176-0.02c-1.612,0.45-3.097,2.076-1.221,3.281
				c0.348,0.223,0.827,0.137,1.112-0.143c0.157-0.153,0.251-0.294,0.323-0.424c0.003,0.017,0.001,0.026,0.003,0.044
				c0.099,0.597,0.77,0.818,1.281,0.728c0.309-0.055,0.688-0.126,0.924-0.363c0.038,0.076,0.083,0.155,0.137,0.24
				c0.265,0.406,0.765,0.666,1.253,0.51c0.354-0.113,0.785-0.191,1.063-0.47c0.028-0.027,0.038-0.046,0.062-0.07
				c0.09,0.112,0.193,0.214,0.31,0.282c0.881,0.504,1.211,0.481,2.125,0.076c0.273-0.121,0.408-0.318,0.465-0.524
				c0.172,0.412,0.524,0.618,0.969,0.671c0.218,0.024,0.435,0.052,0.652,0.076c0.382,0.045,0.696-0.241,0.901-0.517
				c0.081-0.108,0.139-0.206,0.18-0.289c0.018,0.07,0.038,0.14,0.077,0.229c0.189,0.433,0.87,0.561,1.235,0.688
				c0.453,0.157,0.915-0.108,1.162-0.474c0.05-0.074,0.075-0.126,0.109-0.186c0.01,0.019,0.011,0.036,0.025,0.057
				c0.267,0.385,0.768,0.692,1.254,0.511c1.081-0.406,0.912-0.911,1.948-0.163c0.287,0.207,0.772,0.187,1.062,0
				c1.637-1.059-0.03,0.134,1.83,0.134c0.478,0,1.172-0.192,1.424-0.648c-0.216,0.39,1.751,0.192,1.761,0.189
				c0.458-0.105,0.799-0.577,0.79-1.039c0-0.04-0.006-0.059-0.008-0.093C132.587,407.19,132.567,405.538,131.358,405.449z"/>
			<path style="fill:#2C373B;" d="M119.002,385.982c-2.338,17.265,2.321,16.379,4.185,17.125c1.864,0.746,8.95,1.652,8.95,3.037
				c0,1.384-24.56,0.959-25.837,0c-1.278-0.959-0.489-17.983,0.791-19.609C107.592,385.897,119.2,384.526,119.002,385.982z"/>
			<g>
				<path style="fill:#222221;" d="M118.089,391.055c0.629-0.129,1.642-0.427,1.941-1.061c0.074-0.156-0.051-0.419-0.257-0.334
					c-0.619,0.256-1.109,0.492-1.8,0.547c-0.693,0.055-1.374-0.037-2.061-0.006c-0.352,0.017-0.471,0.46-0.176,0.651
					C116.396,391.282,117.348,391.206,118.089,391.055z"/>
				<path style="fill:#222221;" d="M115.122,393.976c1.784,0.694,4.313-0.259,5.246-1.915c0.066-0.117-0.1-0.256-0.192-0.147
					c-1.206,1.414-3.256,1.462-4.965,1.411C114.81,393.313,114.792,393.848,115.122,393.976z"/>
				<path style="fill:#222221;" d="M115.913,397.425c-0.562,0.108-0.365,0.875,0.125,0.926c1.769,0.184,3.645-0.707,4.642-2.17
					c0.163-0.239-0.188-0.479-0.384-0.297C119.104,396.987,117.433,397.13,115.913,397.425z"/>
				<path style="fill:#222221;" d="M116.207,400.465c-0.574,0.177-0.325,0.958,0.241,0.874c1.807-0.264,3.93-1.022,4.562-2.917
					c0.066-0.201-0.211-0.284-0.319-0.134C119.718,399.626,117.696,400.003,116.207,400.465z"/>
				<path style="fill:#222221;" d="M119.948,405.039c0.117,0.313,0.501,0.458,0.759,0.201c0.524-0.522,0.705-1.36,1.064-2
					c0.433-0.771,0.895-1.524,1.693-1.965c0.195-0.106,0.061-0.401-0.148-0.351c-0.904,0.22-1.648,0.82-2.289,1.471
					C120.434,402.999,119.618,404.154,119.948,405.039z"/>
			</g>
		</g>
		<g>
			<path style="fill:#222221;" d="M66.955,405.449c0.509-0.037,0.779-0.096,1.269,0.086c0.34,0.124,0.568,0.339,0.682,0.639
				c0.103-0.105,0.253-0.213,0.507-0.308c0.314-0.116,0.793,0.008,1.008,0.267c0.66,0.799,0.125,0.386,1.063-0.287
				c0.297-0.212,0.745-0.17,1.046,0c1.234,0.694,0.679,0.279,2.06-0.057c0.341-0.083,0.761-0.013,1.003,0.265
				c0.128,0.148,0.2,0.253,0.252,0.341c0.014-0.131,0.083-0.304,0.298-0.51c0.342-0.329,0.867-0.413,1.282-0.165
				c1.102,0.655,0.429,1.274,0.893,0.413c0.227-0.419,0.712-0.559,1.151-0.468c1.134,0.231,1.006,0.208,0.949,0.993
				c0.036-0.501,0.306-0.878,0.79-1.037c0.703-0.231,1.594-0.332,2.171,0.213c0.21-0.34,0.629-0.501,0.98-0.656
				c0.489-0.217,0.965-0.2,1.374,0.176c0.187,0.173,0.317,0.321,0.415,0.453c0.078-0.171,0.206-0.372,0.421-0.61
				c0.264-0.291,0.71-0.383,1.079-0.285c0.36,0.096,0.661,0.392,0.899,0.705c0.084-0.12,0.18-0.241,0.302-0.369
				c0.279-0.293,0.704-0.335,1.064-0.189c0.052-0.027,0.112-0.037,0.176-0.02c1.612,0.45,3.097,2.076,1.221,3.281
				c-0.348,0.223-0.826,0.137-1.112-0.143c-0.157-0.153-0.251-0.294-0.323-0.424c-0.003,0.017-0.001,0.026-0.004,0.044
				c-0.099,0.597-0.77,0.818-1.28,0.728c-0.309-0.055-0.688-0.126-0.924-0.363c-0.038,0.076-0.082,0.155-0.137,0.24
				c-0.264,0.406-0.765,0.666-1.253,0.51c-0.355-0.113-0.786-0.191-1.063-0.47c-0.028-0.027-0.039-0.046-0.062-0.07
				c-0.09,0.112-0.193,0.214-0.311,0.282c-0.881,0.504-1.21,0.481-2.124,0.076c-0.273-0.121-0.408-0.318-0.465-0.524
				c-0.172,0.412-0.523,0.618-0.969,0.671c-0.218,0.024-0.435,0.052-0.652,0.076c-0.382,0.045-0.696-0.241-0.901-0.517
				c-0.081-0.108-0.139-0.206-0.18-0.289c-0.018,0.07-0.038,0.14-0.076,0.229c-0.189,0.433-0.87,0.561-1.236,0.688
				c-0.452,0.157-0.915-0.108-1.162-0.474c-0.049-0.074-0.075-0.126-0.109-0.186c-0.011,0.019-0.012,0.036-0.025,0.057
				c-0.267,0.385-0.767,0.692-1.254,0.511c-1.081-0.406-0.912-0.911-1.948-0.163c-0.287,0.207-0.772,0.187-1.061,0
				c-1.637-1.059,0.03,0.134-1.83,0.134c-0.478,0-1.172-0.192-1.423-0.648c0.215,0.39-1.751,0.192-1.762,0.189
				c-0.458-0.105-0.798-0.577-0.79-1.039c0-0.04,0.006-0.059,0.009-0.093C65.726,407.19,65.745,405.538,66.955,405.449z"/>
			<path style="fill:#2C373B;" d="M79.31,385.982c2.338,17.265-2.321,16.379-4.185,17.125c-1.865,0.746-8.95,1.652-8.95,3.037
				c0,1.384,24.559,0.959,25.837,0c1.278-0.959,1.711-18.766,0.432-20.392C91.943,385.115,79.112,384.526,79.31,385.982z"/>
			<g>
				<path style="fill:#222221;" d="M80.224,391.055c-0.629-0.129-1.643-0.427-1.942-1.061c-0.073-0.156,0.051-0.419,0.257-0.334
					c0.619,0.256,1.109,0.492,1.8,0.547c0.693,0.055,1.374-0.037,2.061-0.006c0.352,0.017,0.47,0.46,0.176,0.651
					C81.917,391.282,80.965,391.206,80.224,391.055z"/>
				<path style="fill:#222221;" d="M83.191,393.976c-1.784,0.694-4.313-0.259-5.246-1.915c-0.067-0.117,0.1-0.256,0.192-0.147
					c1.206,1.414,3.256,1.462,4.965,1.411C83.503,393.313,83.521,393.848,83.191,393.976z"/>
				<path style="fill:#222221;" d="M82.4,397.425c0.562,0.108,0.365,0.875-0.125,0.926c-1.768,0.184-3.645-0.707-4.642-2.17
					c-0.163-0.239,0.188-0.479,0.384-0.297C79.209,396.987,80.88,397.13,82.4,397.425z"/>
				<path style="fill:#222221;" d="M82.106,400.465c0.574,0.177,0.324,0.958-0.241,0.874c-1.807-0.264-3.93-1.022-4.562-2.917
					c-0.067-0.201,0.21-0.284,0.319-0.134C78.594,399.626,80.617,400.003,82.106,400.465z"/>
				<path style="fill:#222221;" d="M78.365,405.039c-0.116,0.313-0.501,0.458-0.759,0.201c-0.523-0.522-0.705-1.36-1.064-2
					c-0.433-0.771-0.895-1.524-1.693-1.965c-0.195-0.106-0.061-0.401,0.147-0.351c0.905,0.22,1.648,0.82,2.289,1.471
					C77.878,402.999,78.695,404.154,78.365,405.039z"/>
			</g>
		</g>
		<g>
			<g>
				<path style="fill:#F9B7AB;" d="M46.107,209.259c0,0-1.448,17.367-1.82,29.218c-0.373,11.852,10.481,44.176,10.481,44.176
					s-2.141,6.076-1.769,10.802c0.372,4.725,1.877,9.05,3.283,9.073c1.406,0.021,1.788-2.643,1.788-2.643s0.563,4.666,2.998,4.506
					c2.635-0.174,1.69-5.773,1.69-5.773s2.267,5.272,4.479,4.024c2.211-1.249-2.223-7.435-2.95-11.896
					c-0.727-4.464,2.033-3.013,3.031-1.976c0.997,1.038,3.94,5.259,5.229,4.118c1.289-1.139-2.3-10.877-10.666-12.349
					c0,0-4.826-30.136-4.761-39.903c0.066-9.766,3.048-24.416,3.048-24.416L46.107,209.259z"/>
				<g>
					<g>
						<path style="fill:#C9758D;" d="M62.931,299.041c-2.041-2.622-1.874-6.095-2.365-9.085c-0.038-0.228,0.404-0.246,0.453-0.03
							c0.252,1.126,0.377,2.27,0.588,3.4c0.355,1.913,1.282,3.755,1.428,5.688C63.039,299.054,62.959,299.08,62.931,299.041
							L62.931,299.041z"/>
					</g>
					<g>
						<path style="fill:#C9758D;" d="M58.187,300.366c-0.933-1.392-1.086-3.258-1.363-4.811c-0.258-1.449-0.804-3.222-0.499-4.695
							c0.025-0.128,0.286-0.146,0.326-0.022c0.37,1.145,0.334,2.439,0.526,3.615c0.316,1.936,1.135,3.924,1.166,5.871
							C58.344,300.382,58.228,300.427,58.187,300.366L58.187,300.366z"/>
					</g>
				</g>
				<path style="fill:#C9758D;" d="M52.766,230.732c0.875,3.337,2.434,6.322,4.367,9.1c0.213-9.745,3.035-23.611,3.035-23.611
					l-14.06-6.962c0,0-0.597,7.165-1.124,15.428c1.244,1.017,2.612,1.873,4.214,2.632C51.06,228.249,52.146,228.561,52.766,230.732z
					"/>
			</g>
			<path style="fill:#3F556C;" d="M43.508,219.828c0,0-2.48-32.033,15.229-39.733c20.177-8.773,7.066,17.757,5.045,30.892
				c-2.022,13.134-2.083,16.257-2.083,16.257S54.999,229.559,43.508,219.828z"/>
		</g>
		<g>
			<g>
				<path style="fill:#F9B7AB;" d="M78.038,146.029c0,0,1.228,31.092,3.618,36.114s13.967,3.203,14.28-4.838
					c0.313-8.042,1.485-26.527,1.485-26.527L78.038,146.029z"/>
				<path style="fill:#C9758D;" d="M78.038,146.029c0,0,0.405,10.239,1.202,19.915c1.425,1.321,3.006,2.518,4.936,3.48
					c3.757,1.963,7.801,3.057,11.957,3.561c0.448-8.945,1.289-22.208,1.289-22.208L78.038,146.029z"/>
			</g>
			<g>
				<path style="fill:#F9B7AB;" d="M105.665,133.478c0,0-1.619,22.248-2.528,25.043c-0.91,2.795-15.052,2.068-15.052,2.068
					l-6.316-12.477l1.397-15.137l8.385-3.13L105.665,133.478z"/>
				<g>
					<path style="fill:#382C50;" d="M93.759,146.813c0.062,0.2,0.217,0.363,0.404,0.461c0.144,0.14,0.314,0.259,0.517,0.341
						c0.479,0.196,1.034-0.038,1.384-0.367c0.44-0.415,0.422-1.008,0.202-1.52C95.627,144.248,93.341,145.444,93.759,146.813z"/>
					<path style="fill:#382C50;" d="M102.119,146.496c-0.071,0.187-0.066,0.389-0.032,0.588c-0.01,0.325,0.171,0.616,0.453,0.798
						c0.042,0.034,0.075,0.08,0.121,0.108c0.249,0.151,0.538,0.152,0.798,0.06c0.681-0.142,0.967-0.908,0.576-1.598
						C103.572,145.635,102.477,145.545,102.119,146.496z"/>
					<path style="fill:#CC417C;" d="M95.503,142.445c0.235,0.114,0.445-0.158,0.275-0.357c-1.331-1.561-3.633-0.291-4.731,0.919
						c-0.104,0.115,0.029,0.302,0.17,0.219C92.625,142.398,93.885,141.663,95.503,142.445z"/>
					<path style="fill:#CC417C;" d="M105.131,142.936c-0.425-0.451-1.002-0.452-1.524-0.187c-0.211,0.107-0.05,0.381,0.148,0.351
						c0.991-0.146,1.242,0.72,1.459,1.488c0.055,0.193,0.357,0.208,0.404,0C105.761,143.969,105.567,143.397,105.131,142.936z"/>
				</g>
			</g>
			<g>
				<path style="fill:#C0416E;" d="M77.636,142.154c0,0-4.377-11.131,0-15.318c0,0-0.952-6.755,6.945-8.658
					c7.896-1.903,24.927,3.235,24.546,11.988c-0.38,8.753-10.216,8.467-16.715,3.71c0,0-1.909,5.233-6.487,4.948
					c0,0-2.391,7.801-1.344,11.606c1.047,3.806,5.575,7.421,6.688,6.185c1.114-1.237,2.914-3.865,6.058-4.073
					c3.143-0.208,3.904,1.98,4.665,2.361c0.761,0.38,1.332-2.854,2.093-2.854s0.537,15.389-7.665,15.509
					C88.218,167.678,75.878,163.188,77.636,142.154z"/>
				<path style="opacity:0.5;fill:#C0416E;" d="M84.581,118.179c-7.897,1.903-6.945,8.658-6.945,8.658
					c-2.738,2.619-2.051,7.954-1.152,11.583c0.344-1.466,0.941-2.894,1.849-4.255c1.392-2.087,3.247-2.706,5.567-3.402
					c-0.619-4.098,0.464-7.577,4.253-9.742c2.581-1.458,5.499-1.978,8.504-1.986C92.299,117.782,87.719,117.422,84.581,118.179z"/>
				<path style="opacity:0.5;fill:#C0416E;" d="M83.127,143.984c-1.16,4.407-0.542,9.433,1.469,13.53
					c0.618,1.315,1.624,3.325,3.169,3.789c1.469,0.386,2.629-0.773,3.479-1.701c2.397-2.474,4.252-5.257,7.886-3.557
					c1.469,0.696,2.938,1.778,4.562,1.16c0.163-0.069,0.311-0.17,0.461-0.265c0.364-2.719,0.217-4.891-0.069-4.891
					c-0.761,0-1.332,3.234-2.093,2.854c-0.762-0.38-1.522-2.569-4.665-2.361c-3.143,0.208-4.944,2.836-6.058,4.073
					c-1.113,1.237-5.641-2.378-6.688-6.185c-0.8-2.91,0.407-8.147,1.02-10.455C84.205,140.462,83.482,142.561,83.127,143.984z"/>
				<path style="fill:#E05067;" d="M101.953,149.348c-0.247-1.188-0.443-2.492-1.502-3.26c-0.143-0.104-0.343-0.041-0.462,0.057
					c-1.055,0.862-1.172,2.391-1.328,3.63c-0.212,1.681-0.141,3.378,0.412,4.999c0.813,2.381,4.64,1.407,3.935-1.04
					C102.59,152.284,102.259,150.823,101.953,149.348z"/>
				<g>
					<path style="fill:#F9B7AB;" d="M95.513,157.726c-0.873,0.198-0.449,1.941,0.904,2.476c1.353,0.535,4.04-0.217,3.933-1.238
						C100.242,157.943,97.662,157.241,95.513,157.726z"/>
					<g>
						<path style="fill:#E05067;" d="M96.245,158.873c0.771,0.44,1.596,0.594,2.472,0.435c0.219-0.04,0.217-0.396,0-0.438
							c-0.763-0.148-1.562-0.14-2.297-0.412C96.174,158.366,96.027,158.747,96.245,158.873L96.245,158.873z"/>
					</g>
				</g>
			</g>
			<g>
				<path style="fill:#F9B7AB;" d="M81.399,144.739c0,3.152-2.555,5.708-5.708,5.708c-3.152,0-5.708-2.556-5.708-5.708
					c0-3.153,2.556-5.709,5.708-5.709C78.844,139.03,81.399,141.587,81.399,144.739z"/>
				<path style="fill:#C9758D;" d="M77.407,142.931c-1.186-1.487-2.867-1.533-4.457-0.669c-0.105,0.057-0.034,0.226,0.081,0.191
					c1.502-0.454,3.049-0.32,3.963,1.081c0.417,0.64,0.591,1.397,0.613,2.165c-0.305-0.371-0.704-0.668-1.145-0.855
					c-1.535-0.651-2.971,0.36-2.997,1.98c-0.011,0.633,0.954,0.628,0.978,0c0.042-1.088,0.822-1.259,1.733-1.006
					c0.445,0.124,0.844,0.419,1.095,0.805c0.135,0.208,0.164,0.425,0.18,0.646c-0.029,0.133-0.059,0.267-0.095,0.395
					c-0.146,0.522,0.68,0.747,0.809,0.223C78.563,146.26,78.497,144.298,77.407,142.931z"/>
			</g>
		</g>
	</g>
	<g>
		<g>
			<g>
				<path style="fill:#F9B7AB;" d="M388.773,210.5c0,0-2.817,14.23-3.443,28.628c-0.626,14.397,1.652,43.829,1.652,43.829
					l8.99-2.042C395.973,280.916,402.234,201.596,388.773,210.5z"/>
				<path style="fill:#C9758D;" d="M388.773,210.5c0,0-2.072,10.476-3.058,22.542c1.497,4.013,1.695,8.46,1.695,13.494
					c-0.086,6.122-0.654,12.096-1.59,17.984c0.511,10.027,1.161,18.438,1.161,18.438l8.99-2.042
					C395.973,280.916,402.234,201.596,388.773,210.5z"/>
			</g>
			<path style="fill:#3F556C;" d="M395.951,188.124c0,0-4.831,1.354-7.335,9.039c-2.505,7.685-7.044,23.181-7.044,23.181
				s7.287,8.547,13.661,5.056C395.233,225.4,401.096,196.287,395.951,188.124z"/>
		</g>
		<g>
			<path style="fill:#3F556C;" d="M391.992,261.976c0,0,1.005-58.535,1.475-66.597c0.47-8.061,6.262-11.537,12.052-12.93
				c5.792-1.393,26.452,4.777,29.27,6.544c2.816,1.767,3.443,63.436-3.131,76.896l-25.508-3.043L391.992,261.976z"/>
			<path style="fill:#2F4253;" d="M434.788,188.994c-2.817-1.767-23.478-7.938-29.27-6.544c-0.81,0.194-1.619,0.436-2.415,0.719
				c5.164,1.975,9.937,4.731,13.333,9.174c6.262,8.049,5.367,20.123,4.473,29.961c-1.21,14.286-2.938,28.048-3.777,41.854
				l14.525,1.732C438.231,252.43,437.604,190.761,434.788,188.994z"/>
			<path style="fill:#556F92;" d="M409.38,187.618c0,0-0.88,46.902-1.228,78.352l2.46-0.16c0,0,2.615-68.072,1.465-78.192H409.38z"
				/>
			<path style="fill:#556F92;" d="M395.634,210.684c-0.728,0.133-0.242,2.954-0.242,2.954s10.796,0.632,10.945,0.156
				c0.15-0.474,0.767-3.259,0.267-3.245C406.103,210.562,397.381,210.363,395.634,210.684z"/>
			<path style="fill:#FED374;" d="M420.237,211.643c0,0-0.1,6.109,0.389,6.6c0.488,0.488,3.948,3.532,4.377,3.288
				c0.43-0.244,3.322-3.533,3.443-4.388c0.122-0.856,0.345-5.381-0.143-5.99c-0.488-0.608-3.399-1.837-3.767-1.714
				C424.17,209.561,420.213,210.916,420.237,211.643z"/>
			<path style="fill:#556F92;" d="M405.519,182.45c0,0-5.313,12.609-4.505,12.93c0.808,0.321,9.643-5.613,9.643-5.613
				s7.639,6.446,8.951,5.613c1.314-0.832-1.123-12.069-1.123-12.069S409.693,178.755,405.519,182.45z"/>
		</g>
		<g>
			<path style="fill:#222221;" d="M446.486,405.155c-0.509-0.037-0.779-0.095-1.27,0.086c-0.339,0.125-0.567,0.339-0.681,0.64
				c-0.104-0.106-0.252-0.214-0.507-0.307c-0.315-0.117-0.793,0.006-1.009,0.266c-0.659,0.799-0.126,0.385-1.062-0.287
				c-0.299-0.213-0.746-0.17-1.047,0c-1.233,0.693-0.68,0.279-2.061-0.057c-0.34-0.083-0.76-0.013-1.002,0.265
				c-0.128,0.146-0.2,0.252-0.253,0.34c-0.013-0.13-0.082-0.303-0.297-0.51c-0.343-0.329-0.867-0.413-1.282-0.165
				c-1.102,0.656-0.43,1.274-0.893,0.414c-0.228-0.42-0.712-0.559-1.151-0.468c-1.135,0.231-1.006,0.207-0.95,0.993
				c-0.035-0.502-0.305-0.878-0.789-1.037c-0.702-0.232-1.594-0.333-2.172,0.212c-0.209-0.339-0.628-0.5-0.98-0.656
				c-0.487-0.217-0.964-0.2-1.372,0.177c-0.188,0.172-0.318,0.32-0.416,0.452c-0.077-0.171-0.205-0.372-0.421-0.61
				c-0.264-0.29-0.711-0.383-1.079-0.284c-0.36,0.096-0.661,0.393-0.899,0.705c-0.084-0.12-0.18-0.241-0.301-0.369
				c-0.28-0.293-0.704-0.335-1.064-0.189c-0.053-0.026-0.112-0.036-0.177-0.019c-1.612,0.449-3.097,2.075-1.221,3.281
				c0.348,0.223,0.826,0.136,1.112-0.144c0.156-0.154,0.252-0.294,0.323-0.424c0.002,0.017,0.001,0.026,0.004,0.044
				c0.099,0.597,0.769,0.817,1.28,0.727c0.309-0.054,0.689-0.125,0.924-0.363c0.037,0.076,0.083,0.156,0.137,0.24
				c0.265,0.406,0.765,0.666,1.254,0.51c0.355-0.113,0.784-0.191,1.063-0.47c0.027-0.027,0.038-0.044,0.063-0.07
				c0.089,0.112,0.193,0.215,0.31,0.282c0.882,0.504,1.211,0.482,2.124,0.077c0.274-0.122,0.409-0.319,0.466-0.525
				c0.172,0.413,0.523,0.619,0.97,0.671c0.217,0.025,0.434,0.052,0.652,0.076c0.381,0.045,0.695-0.24,0.9-0.516
				c0.081-0.109,0.139-0.205,0.181-0.289c0.017,0.069,0.038,0.139,0.076,0.228c0.189,0.433,0.869,0.561,1.236,0.689
				c0.451,0.158,0.915-0.109,1.161-0.474c0.05-0.074,0.074-0.126,0.109-0.186c0.01,0.02,0.011,0.036,0.025,0.057
				c0.267,0.385,0.766,0.692,1.254,0.511c1.081-0.406,0.912-0.911,1.948-0.163c0.286,0.207,0.771,0.187,1.06,0
				c1.638-1.058-0.029,0.135,1.83,0.135c0.478,0,1.172-0.192,1.424-0.649c-0.216,0.39,1.75,0.192,1.761,0.189
				c0.46-0.103,0.799-0.576,0.791-1.037c-0.001-0.041-0.007-0.061-0.009-0.094C447.715,406.896,447.695,405.245,446.486,405.155z"/>
			<path style="fill:#2C373B;" d="M432.441,385.797c1.944,15.829,4.01,16.271,5.874,17.016c1.865,0.746,8.951,1.653,8.951,3.038
				s-24.56,0.958-25.839,0c-1.279-0.959-2.985-17.229-1.707-18.854C420.224,386.359,432.262,384.337,432.441,385.797z"/>
			<g>
				<path style="fill:#222221;" d="M433.218,390.761c0.629-0.129,1.642-0.426,1.941-1.062c0.073-0.156-0.052-0.419-0.257-0.334
					c-0.619,0.257-1.108,0.493-1.8,0.548c-0.694,0.054-1.374-0.037-2.061-0.006c-0.352,0.016-0.471,0.459-0.177,0.65
					C431.524,390.988,432.477,390.912,433.218,390.761z"/>
				<path style="fill:#222221;" d="M430.25,393.683c1.783,0.694,4.313-0.259,5.245-1.915c0.067-0.117-0.099-0.257-0.192-0.148
					c-1.205,1.415-3.256,1.462-4.965,1.412C429.938,393.019,429.919,393.555,430.25,393.683z"/>
				<path style="fill:#222221;" d="M431.041,397.131c-0.563,0.108-0.365,0.876,0.126,0.927c1.768,0.185,3.644-0.707,4.641-2.17
					c0.163-0.24-0.188-0.479-0.384-0.297C434.232,396.693,432.562,396.837,431.041,397.131z"/>
				<path style="fill:#222221;" d="M431.336,400.171c-0.574,0.178-0.324,0.958,0.24,0.875c1.808-0.263,3.931-1.022,4.563-2.917
					c0.065-0.201-0.212-0.285-0.32-0.135C434.847,399.332,432.824,399.71,431.336,400.171z"/>
				<path style="fill:#222221;" d="M435.076,404.746c0.116,0.313,0.5,0.458,0.759,0.2c0.522-0.521,0.705-1.359,1.064-1.999
					c0.433-0.772,0.895-1.525,1.693-1.965c0.194-0.107,0.059-0.401-0.148-0.352c-0.904,0.22-1.648,0.821-2.288,1.471
					C435.563,402.705,434.746,403.861,435.076,404.746z"/>
			</g>
		</g>
		<g>
			<path style="fill:#222221;" d="M374.86,405.449c0.509-0.037,0.778-0.095,1.269,0.086c0.34,0.124,0.567,0.339,0.681,0.639
				c0.104-0.105,0.253-0.213,0.507-0.308c0.314-0.116,0.794,0.008,1.009,0.267c0.66,0.799,0.125,0.386,1.063-0.287
				c0.298-0.212,0.744-0.169,1.047,0c1.233,0.694,0.678,0.279,2.06-0.057c0.341-0.083,0.761-0.013,1.002,0.265
				c0.128,0.148,0.2,0.253,0.252,0.341c0.015-0.131,0.083-0.304,0.299-0.51c0.342-0.329,0.867-0.413,1.28-0.166
				c1.104,0.656,0.43,1.275,0.895,0.414c0.228-0.419,0.711-0.559,1.151-0.468c1.134,0.231,1.006,0.208,0.948,0.993
				c0.036-0.501,0.307-0.878,0.789-1.037c0.704-0.231,1.596-0.332,2.172,0.213c0.211-0.34,0.631-0.5,0.98-0.656
				c0.488-0.217,0.965-0.2,1.374,0.177c0.186,0.172,0.316,0.32,0.415,0.452c0.077-0.171,0.205-0.372,0.423-0.61
				c0.263-0.291,0.709-0.383,1.077-0.285c0.36,0.097,0.66,0.392,0.899,0.705c0.084-0.12,0.18-0.241,0.302-0.368
				c0.28-0.294,0.703-0.336,1.064-0.189c0.052-0.027,0.111-0.037,0.176-0.018c1.612,0.449,3.097,2.075,1.221,3.28
				c-0.347,0.223-0.826,0.137-1.111-0.142c-0.157-0.154-0.252-0.294-0.324-0.425c-0.002,0.017,0,0.026-0.003,0.044
				c-0.1,0.597-0.771,0.818-1.28,0.728c-0.31-0.056-0.688-0.126-0.924-0.363c-0.039,0.076-0.083,0.155-0.139,0.24
				c-0.264,0.406-0.765,0.666-1.252,0.51c-0.355-0.113-0.786-0.191-1.065-0.47c-0.027-0.027-0.037-0.045-0.06-0.07
				c-0.091,0.112-0.193,0.214-0.312,0.282c-0.881,0.504-1.21,0.481-2.124,0.077c-0.272-0.122-0.406-0.319-0.465-0.525
				c-0.172,0.412-0.523,0.618-0.97,0.671c-0.217,0.024-0.435,0.052-0.651,0.076c-0.382,0.045-0.696-0.241-0.9-0.517
				c-0.082-0.108-0.141-0.206-0.181-0.289c-0.019,0.07-0.038,0.14-0.077,0.229c-0.189,0.433-0.87,0.561-1.234,0.688
				c-0.452,0.158-0.915-0.108-1.162-0.474c-0.051-0.074-0.075-0.126-0.109-0.186c-0.011,0.019-0.012,0.036-0.026,0.057
				c-0.266,0.385-0.767,0.692-1.253,0.511c-1.081-0.406-0.912-0.911-1.948-0.163c-0.287,0.207-0.772,0.187-1.061,0
				c-1.637-1.059,0.029,0.134-1.83,0.134c-0.478,0-1.171-0.192-1.424-0.648c0.217,0.39-1.75,0.192-1.761,0.189
				c-0.458-0.105-0.799-0.577-0.791-1.038c0.001-0.041,0.007-0.059,0.009-0.094C373.632,407.19,373.65,405.538,374.86,405.449z"/>
			<path style="fill:#2C373B;" d="M387.216,385.982c2.338,17.265-2.32,16.38-4.185,17.125c-1.864,0.746-8.949,1.652-8.949,3.037
				c0,1.385,24.559,0.959,25.837,0c1.278-0.959,1.711-18.766,0.432-20.392C399.849,385.115,387.019,384.526,387.216,385.982z"/>
			<g>
				<path style="fill:#222221;" d="M388.129,391.055c-0.629-0.129-1.643-0.427-1.941-1.061c-0.073-0.156,0.052-0.419,0.257-0.334
					c0.618,0.256,1.109,0.492,1.799,0.547c0.694,0.055,1.376-0.037,2.061-0.006c0.353,0.017,0.47,0.46,0.177,0.651
					C389.822,391.282,388.871,391.206,388.129,391.055z"/>
				<path style="fill:#222221;" d="M391.098,393.976c-1.785,0.694-4.314-0.259-5.246-1.915c-0.066-0.117,0.1-0.256,0.192-0.147
					c1.205,1.414,3.256,1.462,4.965,1.411C391.409,393.313,391.427,393.849,391.098,393.976z"/>
				<path style="fill:#222221;" d="M390.306,397.425c0.563,0.108,0.365,0.875-0.125,0.926c-1.768,0.184-3.645-0.707-4.642-2.17
					c-0.162-0.239,0.188-0.479,0.384-0.297C387.115,396.987,388.787,397.13,390.306,397.425z"/>
				<path style="fill:#222221;" d="M390.012,400.465c0.573,0.177,0.324,0.958-0.241,0.874c-1.807-0.263-3.931-1.022-4.561-2.917
					c-0.067-0.201,0.209-0.284,0.318-0.134C386.5,399.626,388.522,400.003,390.012,400.465z"/>
				<path style="fill:#222221;" d="M386.271,405.04c-0.117,0.313-0.501,0.457-0.76,0.2c-0.523-0.522-0.704-1.36-1.064-2
					c-0.433-0.771-0.893-1.524-1.692-1.965c-0.195-0.106-0.06-0.401,0.148-0.351c0.905,0.22,1.649,0.82,2.29,1.471
					C385.785,402.999,386.601,404.154,386.271,405.04z"/>
			</g>
		</g>
		<g>
			<path style="fill:#3F464E;" d="M391.977,258.537c0,0-12.089,14.215-2.029,134.132c0,0,3.867,1.412,8.725,0
				c0,0,3.246-70.456,11.843-106.994c0,0,9.671,84.741,10.209,105.774c0,0,5.642,2.071,10.746,0c0,0,8.06-83.516,1.881-130.242
				c0,0-9.989,2.65-22.536,1.711C398.502,261.996,391.977,258.537,391.977,258.537z"/>
			<path style="fill:#2C3135;" d="M433.351,261.206c0,0-9.989,2.65-22.536,1.711c-12.313-0.921-18.838-4.38-18.838-4.38
				s-0.206,0.244-0.539,0.928c6.463,4.449,13.114,8.331,20.527,10.69c4.92,1.789,12.969,1.341,16.547,5.367
				c4.919,5.814,3.131,17.887,3.577,24.147c0.401,12.46,1.174,24.561,2.948,36.947C436.024,311.429,436.166,282.499,433.351,261.206
				z"/>
			<path style="fill:#2C3135;" d="M403.021,288.043c-4.025,10.286-5.367,21.913-7.155,32.645
				c-3.815,24.032-4.695,48.065-4.319,72.374c1.573,0.279,4.163,0.469,7.125-0.393c0,0,3.127-67.87,11.372-104.929
				c-0.321-1.055-0.718-2.009-1.209-2.827C406.151,279.994,404.81,284.018,403.021,288.043z"/>
			<path style="fill:#535C66;" d="M392.08,256.961l-0.825,2.892c0,0,6.218,5.643,17.124,7.021
				c10.906,1.38,25.388-2.277,25.388-2.277s-0.116-2.745-0.322-4.195c0,0-11.703,3.31-25.226,1.887
				C398.468,261.261,392.08,256.961,392.08,256.961z"/>
		</g>
		<g>
			<path style="fill:#F9B7AB;" d="M404.211,167.651c0,0,0.9,14.14,1.153,18.157c0.165,2.605,12.623,4.294,13.12-2.498
				c0.497-6.792,0-15.659,0-15.659H404.211z"/>
			<path style="fill:#C9758D;" d="M418.484,167.651h-14.273c0,0,0.435,6.836,0.785,12.353c4.706,0.267,9.3-0.071,13.683-1.1
				C418.796,173.215,418.484,167.651,418.484,167.651z"/>
		</g>
		<g>
			<g>
				<path style="fill:#F9B7AB;" d="M434.007,212.235c0,0,9.861,23.293,9.548,26.893c-0.314,3.599-8.469,26.255-11.896,27.99
					c0,0-5.947-2.168-9.234,1.276c0,0,3.139,7.827,9.786,8.766c0,0,13.691-19.722,20.734-36.47c0,0-3.131-22.513-8.139-32.387
					L434.007,212.235z"/>
				<path style="fill:#C9758D;" d="M445.436,233.239c-0.403-2.821-2.016-6.246-0.605-9.066c0.91-1.417,2.533-2.375,4.305-3.107
					c-1.204-4.791-2.662-9.477-4.328-12.763l-10.8,3.932c0,0,9.861,23.293,9.548,26.893c-0.12,1.383-1.401,5.583-3.125,10.326
					C444.419,245.107,446.886,240.007,445.436,233.239z"/>
			</g>
			<path style="fill:#2F4253;" d="M427.276,201.635c2.093,5.111,9.531,20.899,9.531,20.899s12.225-2.44,13.477-10.298
				c0,0-7.212-20.23-15.496-23.241C426.504,185.983,424.712,195.37,427.276,201.635z"/>
			<g>
				<path style="fill:#535C66;" d="M421.705,267.935c2.189,4.439,6.309,9.074,11.244,10.397c0.789,0.211,1.254-0.895,0.553-1.309
					c-2.23-1.323-4.355-2.317-6.367-4.027c-1.893-1.608-3.126-3.881-5.19-5.299C421.788,267.589,421.634,267.792,421.705,267.935
					L421.705,267.935z"/>
			</g>
		</g>
		<g>
			<g>
				<path style="fill:#3B1955;" d="M400.615,159.721c0,0-1.696-5.45-1.183-11.311c0.461-5.244,4.112-8.739,7.197-8.945
					c0,0-2.056-2.313-0.256-2.622c1.799-0.309,3.36,1.747,3.36,1.747s-0.225-2.004,0.854-2.056c1.079-0.052,1.588,1.867,1.588,1.867
					s5.45-0.427,8.848,2.04c2.85,2.07,4.781,12.596,2.365,22.568L400.615,159.721z"/>
				<path style="opacity:0.5;fill:#3B1955;" d="M400.198,149.928c0.464-2.01,1.16-4.33,3.094-5.412
					c1.623-0.85,3.401-0.773,5.103-1.082c1.855-0.387,2.859-1.933,4.174-3.169c0.775-0.727,1.569-1.317,2.395-1.801
					c-1.602-0.149-2.786-0.06-2.786-0.06s-0.509-1.919-1.588-1.867c-1.079,0.052-0.854,2.056-0.854,2.056s-1.562-2.056-3.36-1.747
					c-1.8,0.308,0.256,2.622,0.256,2.622c-3.085,0.206-6.736,3.701-7.197,8.945c-0.242,2.763,0.009,5.426,0.339,7.477
					C399.671,153.891,399.747,151.909,400.198,149.928z"/>
			</g>
			<path style="fill:#C9758D;" d="M396.151,162.687c-0.14,2.639,1.885,4.893,4.524,5.034c2.638,0.141,4.894-1.883,5.034-4.523
				c0.142-2.639-1.885-4.893-4.523-5.035C398.548,158.023,396.293,160.048,396.151,162.687z"/>
			<g>
				<path style="fill:#F9B7AB;" d="M422.414,150.867c0.162,0.891-0.22,15.63-2.5,20.236c-2.916,5.892-17.32,5.237-18.748,0
					c-1.074-3.942-0.833-17.677-0.298-20.593c0.536-2.916,2.499-4.643,3.868-4.166c1.37,0.477,3.512,2.44,7.321,2.262
					c3.81-0.178,5.425-1.998,6.593-1.964C420.688,146.7,421.938,148.248,422.414,150.867z"/>
				<g>
					<path style="fill:#E05067;" d="M408.543,159.262c-0.18-0.249-0.519-0.148-0.554,0.15c-0.239,2.034-1.481,3.829-2.5,5.53
						c-0.784,1.309,0.815,3.046,2.152,2.151C410.182,165.389,410.208,161.561,408.543,159.262z"/>
					<path style="fill:#E05067;" d="M411.408,167.967c-0.698,0.296-1.263,0.825-1.976,1.126c-0.761,0.321-1.437,0.54-2.277,0.512
						c-0.168-0.006-0.177,0.222-0.037,0.275c0.89,0.338,1.917,0.46,2.843,0.19c0.787-0.229,1.765-0.88,1.935-1.728
						C411.958,168.036,411.678,167.853,411.408,167.967z"/>
					<path style="fill:#382C50;" d="M413.854,158.862c-0.016,0.018-0.033,0.037-0.048,0.055c-0.076,0.086-0.125,0.176-0.16,0.266
						c-0.099,0.085-0.179,0.193-0.218,0.319c-0.216,0.698,0.38,1.459,1.135,1.202c0.704-0.24,0.923-1.087,0.512-1.684
						C414.808,158.633,414.208,158.462,413.854,158.862z"/>
					<path style="fill:#382C50;" d="M403.02,158.629c-0.767,0.316-0.988,1.113-0.565,1.82c0.22,0.366,0.544,0.47,0.849,0.417
						c0.613,0.079,1.064-0.712,1.074-1.288C404.392,158.903,403.653,158.368,403.02,158.629z"/>
					<path style="fill:#3B1955;" d="M402.889,154.627c-0.851-0.054-1.647,0.555-1.952,1.313c-0.039,0.096,0.111,0.182,0.176,0.102
						c0.482-0.599,1.161-0.733,1.833-1.003C403.161,154.952,403.135,154.643,402.889,154.627z"/>
					<path style="fill:#3B1955;" d="M415.957,155.613c-0.266-0.387-0.536-0.627-0.938-0.874c-0.327-0.2-0.712-0.462-1.107-0.363
						c-0.067,0.017-0.093,0.095-0.063,0.153c0.163,0.303,0.491,0.419,0.769,0.599c0.368,0.237,0.708,0.509,1.075,0.748
						C415.853,155.979,416.068,155.773,415.957,155.613z"/>
				</g>
			</g>
			<g>
				<path style="fill:#F9B7AB;" d="M419.708,162.687c-0.142,2.639,1.884,4.893,4.522,5.034s4.894-1.883,5.035-4.523
					c0.141-2.639-1.885-4.893-4.524-5.035C422.104,158.023,419.848,160.048,419.708,162.687z"/>
				<path style="fill:#C9758D;" d="M423.131,161.353c1.059-1.193,2.469-1.156,3.761-0.362c0.086,0.053,0.017,0.191-0.075,0.157
					c-1.239-0.447-2.539-0.405-3.367,0.728c-0.377,0.517-0.559,1.143-0.611,1.784c0.273-0.296,0.621-0.528,0.997-0.664
					c1.314-0.477,2.473,0.435,2.421,1.791c-0.02,0.531-0.826,0.483-0.817-0.043c0.013-0.913-0.633-1.091-1.407-0.919
					c-0.378,0.085-0.724,0.313-0.952,0.625c-0.122,0.167-0.157,0.349-0.18,0.533c0.019,0.112,0.039,0.225,0.062,0.335
					c0.099,0.443-0.602,0.594-0.687,0.15C422.014,164.087,422.157,162.448,423.131,161.353z"/>
			</g>
		</g>
	</g>
</g>
</svg>
