<?xml version="1.0" encoding="utf-8"?>
<!-- Generator: Adobe Illustrator 27.5.0, SVG Export Plug-In . SVG Version: 6.00 Build 0)  -->
<svg version="1.1" xmlns="http://www.w3.org/2000/svg" xmlns:xlink="http://www.w3.org/1999/xlink" x="0px" y="0px"
	 viewBox="0 0 500 500" style="enable-background:new 0 0 500 500;" xml:space="preserve">
<g id="BACKGROUND">
	<rect style="fill:#D0D2D3;" width="500" height="500"/>
</g>
<g id="OBJECTS">
	<g>
		<path style="fill:#FFFFFF;" d="M304.466,55.392H195.534c-12.421,0-22.49,10.069-22.49,22.49V185.46
			c0,12.421,10.069,22.49,22.49,22.49h108.932c12.421,0,22.49-10.069,22.49-22.49V77.882
			C326.956,65.461,316.887,55.392,304.466,55.392z"/>
		<path style="fill:#BF362B;" d="M302.241,63.594H197.76c-7.476,0-13.536,6.06-13.536,13.536V181.61
			c0,7.475,6.06,13.536,13.536,13.536h104.481c7.475,0,13.536-6.06,13.536-13.536V77.129
			C315.776,69.654,309.716,63.594,302.241,63.594z"/>
		<path style="fill:#EE4036;" d="M302.241,48.519H197.76c-7.476,0-13.536,6.06-13.536,13.536v104.481
			c0,7.476,6.06,13.536,13.536,13.536h104.481c7.475,0,13.536-6.06,13.536-13.536V62.054
			C315.776,54.579,309.716,48.519,302.241,48.519z"/>
		<g>
			<g>
				<path style="fill:#FFFFFF;" d="M250,103.454c-2.566,0-4.646-2.08-4.646-4.646V76.281c0-2.566,2.08-4.646,4.646-4.646
					s4.646,2.08,4.646,4.646v22.527C254.646,101.373,252.566,103.454,250,103.454z"/>
			</g>
			<g>
				<path style="fill:#FFFFFF;" d="M250,156.955c-22.074,0-40.032-17.958-40.032-40.032c0-8.24,2.485-16.155,7.186-22.889
					c4.591-6.576,10.958-11.576,18.413-14.459c2.394-0.926,5.084,0.264,6.009,2.658c0.925,2.393-0.264,5.084-2.658,6.009
					c-11.759,4.547-19.659,16.073-19.659,28.681c0,16.95,13.79,30.74,30.74,30.74s30.74-13.79,30.74-30.74
					c0-12.608-7.9-24.134-19.659-28.681c-2.393-0.925-3.583-3.616-2.658-6.009c0.926-2.393,3.615-3.583,6.009-2.658
					c7.455,2.883,13.822,7.882,18.413,14.459c4.702,6.735,7.186,14.649,7.186,22.889C290.032,138.997,272.074,156.955,250,156.955z"
					/>
			</g>
		</g>
	</g>
	<g>
		<path style="fill:#E89288;" d="M238.478,419.926l-38.453-113.959c-2.792-8.273,0.206-17.396,7.36-22.401l38.402-26.87
			L238.478,419.926z"/>
		<path style="fill:#F7A59B;" d="M250.053,128.249L250.053,128.249c-10.748,0-19.461,8.713-19.461,19.46v160.443h38.921V147.709
			C269.514,136.962,260.801,128.249,250.053,128.249z"/>
		<path style="fill:#F7A59B;" d="M254.319,221.137l83.52,22.997c12.569,3.461,21.278,14.892,21.278,27.929v52.56
			c0,7.801-1.498,15.529-4.412,22.765l-20.687,51.366V437H230.593V279.916L254.319,221.137z"/>
		<path style="fill:#E89288;" d="M282.746,251.146v-22.155l-13.233-3.671v22.155c0,5.994,4.085,11.217,9.902,12.662l10.337,2.567
			C285.523,260.494,282.746,256.085,282.746,251.146z"/>
		<g>
			<polygon style="fill:#D47F76;" points="305.74,235.295 296.383,232.719 305.74,262.588 			"/>
			<polygon style="fill:#D47F76;" points="335.683,272.464 335.683,243.54 325.767,240.809 			"/>
		</g>
		<path style="fill:#F7B7AF;" d="M250.053,134.486L250.053,134.486c-7.355,0-13.318,5.963-13.318,13.318v13.318h26.636v-13.318
			C263.371,140.448,257.409,134.486,250.053,134.486z"/>
		<path style="fill:#FACDC9;" d="M263.371,161.046c-3.21-2.067-7.981-3.382-13.318-3.382c-5.337,0-10.108,1.315-13.318,3.382v0.076
			h26.636V161.046z"/>
	</g>
</g>
<g id="DESIGNED_BY_FREEPIK">
	<g>
		<g id="XMLID_319_">
			<g id="XMLID_338_">
				<path id="XMLID_346_" style="fill:#112129;" d="M260.104,471.209c-0.432,0.443-0.803,0.931-1.108,1.453l-0.465-0.241
					c-0.067-0.298-0.349-0.503-0.659-0.466c-0.331,0.039-0.568,0.339-0.529,0.67c0.039,0.331,0.339,0.568,0.67,0.529
					c0.065-0.008,0.127-0.026,0.184-0.052l0.451,0.234c-0.251,0.554-0.433,1.139-0.539,1.744l0.746,0.132
					c0.23-1.306,0.85-2.507,1.792-3.473L260.104,471.209z"/>
				<path id="XMLID_345_" style="fill:#112129;" d="M265.592,468.907c-0.171,0-0.341,0.006-0.51,0.017l-0.074-0.626
					c0.188-0.149,0.296-0.389,0.266-0.645c-0.046-0.393-0.402-0.674-0.795-0.628c-0.393,0.046-0.674,0.402-0.628,0.795
					c0.03,0.254,0.189,0.461,0.405,0.564l0.073,0.624c-0.714,0.116-1.403,0.332-2.06,0.646l0.327,0.684
					c0.934-0.447,1.942-0.673,2.995-0.673c0.496,0,0.993,0.053,1.475,0.158l0.161-0.741
					C266.693,468.966,266.142,468.907,265.592,468.907z"/>
				<path id="XMLID_344_" style="fill:#112129;" d="M272.194,471.454c0.331-0.04,0.566-0.342,0.525-0.672
					c-0.04-0.331-0.341-0.566-0.672-0.526c-0.309,0.038-0.535,0.304-0.53,0.609l-0.416,0.363c-0.418-0.43-0.89-0.813-1.408-1.139
					l-0.404,0.641c1.134,0.715,2.021,1.726,2.563,2.925l0.69-0.313c-0.251-0.554-0.568-1.072-0.942-1.545l0.402-0.351
					C272.065,471.459,272.129,471.462,272.194,471.454z"/>
				<path id="XMLID_343_" style="fill:#112129;" d="M265.044,479.115c-0.386,0.023-0.775,0.035-1.157,0.035
					c-0.88,0-1.733-0.061-2.478-0.179c-0.39-0.062-0.846-0.155-1.27-0.292c1.046,1.861,3.069,3.125,5.388,3.125
					c2.855,0,5.262-1.916,5.95-4.504c-0.682,0.449-1.505,0.825-2.459,1.123C267.839,478.79,266.464,479.03,265.044,479.115z"/>
				<path id="XMLID_339_" style="fill:#112129;" d="M265.592,470.423c-3.352,0-6.08,2.666-6.08,5.943
					c0,0.426,0.046,0.849,0.137,1.261c0.674,0.483,2.706,0.89,5.348,0.731c2.879-0.173,5.297-0.957,6.672-2.159
					c-0.005-0.195-0.021-0.39-0.045-0.582C271.244,472.656,268.65,470.423,265.592,470.423z M263.432,476.938
					c-1.02,0-1.85-0.83-1.85-1.85c0-1.02,0.83-1.85,1.85-1.85c1.02,0,1.85,0.83,1.85,1.85
					C265.282,476.108,264.452,476.938,263.432,476.938z M268.17,476.03c-0.75,0-1.36-0.61-1.36-1.36c0-0.75,0.61-1.361,1.36-1.361
					c0.75,0,1.361,0.61,1.361,1.361C269.53,475.419,268.92,476.03,268.17,476.03z"/>
			</g>
			<path id="XMLID_336_" style="fill:#112129;" d="M281.595,472.29c-0.295-0.116-0.806-0.309-1.382-0.237
				c-0.551,0.069-0.844,0.341-0.844,1.007v0.866h2.228v1.717h-2.228v5.455h-1.932v-5.455h-1.34v-1.717h1.34v-0.888
				c0-1.68,0.895-2.783,2.568-2.783c0.642,0,1.157,0.122,1.59,0.308L281.595,472.29z"/>
			<path id="XMLID_334_" style="fill:#112129;" d="M286.298,475.622c-0.177-0.03-0.358-0.046-0.526-0.046
				c-0.896,0-1.51,0.548-1.51,1.613v3.908h-1.932v-7.172h1.873v0.785c0.451-0.673,1.14-0.977,2.021-0.977
				c0.414,0,0.848,0.128,1.094,0.337L286.298,475.622z"/>
			<path id="XMLID_331_" style="fill:#112129;" d="M293.965,477.5c0,0.222-0.015,0.489-0.037,0.651h-5.085
				c0.207,1.036,0.933,1.488,1.843,1.488c0.622,0,1.295-0.252,1.813-0.688l1.133,1.243c-0.814,0.748-1.85,1.088-3.057,1.088
				c-2.198,0-3.723-1.495-3.723-3.753c0-2.258,1.48-3.797,3.626-3.797C292.544,473.733,293.958,475.265,293.965,477.5z
				 M288.851,476.834h3.175c-0.178-0.918-0.733-1.436-1.562-1.436C289.554,475.398,289.021,475.946,288.851,476.834z"/>
			<path id="XMLID_328_" style="fill:#112129;" d="M301.618,477.5c0,0.222-0.015,0.489-0.037,0.651h-5.085
				c0.207,1.036,0.932,1.488,1.843,1.488c0.622,0,1.295-0.252,1.813-0.688l1.132,1.243c-0.814,0.748-1.85,1.088-3.057,1.088
				c-2.198,0-3.723-1.495-3.723-3.753c0-2.258,1.48-3.797,3.627-3.797C300.197,473.733,301.611,475.265,301.618,477.5z
				 M296.504,476.834h3.175c-0.178-0.918-0.733-1.436-1.562-1.436C297.207,475.398,296.674,475.946,296.504,476.834z"/>
			<path id="XMLID_325_" style="fill:#112129;" d="M309.964,477.508c0,2.154-1.495,3.775-3.471,3.775
				c-0.962,0-1.643-0.378-2.109-0.933v3.708h-1.924v-10.133h1.887v0.792c0.466-0.585,1.155-0.984,2.139-0.984
				C308.469,473.733,309.964,475.354,309.964,477.508z M304.287,477.508c0,1.132,0.747,1.976,1.843,1.976
				c1.14,0,1.85-0.881,1.85-1.976c0-1.095-0.711-1.976-1.85-1.976C305.035,475.531,304.287,476.375,304.287,477.508z"/>
			<path id="XMLID_322_" style="fill:#112129;" d="M313.068,471.579c0,0.696-0.54,1.229-1.236,1.229
				c-0.696,0-1.229-0.533-1.229-1.229c0-0.696,0.533-1.243,1.229-1.243C312.527,470.336,313.068,470.883,313.068,471.579z
				 M312.809,481.097h-1.932v-7.172h1.932V481.097z"/>
			<path id="XMLID_320_" style="fill:#112129;" d="M316.032,476.479l2.702-2.554h2.368l-3.479,3.375l3.501,3.797h-2.376
				l-2.716-2.901v2.901H314.1v-10.658h1.932V476.479z"/>
		</g>
		<g>
			<path style="fill:#112129;" d="M184.412,481.032v-1.055c-0.527,0.718-1.391,1.23-2.387,1.23c-1.846,0-3.149-1.406-3.149-3.706
				c0-2.256,1.289-3.721,3.149-3.721c0.952,0,1.816,0.469,2.387,1.245v-3.765h1.099v9.77H184.412z M184.412,479.113v-3.208
				c-0.395-0.615-1.245-1.143-2.124-1.143c-1.421,0-2.27,1.172-2.27,2.739c0,1.567,0.85,2.724,2.27,2.724
				C183.168,480.227,184.017,479.729,184.412,479.113z"/>
			<path style="fill:#112129;" d="M186.932,477.488c0-2.051,1.465-3.706,3.486-3.706c2.139,0,3.398,1.67,3.398,3.794v0.279h-5.727
				c0.088,1.333,1.025,2.446,2.549,2.446c0.806,0,1.626-0.322,2.182-0.893l0.527,0.718c-0.703,0.703-1.655,1.084-2.812,1.084
				C188.441,481.208,186.932,479.699,186.932,477.488z M190.404,474.69c-1.509,0-2.256,1.274-2.314,2.358h4.643
				C192.718,475.993,192.015,474.69,190.404,474.69z"/>
			<path style="fill:#112129;" d="M194.607,480.095l0.571-0.791c0.469,0.542,1.362,1.011,2.329,1.011c1.084,0,1.67-0.513,1.67-1.216
				c0-1.713-4.38-0.659-4.38-3.281c0-1.098,0.952-2.036,2.636-2.036c1.201,0,2.051,0.454,2.622,1.025l-0.513,0.762
				c-0.424-0.513-1.201-0.894-2.109-0.894c-0.967,0-1.567,0.483-1.567,1.113c0,1.552,4.38,0.527,4.38,3.281
				c0,1.187-0.952,2.138-2.783,2.138C196.306,481.208,195.325,480.857,194.607,480.095z"/>
			<path style="fill:#112129;" d="M201.477,472.214c0-0.41,0.337-0.747,0.732-0.747c0.41,0,0.747,0.337,0.747,0.747
				c0,0.41-0.337,0.732-0.747,0.732C201.814,472.947,201.477,472.625,201.477,472.214z M201.667,481.032v-7.075h1.099v7.075H201.667
				z"/>
			<path style="fill:#112129;" d="M204.582,482.849l0.556-0.82c0.586,0.703,1.289,0.967,2.3,0.967c1.172,0,2.27-0.571,2.27-2.124
				v-1.011c-0.513,0.718-1.377,1.26-2.373,1.26c-1.845,0-3.149-1.377-3.149-3.662c0-2.27,1.289-3.676,3.149-3.676
				c0.952,0,1.802,0.469,2.373,1.245v-1.069h1.099v6.87c0,2.344-1.641,3.076-3.369,3.076
				C206.237,483.903,205.417,483.669,204.582,482.849z M209.709,478.996v-3.091c-0.381-0.615-1.23-1.143-2.109-1.143
				c-1.421,0-2.27,1.128-2.27,2.695c0,1.553,0.849,2.695,2.27,2.695C208.478,480.154,209.328,479.612,209.709,478.996z"/>
			<path style="fill:#112129;" d="M217.413,481.032v-4.629c0-1.245-0.63-1.641-1.582-1.641c-0.865,0-1.685,0.527-2.095,1.099v5.17
				h-1.099v-7.075h1.099v1.025c0.498-0.586,1.464-1.201,2.519-1.201c1.48,0,2.256,0.747,2.256,2.285v4.966H217.413z"/>
			<path style="fill:#112129;" d="M219.932,477.488c0-2.051,1.465-3.706,3.486-3.706c2.139,0,3.398,1.67,3.398,3.794v0.279h-5.727
				c0.088,1.333,1.025,2.446,2.549,2.446c0.806,0,1.626-0.322,2.183-0.893l0.527,0.718c-0.703,0.703-1.655,1.084-2.812,1.084
				C221.441,481.208,219.932,479.699,219.932,477.488z M223.404,474.69c-1.509,0-2.256,1.274-2.314,2.358h4.643
				C225.718,475.993,225.015,474.69,223.404,474.69z"/>
			<path style="fill:#112129;" d="M233.35,481.032v-1.055c-0.527,0.718-1.392,1.23-2.388,1.23c-1.846,0-3.149-1.406-3.149-3.706
				c0-2.256,1.289-3.721,3.149-3.721c0.952,0,1.817,0.469,2.388,1.245v-3.765h1.098v9.77H233.35z M233.35,479.113v-3.208
				c-0.396-0.615-1.245-1.143-2.124-1.143c-1.421,0-2.27,1.172-2.27,2.739c0,1.567,0.849,2.724,2.27,2.724
				C232.105,480.227,232.954,479.729,233.35,479.113z"/>
			<path style="fill:#112129;" d="M239.692,481.032v-9.77h1.098v3.765c0.572-0.776,1.421-1.245,2.388-1.245
				c1.845,0,3.149,1.465,3.149,3.721c0,2.299-1.304,3.706-3.149,3.706c-0.996,0-1.86-0.513-2.388-1.23v1.055H239.692z
				 M242.9,480.227c1.436,0,2.286-1.157,2.286-2.724c0-1.568-0.85-2.739-2.286-2.739c-0.864,0-1.728,0.527-2.109,1.143v3.208
				C241.171,479.729,242.036,480.227,242.9,480.227z"/>
			<path style="fill:#112129;" d="M247.529,482.805c0.161,0.073,0.425,0.117,0.601,0.117c0.483,0,0.805-0.161,1.055-0.747
				l0.469-1.069l-2.959-7.148h1.187l2.358,5.801l2.344-5.801h1.201l-3.545,8.51c-0.425,1.025-1.143,1.421-2.08,1.435
				c-0.234,0-0.601-0.044-0.805-0.103L247.529,482.805z"/>
		</g>
	</g>
</g>
</svg>
