<?xml version="1.0" encoding="utf-8"?>
<!-- Generator: Adobe Illustrator 27.5.0, SVG Export Plug-In . SVG Version: 6.00 Build 0)  -->
<svg version="1.1" xmlns="http://www.w3.org/2000/svg" xmlns:xlink="http://www.w3.org/1999/xlink" x="0px" y="0px"
	 viewBox="0 0 500 500" style="enable-background:new 0 0 500 500;" xml:space="preserve">
<g id="Background_Simple">
	<g>
		<path style="fill:#92E3A9;" d="M423.093,146.222c0,0-76.085-109.545-171.085-121.167C168.149,14.795,90.309,54.894,79.475,141.547
			c-3.86,30.876-10.735,65.032-22.943,93.203c-13.688,31.587-37.056,57.89-19.156,118.619
			c17.901,60.728,93.464,115.565,148.403,115.427c54.939-0.139,106.547-50.057,149.119-95.47
			C377.471,327.911,513.068,285.224,423.093,146.222z"/>
		<path style="opacity:0.7;fill:#FFFFFF;" d="M423.093,146.222c0,0-76.085-109.545-171.085-121.167
			C168.149,14.795,90.309,54.894,79.475,141.547c-3.86,30.876-10.735,65.032-22.943,93.203
			c-13.688,31.587-37.056,57.89-19.156,118.619c17.901,60.728,93.464,115.565,148.403,115.427
			c54.939-0.139,106.547-50.057,149.119-95.47C377.471,327.911,513.068,285.224,423.093,146.222z"/>
	</g>
</g>
<g id="Device">
	<g>
		<path style="fill:#263238;stroke:#263238;stroke-miterlimit:10;" d="M140.476,114.798c0,2.349-2,4.254-4.466,4.254
			c-2.467,0-4.466-1.904-4.466-4.254c0-2.349,2-4.254,4.466-4.254C138.477,110.545,140.476,112.449,140.476,114.798z"/>
		<path style="fill:#263238;stroke:#263238;stroke-miterlimit:10;" d="M69.433,29.336l-6.752,90.98c0,0-9.055,7.087-11.024,16.142
			s-0.394,49.608,0.394,57.876c0.787,8.268,1.181,35.041,1.575,51.971c0.394,16.93,1.181,42.128,4.331,46.459
			c3.15,4.331,11.024,9.056,22.048,9.843c11.024,0.787,23.542-1.717,36.929-3.292c13.386-1.575,31.578-9.307,31.972-17.969
			c0.394-8.662,5.512-73.231,5.906-79.531c0.394-6.299,3.544-12.599,3.15-21.654c-0.394-9.055,0-40.947-1.575-48.033
			c-1.575-7.087-13.386-12.205-13.386-12.205l0.787-3.15l-15.355-3.543l-1.425,3.554c0,0-23.773-1.979-34.01-0.798L90.17,29.764
			c-0.181-5.52-4.65-9.933-10.172-10.043l0,0C74.481,19.611,69.842,23.834,69.433,29.336z"/>
		<path style="fill:#92E3A9;stroke:#263238;stroke-miterlimit:10;" d="M101.679,126.877c0,0-18.99,1.101-23.944,4.679
			c-4.954,3.578-6.33,8.257-6.881,14.587c-0.55,6.33-1.651,41.558-1.376,46.237c0.275,4.679,1.927,11.559,1.927,19.816
			c0,8.257,0.826,14.311,0.826,14.311l22.568,8.257c0,0,14.586-9.082,23.118-8.532c8.532,0.55,17.063,4.403,17.063,4.403
			l17.339-9.908c0,0-0.275-23.393,0.551-26.421c0.826-3.027,1.651-5.229,1.651-8.807c0-3.578,1.101-40.732,1.101-45.136
			c0-4.403-4.128-8.807-9.633-10.733C140.484,127.703,117.366,125.226,101.679,126.877z"/>
		<path style="fill:#7A7A7A;" d="M105.117,126.588c0,0,5.357-3.802,11.924-3.111s8.986,3.456,8.986,3.456
			S108.554,126.299,105.117,126.588z"/>
		<path style="fill:#263238;stroke:#263238;stroke-miterlimit:10;" d="M82.835,141.87c0,0-0.24,28.786,0.72,33.583
			c0.96,4.798,9.355,14.153,17.032,16.312c0,0,2.639,0.96,4.318,0c1.679-0.96,8.396-4.078,15.113-3.598
			c6.717,0.48,8.876,2.399,10.075,2.159c1.199-0.24,8.636-4.558,13.193-10.555c4.558-5.997,4.558-14.153,4.798-16.312
			c0.24-2.159-0.72-20.63-0.96-22.789c-0.24-2.159-3.358-2.399-7.196-3.118c-3.838-0.72-20.39-1.679-35.982-0.72
			C88.352,137.792,83.794,139.951,82.835,141.87z"/>
		<path style="fill:#263238;stroke:#263238;stroke-miterlimit:10;" d="M145.684,185.528l-13.913,10.075v7.916
			c0,0,0.48,1.919,3.118,1.439s9.835-3.118,10.795-4.318c0.96-1.199,2.159-11.994,1.919-13.673S145.684,185.528,145.684,185.528z"/>
		<path style="fill:#263238;stroke:#263238;stroke-miterlimit:10;" d="M100.826,198.721c0,0,0.72,5.037,0.24,6.237
			c-0.48,1.199-2.399,1.919-4.078,1.919s-11.754-1.199-12.954-2.399c-1.199-1.199-2.399-13.673-1.199-14.873
			C84.034,188.406,100.826,198.721,100.826,198.721z"/>
		<path style="fill:#263238;stroke:#263238;stroke-miterlimit:10;" d="M108.328,207.059c0,0-0.99,12.019-0.707,13.009
			c0.283,0.99,0.707,1.273,1.697,1.273c0.99,0,6.08,0.424,9.332,0c3.252-0.424,5.514-1.414,5.656-2.687
			c0.141-1.273,0-12.16-0.566-12.867c-0.566-0.707-1.273-0.848-2.969-0.99c-1.697-0.141-11.029,0.707-11.877,1.131
			C108.045,206.352,108.328,207.059,108.328,207.059z"/>
		<path style="fill:#263238;stroke:#263238;stroke-miterlimit:10;" d="M101.258,214.129c0,0-11.877-2.121-14.14-2.262
			c-2.262-0.141-3.676,0.566-3.818,2.686c-0.141,2.121,0.283,9.332,0.566,9.757c0.283,0.424,9.615,3.959,10.605,3.676
			c0.99-0.283,6.646-3.111,7.07-3.676c0.424-0.566,0.424-7.353,0.565-8.625C102.248,214.412,101.258,214.129,101.258,214.129z"/>
		<path style="fill:#263238;stroke:#263238;stroke-miterlimit:10;" d="M142.688,208.191c0,0-11.736,2.687-12.726,3.394
			c-0.99,0.707-0.848,1.414-0.99,2.545c-0.141,1.131,0.283,7.353,0.283,7.353s5.232,3.111,6.363,2.828
			c1.131-0.283,9.332-3.959,9.474-5.656c0.141-1.697,0.566-8.06,0.424-9.049C145.374,208.615,144.243,208.049,142.688,208.191z"/>
		<path style="fill:none;stroke:#263238;stroke-miterlimit:10;" d="M118.885,197.912c0,1.193-1.227,2.16-2.741,2.16
			s-2.741-0.967-2.741-2.16c0-1.193,1.227-2.16,2.741-2.16S118.885,196.719,118.885,197.912z"/>
		<path style="fill:#FFFFFF;stroke:#263238;stroke-miterlimit:10;" d="M133.729,174.208l-37.353,0.888
			c-1.686,0.04-3.075-1.316-3.075-3.003v-21.901c0-1.631,1.302-2.964,2.932-3.003l37.353-0.888c1.686-0.04,3.075,1.316,3.075,3.003
			v21.901C136.661,172.836,135.359,174.169,133.729,174.208z"/>
		<g>
			<g>
				<path style="fill:none;stroke:#7A7A7A;stroke-miterlimit:10;" d="M94.498,244.47c-1.017,0-1.887-0.772-1.988-1.805
					c-0.108-1.1,0.697-2.078,1.796-2.186c0.235-0.023,23.647-2.312,40.033-3.825c1.089-0.094,2.074,0.708,2.175,1.808
					c0.102,1.1-0.708,2.074-1.808,2.175c-16.374,1.511-39.776,3.8-40.01,3.823C94.629,244.467,94.563,244.47,94.498,244.47z"/>
			</g>
			<g>
				<path style="fill:none;stroke:#7A7A7A;stroke-miterlimit:10;" d="M86.086,255.94c-1.04,0-1.918-0.804-1.993-1.857
					c-0.079-1.102,0.751-2.059,1.853-2.138c0.391-0.027,39.256-2.83,52.96-6.069c1.076-0.254,2.153,0.412,2.406,1.486
					c0.254,1.075-0.411,2.152-1.486,2.406c-14.016,3.313-51.985,6.051-53.594,6.167C86.183,255.939,86.134,255.94,86.086,255.94z"/>
			</g>
			<g>
				<path style="fill:none;stroke:#7A7A7A;stroke-miterlimit:10;" d="M83.792,268.432c-1.017,0-1.887-0.772-1.988-1.806
					c-0.107-1.1,0.697-2.078,1.797-2.185c17.109-1.668,51.068-5.39,57.135-7.542c1.042-0.37,2.184,0.176,2.554,1.216
					c0.37,1.041-0.175,2.185-1.216,2.554c-8.04,2.853-56.045,7.555-58.085,7.753C83.922,268.429,83.857,268.432,83.792,268.432z"/>
			</g>
			<g>
				<path style="fill:none;stroke:#7A7A7A;stroke-miterlimit:10;" d="M129.454,273.87c-17.345,2.526-43.139,4.885-44.459,5.005
					c-0.062,0.005-0.123,0.008-0.184,0.008c-1.023,0-1.895-0.78-1.989-1.819c-0.1-1.1,0.71-2.072,1.81-2.173
					c0.392-0.035,39.313-3.594,53.817-6.595c1.081-0.217,2.14,0.472,2.364,1.554c0.224,1.082-0.472,2.14-1.553,2.364
					c-1.638,0.339-3.564,0.683-5.695,1.027"/>
			</g>
			<g>
				<path style="fill:none;stroke:#7A7A7A;stroke-miterlimit:10;" d="M91.695,288.824c-1.043,0-1.921-0.808-1.993-1.863
					c-0.076-1.103,0.757-2.057,1.859-2.132c0.296-0.021,29.75-2.058,39.894-4.78c1.068-0.287,2.164,0.347,2.45,1.413
					c0.286,1.067-0.347,2.164-1.413,2.45c-10.518,2.822-39.432,4.823-40.658,4.907C91.787,288.822,91.741,288.824,91.695,288.824z"
					/>
			</g>
		</g>
		<path style="fill:none;stroke:#7A7A7A;stroke-miterlimit:10;" d="M51.675,144.838c0,0,0-3.824,0.765-4.334
			c0.765-0.51,6.118,0.255,6.373,1.784c0.255,1.529,1.02,36.197,0,40.021c-1.02,3.824-5.098,3.314-6.118,1.53"/>
		<path style="fill:none;stroke:#7A7A7A;stroke-miterlimit:10;" d="M54.989,185.369c0,0,0.255,7.392,0.51,12.746
			c0.255,5.353,2.294,20.138,1.784,28.805c-0.51,8.667,1.529,58.12,1.529,58.12s0.51,6.883,1.784,8.667"/>
		<path style="fill:none;stroke:#7A7A7A;stroke-miterlimit:10;" d="M65.702,287.906c0.215,3.253,0.466,5.431,0.758,6.055
			c1.784,3.824,4.333,5.608,6.373,6.118"/>
		<path style="fill:none;stroke:#7A7A7A;stroke-miterlimit:10;" d="M64.46,228.781c0.087,15.493,0.342,40.862,1.013,55.008"/>
		<path style="fill:none;stroke:#7A7A7A;stroke-miterlimit:10;" d="M154.405,129.543c0,0-7.902-5.863-19.373-7.392
			c-11.471-1.53-33.648-0.765-45.884,1.529c-12.236,2.294-22.177,5.353-26.256,11.981s-2.804,53.532-2.039,59.904
			c0.765,6.373,3.569,10.706,3.569,21.667c0,1.518,0.005,4.015,0.018,7.2"/>
		<path style="fill:none;stroke:#263238;stroke-miterlimit:10;" d="M72.578,230.743c0,0-0.51,58.12-0.51,61.434
			c0,3.314,3.314,7.138,9.942,7.902c6.628,0.765,27.021-1.274,40.531-3.314"/>
		<path style="fill:none;stroke:#263238;stroke-miterlimit:10;" d="M96.075,171.905l33.289-1.242
			c1.896-0.071,3.417-1.592,3.489-3.488l0.695-18.519"/>
		<path style="fill:none;stroke:#7A7A7A;stroke-miterlimit:10;" d="M70.677,56.09l1.882-28.37c0,0,3.23-8.076,7.439-7.998"/>
		<path style="fill:none;stroke:#7A7A7A;stroke-miterlimit:10;" d="M55.785,140.009c0,0-0.466-9.319,4.193-11.648
			c4.659-2.33,6.523-9.319,6.523-9.319l3.867-58.3"/>
		<path style="fill:none;stroke:#7A7A7A;stroke-miterlimit:10;" d="M70.695,111.121c0,0,13.512-0.932,20.035-3.727"/>
		<path style="fill:none;stroke:#7A7A7A;stroke-miterlimit:10;" d="M69.763,115.781c0,0,13.512-0.932,20.035-3.727"/>
	</g>
</g>
<g id="Clouds">
	<path style="opacity:0.3;fill:none;stroke:#000000;stroke-miterlimit:10;" d="M445.768,107.234c0,0-15.608-29.481-44.221-33.816
		c-28.614-4.335-31.215,18.209-34.683,24.278c-3.468,6.07-19.076-10.405-33.816-3.468c-14.741,6.937-9.538,22.544-15.608,25.146
		c-6.07,2.601-17.342-4.335-23.411,1.734c-6.07,6.07-6.07,16.475-6.07,16.475h199.43c0,0-4.336-19.076-16.475-26.88
		C458.774,102.899,457.04,118.507,445.768,107.234z"/>
	<path style="opacity:0.3;fill:none;stroke:#000000;stroke-miterlimit:10;" d="M226.218,49.444c0,0-7.87-14.866-22.299-17.052
		c-14.428-2.186-15.74,9.182-17.489,12.242s-9.619-5.247-17.052-1.749c-7.433,3.498-4.809,11.368-7.87,12.68
		c-3.061,1.312-8.745-2.186-11.805,0.874c-3.061,3.061-3.061,8.307-3.061,8.307h100.562c0,0-2.186-9.619-8.307-13.554
		C232.776,47.258,231.902,55.128,226.218,49.444z"/>
</g>
<g id="Tree">
	<g>
		<g>
			<path style="fill:#92E3A9;" d="M484.707,273.212c0,49.664-25.118,69.486-56.103,69.486s-56.103-19.823-56.103-69.486
				c0-49.663,25.118-122.623,56.103-122.623S484.707,223.548,484.707,273.212z"/>
			<path style="opacity:0.4;fill:#FFFFFF;" d="M484.707,273.212c0,49.664-25.118,69.486-56.103,69.486s-56.103-19.823-56.103-69.486
				c0-49.663,25.118-122.623,56.103-122.623S484.707,223.548,484.707,273.212z"/>
		</g>
		<g>
			<polygon style="fill:#BABABA;" points="421.5,454.936 434.608,454.936 429.806,283.231 430.305,289.712 460.339,253.444 
				429.78,282.305 428.7,243.697 441.638,228.509 428.55,238.325 428.038,220.009 427.062,255.083 412.17,245.51 426.946,259.23 			
				"/>
			<polygon style="fill:#BABABA;" points="425.204,313.513 399.137,295.946 425.204,319.747 			"/>
		</g>
	</g>
</g>
<g id="Character">
	<g>
		<path style="fill:#FFFFFF;stroke:#263238;stroke-miterlimit:10;" d="M232.028,285.431l-76.164,22.432
			c0,0-42.777,75.121-45.386,90.249c-2.608,15.128-13.563,56.862-13.563,56.862H426.09c0,0,10.955-64.687,11.999-73.556
			c1.043-8.868,3.652-12.52,3.652-12.52s-30.257-45.385-36.517-52.167c-6.26-6.782-85.033-25.562-85.033-25.562
			s-33.909-7.825-48.516-9.912C257.068,279.171,232.028,285.431,232.028,285.431z"/>
		<path style="fill:#263238;stroke:#263238;stroke-miterlimit:10;" d="M428.276,442.004l-17.07-36.454l-36.366-17.392l-26.879,2.635
			l16.045,64.181h62.083C426.09,454.974,426.98,449.719,428.276,442.004z"/>
		<polygon style="fill:#FFFFFF;stroke:#263238;stroke-miterlimit:10;" points="247.678,248.914 249.243,273.432 276.886,294.034 
			291.345,318.994 302.975,294.821 315.495,280.736 319.147,236.394 		"/>
		<polygon style="fill:#263238;stroke:#263238;stroke-miterlimit:10;" points="249.243,273.432 258.6,280.406 286.262,261.316 
			282.322,246.54 274.22,244.264 247.678,248.914 		"/>
		<g>
			<polygon style="fill:#92E3A9;stroke:#263238;stroke-miterlimit:10;" points="266.177,306.017 283.087,320.567 293.312,338.264 
				294.773,454.943 328.985,454.943 305.401,343.559 303.347,334.429 311.794,305.23 286.913,306.582 272.862,291.86 			"/>
			<line style="fill:none;stroke:#263238;stroke-miterlimit:10;" x1="293.312" y1="338.264" x2="303.347" y2="334.429"/>
			<polyline style="fill:none;stroke:#263238;stroke-miterlimit:10;" points="283.087,320.567 286.913,306.582 310.422,304.984 			
				"/>
		</g>
		<polygon style="fill:#FFFFFF;stroke:#263238;stroke-miterlimit:10;" points="243.506,261.036 226.811,284.388 263.328,324.035 
			281.587,290.126 		"/>
		<path style="fill:#263238;stroke:#263238;stroke-miterlimit:10;" d="M338.142,291.86c-0.936,0.819-1.573,12.584,1.18,13.764
			c2.753,1.18,62.983,11.99,65.901,11.107c2.918-0.883,3.704-8.748,1.345-9.928C404.208,305.624,341.288,289.107,338.142,291.86z"/>
		<g>
			<path style="fill:#FFFFFF;stroke:#263238;stroke-miterlimit:10;" d="M234.561,169.825c0,0,0.575,52.36,1.151,57.539
				c0.575,5.179,16.399,35.099,18.988,37.113c2.589,2.014,9.782,4.891,14.672,4.315c4.891-0.575,33.085-14.097,40.853-19.275
				c7.768-5.178,15.823-24.166,15.823-24.166s11.22-4.891,14.96-11.22c3.74-6.329,1.151-20.714,0.863-22.153
				c-0.288-1.438-0.288-1.438-0.288-1.438s-1.726-15.248-3.74-19.851c-2.014-4.603-28.769-21.577-48.62-27.619
				c-19.851-6.042-38.551-2.589-45.456,7.48C236.862,160.619,234.561,169.825,234.561,169.825z"/>
			<path style="fill:none;stroke:#263238;stroke-miterlimit:10;" d="M281.795,193.692c0,0,3.425,4.795,11.987,5.822"/>
			<path style="fill:none;stroke:#263238;stroke-miterlimit:10;" d="M255.767,194.377c0,0-7.192,4.795-9.932,5.48"/>
			<path style="fill:#263238;stroke:#263238;stroke-miterlimit:10;" d="M341.871,191.977c0,0-2.877-4.603-5.466-3.165
				c-2.589,1.438-7.768,10.069-9.206,9.206c-1.438-0.863-6.617-19.851-7.48-24.742c-0.863-4.891,3.165-4.316,5.754-2.014
				C328.061,173.565,341.871,189.388,341.871,191.977z"/>
			<path style="fill:#92E3A9;stroke:#263238;stroke-miterlimit:10;" d="M326.623,174.14l15.248,17.837c0,0,0.863-25.317,0-37.688
				c-0.863-12.371-17.549-31.646-26.756-37.4c-9.206-5.754-34.523-10.357-43.73-7.192c-9.206,3.165-25.892,9.206-27.619,15.248
				c-1.726,6.042-7.768,26.18-7.768,26.18s19.563-8.631,31.934-4.028c12.371,4.603,46.606,22.152,48.333,23.303
				C317.992,171.551,326.623,174.14,326.623,174.14z"/>
			<path style="fill:#263238;stroke:#263238;stroke-miterlimit:10;" d="M223.053,162.345c0,0-2.589,3.74,2.014,6.617
				c4.603,2.877,9.494,0.863,9.494,0.863s6.905-15.535,18.7-18.125c11.795-2.589,18.7,0.288,18.7,0.288s-10.932-8.631-21.577-8.055
				C239.739,144.508,225.067,157.454,223.053,162.345z"/>
			<path style="fill:#92E3A9;stroke:#263238;stroke-miterlimit:10;" d="M223.053,162.345c0,0,15.535-18.7,34.236-15.536
				c18.7,3.165,36.25,31.359,46.319,33.948c10.069,2.589,23.016-6.617,23.016-6.617s-30.783-27.906-59.841-31.934
				C237.725,138.178,223.916,157.454,223.053,162.345z"/>
			<path style="fill:none;stroke:#263238;stroke-miterlimit:10;" d="M259.015,193.704l-3.262,15.288
				c-0.822,3.853,1.546,7.694,5.373,8.628c1.562,0.381,3.16,0.627,4.506,0.538"/>
			<path style="fill:none;stroke:#263238;stroke-miterlimit:10;" d="M251.822,230.528c0,0,3.788,3.985,8.919,4.891
				c8.801,1.554,15.248-3.452,15.248-3.452"/>
			<path style="fill:#263238;" d="M250.959,191.114c0,1.748-1.03,3.165-2.301,3.165s-2.302-1.417-2.302-3.165
				s1.03-3.165,2.302-3.165S250.959,189.366,250.959,191.114z"/>
			<path style="fill:#263238;" d="M289.51,189.388c0,1.748-1.03,3.165-2.302,3.165c-1.271,0-2.301-1.417-2.301-3.165
				c0-1.748,1.03-3.165,2.301-3.165C288.48,186.223,289.51,187.64,289.51,189.388z"/>
			<path style="fill:none;stroke:#263238;stroke-width:3;stroke-linecap:round;stroke-miterlimit:10;" d="M239.739,184.497
				c0.575-0.863,6.329-6.905,16.399-2.877"/>
			<path style="fill:none;stroke:#263238;stroke-width:3;stroke-linecap:round;stroke-miterlimit:10;" d="M277.427,180.469
				c0,0,10.069-7.768,22.152,2.589"/>
		</g>
		<g>
			<path style="fill:#263238;stroke:#263238;stroke-miterlimit:10;" d="M292.553,213.626c0.178-0.533,1.778-3.022,4.622-3.378
				c2.845-0.356,9.245,3.022,9.778,3.378c0.533,0.356,2.133,0.711,3.2-0.711c1.067-1.422,10.845-23.29,10.845-23.29
				s4.445-0.889,7.467,3.556l-10.311,28.446c0,0,1.422,4.978,0.533,7.467c-0.889,2.489-5.867,8.356-5.867,8.356L292.553,213.626z"/>
			<g>
				<path style="fill:#FFFFFF;stroke:#263238;stroke-miterlimit:10;" d="M315.303,235.278c0,0-23.728-26.836-27.683-28.248
					c-3.955-1.412-10.452,0.565-11.864,4.802c-1.412,4.237-0.565,6.497-0.565,6.497s-7.062,0.565-9.887,3.672s-1.13,7.91-1.13,7.91
					s-1.5,1.13-3.433,5.508c-1.934,4.379,0.609,6.921,0.609,6.921s-3.672,1.977-3.955,5.65c-0.283,3.672,1.13,5.932,2.825,8.757
					c1.695,2.825,13.559,33.615,16.666,37.287c3.107,3.672,16.949,18.361,16.949,18.361l9.604,13.277l27.118-28.248l-10.734-13.277
					l6.215-33.615c0,0,1.977-17.231,1.695-19.209c-0.282-1.977-0.565-7.91-0.282-14.124c0.282-6.215-3.107-9.039-6.78-5.367
					c-3.672,3.672-3.107,17.231-3.107,18.361C317.563,231.323,315.303,235.278,315.303,235.278z"/>
				<path style="fill:none;stroke:#263238;stroke-miterlimit:10;" d="M315.303,235.278c0,0,6.78,8.757,7.062,12.429"/>
				<path style="fill:none;stroke:#263238;stroke-miterlimit:10;" d="M275.191,218.329c0,0,10.452,6.215,16.101,14.124"/>
				<path style="fill:none;stroke:#263238;stroke-miterlimit:10;" d="M264.174,229.911c0,0,7.627,3.39,14.406,11.582"/>
				<path style="fill:none;stroke:#263238;stroke-miterlimit:10;" d="M261.349,242.34c0,0,9.887,6.497,12.712,11.017"/>
			</g>
			<path style="fill:#FFFFFF;stroke:#263238;stroke-miterlimit:10;" d="M327.45,288.384c0,0-30.91,34.271-29.78,34.553
				c1.13,0.282,27.238,41.434,27.238,41.434l35.31-48.304L327.45,288.384z"/>
			<g>
				<path style="fill:#FFFFFF;stroke:#263238;stroke-miterlimit:10;" d="M324.908,364.372c0,0,6.497,14.406,9.604,16.949
					s54.018,59.047,57.148,61.656c3.13,2.608,40.169,10.433,47.994,6.782c7.825-3.652,14.607-38.604,14.607-47.994
					c0-9.39-10.955-30.779-12.52-32.865s-32.35-14.603-38.604-23.475c-18.031-25.581-42.919-29.356-42.919-29.356L324.908,364.372z"
					/>
				<path style="fill:#FFFFFF;stroke:#263238;stroke-miterlimit:10;" d="M432.981,401.834c0.996,2.581,1.739,5.026,2.135,7.244"/>
				<path style="fill:#FFFFFF;stroke:#263238;stroke-miterlimit:10;" d="M406.605,359.026c0,0,16.95,21.612,24.859,39.189"/>
				<path style="fill:#FFFFFF;stroke:#263238;stroke-miterlimit:10;" d="M349.128,370.481c1.447,1.672,3.07,3.355,4.892,5.018"/>
				<path style="fill:#FFFFFF;stroke:#263238;stroke-miterlimit:10;" d="M337.547,347.622c0,0,1.227,9.408,9.268,20.007"/>
			</g>
		</g>
		<path style="fill:#263238;stroke:#263238;stroke-miterlimit:10;" d="M149.382,306.017c0,0,11.011,5.112,15.73,4.719
			c4.719-0.393,55.842-20.842,57.808-23.202c1.966-2.359-0.786-7.079-5.112-7.472C213.482,279.669,148.988,302.085,149.382,306.017z
			"/>
		<path style="fill:none;stroke:#263238;stroke-miterlimit:10;" d="M169.762,354.597c6.257,19.024,15.221,48.22,16.978,64.283
			c2.753,25.168,1.966,35.393,1.966,35.393"/>
		<path style="fill:none;stroke:#263238;stroke-miterlimit:10;" d="M163.539,336.297c0,0,1.222,3.43,3.108,8.981"/>
		<path style="fill:#263238;stroke:#263238;stroke-miterlimit:10;" d="M126.18,352.814l9.045-3.539l4.719,7.472
			c0,0-16.517,47.583-19.269,49.156c-2.753,1.573-5.899,2.753-9.045-1.573c-3.146-4.326-1.573-9.045-1.573-9.045L126.18,352.814z"/>
		<g>
			<polyline style="fill:#FFFFFF;stroke:#263238;stroke-miterlimit:10;" points="244.652,402.741 276.778,398.767 272.135,378.649 
							"/>
			<polyline style="fill:#FFFFFF;stroke:#263238;stroke-miterlimit:10;" points="271.361,367.816 195.532,379.423 201.722,408.052 
				237.579,403.616 			"/>
			<path style="fill:#FFFFFF;stroke:#263238;stroke-miterlimit:10;" d="M278.968,435.863c0.54,3.989,0.905,6.979,0.905,7.782"/>
			<path style="fill:#FFFFFF;stroke:#263238;stroke-miterlimit:10;" d="M274.457,404.957c0,0,2.047,13.453,3.624,24.537"/>
			<line style="fill:#FFFFFF;stroke:#263238;stroke-miterlimit:10;" x1="207.524" y1="439.867" x2="208.686" y2="445.967"/>
			<line style="fill:#FFFFFF;stroke:#263238;stroke-miterlimit:10;" x1="202.496" y1="413.469" x2="206.543" y2="434.716"/>
		</g>
	</g>
</g>
<g id="Line">
	<line style="fill:none;stroke:#263238;stroke-miterlimit:10;" x1="479.584" y1="454.974" x2="35.636" y2="454.974"/>
</g>
</svg>
